{"glyphs":{"0":{"ha":844,"x_min":83,"x_max":763,"o":"m 424 -21 q 673 69 583 -21 q 763 315 763 160 l 763 672 q 673 917 763 826 q 424 1007 583 1007 q 173 917 263 1007 q 83 672 83 826 l 83 315 q 173 69 83 160 q 424 -21 263 -21 m 424 142 q 300 187 343 142 q 257 315 257 232 l 257 672 q 300 800 257 756 q 424 844 343 844 q 545 800 503 844 q 588 672 588 756 l 588 315 q 545 187 588 232 q 424 142 503 142 "},"1":{"ha":563,"x_min":31,"x_max":444,"o":"m 318 0 l 397 0 q 434 10 424 0 q 444 47 444 21 l 444 939 q 434 976 444 965 q 397 986 424 986 l 331 986 q 297 982 310 986 q 263 967 283 978 l 60 846 q 31 807 31 828 q 38 782 31 794 l 71 719 q 85 700 78 706 q 103 694 93 694 q 139 706 114 694 l 269 775 l 269 47 q 281 10 269 21 q 318 0 292 0 "},"2":{"ha":796,"x_min":72,"x_max":726,"o":"m 117 0 l 676 0 q 711 10 701 0 q 721 47 721 21 l 721 115 q 711 152 721 142 q 676 163 701 163 l 263 163 l 263 192 q 306 282 263 247 q 438 356 349 317 q 601 442 540 401 q 694 544 661 483 q 726 699 726 606 q 690 853 726 783 q 583 965 654 924 q 413 1007 511 1007 q 199 949 276 1007 q 79 779 121 890 q 74 754 74 767 q 106 721 74 732 l 185 693 q 207 688 201 688 q 224 696 217 688 q 239 724 232 704 q 303 815 264 786 q 404 844 342 844 q 507 805 469 844 q 544 693 544 765 q 521 606 544 640 q 461 550 497 571 q 364 504 425 529 q 340 494 351 499 q 319 485 329 489 q 194 414 246 451 q 107 315 142 376 q 72 165 72 254 l 72 47 q 82 10 72 21 q 117 0 92 0 "},"3":{"ha":817,"x_min":64,"x_max":746,"o":"m 417 -21 q 662 61 578 -21 q 746 281 746 143 q 714 422 746 360 q 617 515 682 483 q 694 601 668 547 q 719 725 719 656 q 638 932 719 857 q 411 1007 556 1007 q 192 949 272 1007 q 75 775 113 890 q 69 750 69 763 q 78 729 69 738 q 103 714 86 721 l 174 692 q 199 686 193 686 q 218 694 210 686 q 232 721 226 703 q 292 815 253 786 q 406 844 331 844 q 509 809 474 844 q 544 710 544 774 q 511 614 544 649 q 417 579 478 579 l 319 579 q 285 569 294 579 q 275 532 275 558 l 275 469 q 285 433 275 443 q 319 422 294 422 l 428 422 q 533 386 497 422 q 569 283 569 350 q 531 178 569 215 q 411 142 492 142 q 293 172 333 142 q 232 269 253 203 q 217 296 225 288 q 197 304 210 304 q 175 299 192 304 l 96 274 q 64 238 64 264 q 69 213 64 232 q 190 38 106 96 q 417 -21 274 -21 "},"4":{"ha":838,"x_min":40,"x_max":793,"o":"m 546 0 l 619 0 q 655 10 644 0 q 665 47 665 21 l 665 229 l 749 229 q 783 240 774 229 q 793 276 793 250 l 793 336 q 783 373 793 363 q 749 383 774 383 l 665 383 l 665 942 q 655 978 665 968 q 619 989 644 989 l 536 989 q 499 982 513 989 q 471 956 486 975 l 63 389 q 45 360 50 372 q 40 326 40 349 l 40 276 q 50 240 40 250 q 85 229 60 229 l 503 229 l 503 47 q 513 10 503 21 q 546 0 522 0 m 503 383 l 236 383 l 503 754 l 503 383 "},"5":{"ha":788,"x_min":57,"x_max":728,"o":"m 400 -21 q 579 22 506 -21 q 690 138 653 64 q 728 307 728 213 q 649 532 728 444 q 407 619 569 619 l 269 619 l 288 824 l 647 824 q 681 834 672 824 q 690 871 690 844 l 690 939 q 681 976 690 965 q 647 986 672 986 l 197 986 q 146 972 161 986 q 128 918 131 957 l 90 514 q 97 472 88 485 q 135 458 107 458 l 389 458 q 507 419 463 458 q 551 304 551 379 q 508 184 551 226 q 397 142 465 142 q 283 172 325 142 q 221 263 240 201 q 207 290 215 282 q 186 297 199 297 q 164 293 176 297 l 89 267 q 57 233 57 258 q 63 208 57 228 q 182 37 103 94 q 400 -21 261 -21 "},"6":{"ha":844,"x_min":82,"x_max":774,"o":"m 428 -21 q 682 65 590 -21 q 774 297 774 150 q 692 528 774 453 q 440 604 611 604 q 256 576 350 604 l 256 663 q 298 802 256 760 q 429 844 340 844 q 541 819 500 844 q 603 738 582 793 q 636 701 615 701 q 660 707 640 701 l 731 733 q 760 765 760 743 q 754 792 760 776 q 638 952 717 897 q 428 1007 558 1007 q 171 916 260 1007 q 82 654 82 825 l 82 342 q 171 75 82 171 q 428 -21 260 -21 m 428 142 q 256 340 256 142 l 256 417 q 429 449 329 449 q 560 411 521 449 q 600 297 600 374 q 428 142 600 142 "},"7":{"ha":714,"x_min":43,"x_max":681,"o":"m 178 0 l 268 0 q 313 7 301 0 q 335 42 324 14 l 669 824 q 679 855 678 843 q 681 890 681 867 l 681 939 q 672 976 681 965 q 638 986 663 986 l 86 986 q 52 976 61 986 q 43 939 43 965 l 43 871 q 52 834 43 844 q 86 824 61 824 l 488 824 l 153 47 q 147 24 147 35 q 178 0 147 0 "},"8":{"ha":836,"x_min":69,"x_max":767,"o":"m 417 -21 q 681 58 596 -21 q 767 269 767 136 q 728 423 767 365 q 618 517 689 481 q 739 743 739 594 q 657 939 739 871 q 421 1007 575 1007 q 184 933 271 1007 q 97 729 97 860 q 128 590 97 643 q 218 499 160 538 q 115 403 160 465 q 69 247 69 342 q 154 51 69 124 q 417 -21 239 -21 m 460 568 l 418 582 q 308 635 344 607 q 272 726 272 664 q 311 823 272 790 q 418 856 350 856 q 531 823 492 856 q 569 726 569 790 q 538 627 569 661 q 460 568 506 593 m 417 131 q 286 166 329 131 q 243 265 243 201 q 280 374 243 338 q 365 433 317 411 l 399 425 q 502 392 465 407 q 563 347 539 376 q 586 267 586 318 q 544 166 586 201 q 417 131 503 131 "},"9":{"ha":844,"x_min":71,"x_max":764,"o":"m 417 -21 q 675 70 586 -21 q 764 332 764 161 l 764 644 q 674 911 764 815 q 417 1007 585 1007 q 163 922 254 1007 q 71 689 71 836 q 153 458 71 533 q 406 382 235 382 q 589 410 496 382 l 589 322 q 547 184 589 226 q 417 142 506 142 q 305 168 347 142 q 242 249 263 194 q 208 285 229 285 q 185 279 204 285 l 114 253 q 85 221 85 243 q 90 194 85 210 q 208 34 129 89 q 417 -21 288 -21 m 415 538 q 284 575 324 538 q 244 689 244 613 q 417 844 244 844 q 547 794 506 844 q 589 646 589 744 l 589 569 q 415 538 515 538 "}," ":{"ha":304,"x_min":0,"x_max":0,"o":""},"A":{"ha":879,"x_min":19,"x_max":857,"o":"m 54 0 l 133 0 q 185 8 169 0 q 207 42 200 17 l 263 218 l 608 218 l 664 42 q 685 8 669 17 q 739 0 701 0 l 822 0 q 857 24 857 0 q 853 46 857 33 l 539 950 q 519 980 531 972 q 483 988 507 988 l 394 988 q 360 980 371 988 q 340 949 349 972 l 25 46 q 19 24 19 29 q 54 0 19 0 m 561 365 l 311 365 l 400 656 q 432 817 422 739 l 440 817 q 474 656 446 754 l 561 365 "},"Á":{"ha":879,"x_min":19,"x_max":857,"o":"m 54 0 l 133 0 q 185 8 169 0 q 207 42 200 17 l 263 218 l 608 218 l 664 42 q 685 8 669 17 q 739 0 701 0 l 822 0 q 857 24 857 0 q 853 46 857 33 l 539 950 q 519 980 531 972 q 483 988 507 988 l 394 988 q 360 980 371 988 q 340 949 349 972 l 25 46 q 19 24 19 29 q 54 0 19 0 m 561 365 l 311 365 l 400 656 q 432 817 422 739 l 440 817 q 474 656 446 754 l 561 365 m 356 1058 l 589 1160 q 610 1181 610 1168 q 594 1208 610 1190 l 558 1251 q 524 1269 544 1269 q 481 1254 506 1269 l 286 1132 q 269 1113 269 1122 q 283 1086 269 1104 l 303 1061 q 324 1050 311 1050 q 340 1053 329 1050 q 356 1058 350 1057 "},"Ă":{"ha":879,"x_min":19,"x_max":857,"o":"m 54 0 l 133 0 q 185 8 169 0 q 207 42 200 17 l 263 218 l 608 218 l 664 42 q 685 8 669 17 q 739 0 701 0 l 822 0 q 857 24 857 0 q 853 46 857 33 l 539 950 q 519 980 531 972 q 483 988 507 988 l 394 988 q 360 980 371 988 q 340 949 349 972 l 25 46 q 19 24 19 29 q 54 0 19 0 m 561 365 l 311 365 l 400 656 q 432 817 422 739 l 440 817 q 474 656 446 754 l 561 365 m 438 1056 q 570 1093 515 1056 q 650 1197 625 1131 q 653 1213 653 1208 q 631 1238 653 1228 l 567 1260 q 553 1263 556 1263 q 532 1243 540 1263 q 438 1171 504 1171 q 381 1190 404 1171 q 346 1243 357 1208 q 322 1261 339 1261 q 303 1258 310 1261 l 247 1238 q 226 1214 226 1231 l 229 1197 q 307 1093 253 1131 q 438 1056 361 1056 "},"Â":{"ha":879,"x_min":19,"x_max":857,"o":"m 54 0 l 133 0 q 185 8 169 0 q 207 42 200 17 l 263 218 l 608 218 l 664 42 q 685 8 669 17 q 739 0 701 0 l 822 0 q 857 24 857 0 q 853 46 857 33 l 539 950 q 519 980 531 972 q 483 988 507 988 l 394 988 q 360 980 371 988 q 340 949 349 972 l 25 46 q 19 24 19 29 q 54 0 19 0 m 561 365 l 311 365 l 400 656 q 432 817 422 739 l 440 817 q 474 656 446 754 l 561 365 m 236 1053 l 294 1053 q 333 1057 322 1053 q 360 1078 344 1061 l 439 1157 l 513 1078 q 540 1058 526 1063 q 581 1053 554 1053 l 643 1053 q 674 1068 674 1053 q 664 1088 674 1078 l 528 1224 q 490 1256 503 1250 q 451 1261 476 1261 l 435 1261 q 391 1255 404 1261 q 353 1224 378 1249 l 217 1088 q 206 1068 206 1076 q 236 1053 206 1053 "},"Ä":{"ha":879,"x_min":19,"x_max":857,"o":"m 54 0 l 133 0 q 185 8 169 0 q 207 42 200 17 l 263 218 l 608 218 l 664 42 q 685 8 669 17 q 739 0 701 0 l 822 0 q 857 24 857 0 q 853 46 857 33 l 539 950 q 519 980 531 972 q 483 988 507 988 l 394 988 q 360 980 371 988 q 340 949 349 972 l 25 46 q 19 24 19 29 q 54 0 19 0 m 561 365 l 311 365 l 400 656 q 432 817 422 739 l 440 817 q 474 656 446 754 l 561 365 m 296 1075 l 306 1075 q 363 1091 347 1075 q 379 1147 379 1107 l 379 1161 q 363 1217 379 1201 q 306 1232 347 1232 l 296 1232 q 239 1217 254 1232 q 224 1161 224 1201 l 224 1147 q 239 1091 224 1107 q 296 1075 254 1075 m 569 1075 l 579 1075 q 636 1091 621 1075 q 651 1147 651 1107 l 651 1161 q 636 1217 651 1201 q 579 1232 621 1232 l 569 1232 q 512 1217 528 1232 q 496 1161 496 1201 l 496 1147 q 512 1091 496 1107 q 569 1075 528 1075 "},"À":{"ha":879,"x_min":19,"x_max":857,"o":"m 54 0 l 133 0 q 185 8 169 0 q 207 42 200 17 l 263 218 l 608 218 l 664 42 q 685 8 669 17 q 739 0 701 0 l 822 0 q 857 24 857 0 q 853 46 857 33 l 539 950 q 519 980 531 972 q 483 988 507 988 l 394 988 q 360 980 371 988 q 340 949 349 972 l 25 46 q 19 24 19 29 q 54 0 19 0 m 561 365 l 311 365 l 400 656 q 432 817 422 739 l 440 817 q 474 656 446 754 l 561 365 m 293 1160 l 525 1058 q 558 1050 546 1050 q 579 1061 572 1050 l 599 1086 q 613 1113 613 1104 q 596 1132 613 1122 l 400 1254 q 357 1269 375 1269 q 322 1251 336 1269 l 286 1207 q 272 1179 272 1192 q 293 1160 272 1167 "},"Ā":{"ha":879,"x_min":19,"x_max":857,"o":"m 54 0 l 133 0 q 185 8 169 0 q 207 42 200 17 l 263 218 l 608 218 l 664 42 q 685 8 669 17 q 739 0 701 0 l 822 0 q 857 24 857 0 q 853 46 857 33 l 539 950 q 519 980 531 972 q 483 988 507 988 l 394 988 q 360 980 371 988 q 340 949 349 972 l 25 46 q 19 24 19 29 q 54 0 19 0 m 561 365 l 311 365 l 400 656 q 432 817 422 739 l 440 817 q 474 656 446 754 l 561 365 m 279 1093 l 597 1093 q 629 1101 621 1093 q 638 1133 638 1110 l 638 1168 q 629 1200 638 1192 q 597 1208 621 1208 l 279 1208 q 248 1200 257 1208 q 239 1168 239 1192 l 239 1133 q 247 1101 239 1110 q 279 1093 256 1093 "},"Ą":{"ha":879,"x_min":19,"x_max":871,"o":"m 736 -340 q 806 -328 772 -340 q 864 -292 839 -315 q 871 -278 871 -285 q 867 -262 871 -271 l 847 -217 q 832 -204 842 -204 q 821 -208 828 -204 q 786 -222 806 -222 q 751 -194 760 -222 q 750 -181 750 -190 q 775 -102 750 -151 q 851 8 800 -53 q 857 26 857 17 q 853 46 857 33 l 539 950 q 519 980 531 972 q 483 988 507 988 l 394 988 q 360 980 371 988 q 340 949 349 972 l 25 46 q 19 24 19 29 q 54 0 19 0 l 133 0 q 185 8 169 0 q 207 42 200 17 l 263 218 l 608 218 l 664 42 q 682 10 669 19 q 724 1 694 1 q 640 -116 669 -56 q 611 -226 611 -176 q 614 -257 611 -247 q 736 -340 628 -340 m 561 365 l 311 365 l 400 656 q 432 817 422 739 l 440 817 q 474 656 446 754 l 561 365 "},"Å":{"ha":879,"x_min":19,"x_max":857,"o":"m 54 0 l 133 0 q 185 8 169 0 q 207 42 200 17 l 263 218 l 608 218 l 664 42 q 685 8 669 17 q 739 0 701 0 l 822 0 q 857 24 857 0 q 853 46 857 33 l 544 933 q 590 986 574 953 q 606 1061 606 1019 q 559 1182 606 1135 q 440 1229 513 1229 q 316 1182 364 1229 q 268 1061 268 1135 q 285 984 268 1018 q 335 931 303 950 l 25 46 q 19 24 19 29 q 54 0 19 0 m 440 989 q 385 1009 407 989 q 364 1061 364 1029 q 385 1115 364 1094 q 440 1135 407 1135 q 490 1115 471 1135 q 510 1061 510 1094 q 490 1009 510 1029 q 440 989 471 989 m 561 365 l 311 365 l 400 656 q 432 817 422 739 l 440 817 q 474 656 446 754 l 561 365 "},"Ǻ":{"ha":879,"x_min":19,"x_max":857,"o":"m 339 1199 l 569 1275 q 589 1290 589 1281 q 576 1310 589 1297 l 543 1343 q 511 1360 525 1360 q 485 1351 501 1360 l 292 1261 q 271 1239 271 1251 q 279 1222 271 1231 l 297 1203 q 315 1193 307 1193 q 339 1199 324 1193 m 54 0 l 133 0 q 185 8 169 0 q 207 42 200 17 l 263 218 l 608 218 l 664 42 q 685 8 669 17 q 739 0 701 0 l 822 0 q 857 24 857 0 q 853 46 857 33 l 547 928 q 581 969 568 943 q 593 1026 593 996 q 550 1133 593 1092 q 440 1174 507 1174 q 326 1133 371 1174 q 282 1028 282 1092 q 332 925 282 963 l 25 46 q 19 24 19 29 q 54 0 19 0 m 440 964 q 389 982 408 964 q 369 1029 369 1000 q 389 1076 369 1058 q 440 1094 408 1094 q 487 1076 468 1094 q 506 1029 506 1058 q 487 982 506 1000 q 440 964 468 964 m 561 365 l 311 365 l 400 656 q 433 817 425 749 l 440 817 q 474 656 446 754 l 561 365 "},"Ã":{"ha":879,"x_min":19,"x_max":857,"o":"m 54 0 l 133 0 q 185 8 169 0 q 207 42 200 17 l 263 218 l 608 218 l 664 42 q 685 8 669 17 q 739 0 701 0 l 822 0 q 857 24 857 0 q 853 46 857 33 l 539 950 q 519 980 531 972 q 483 988 507 988 l 394 988 q 360 980 371 988 q 340 949 349 972 l 25 46 q 19 24 19 29 q 54 0 19 0 m 561 365 l 311 365 l 400 656 q 432 817 422 739 l 440 817 q 474 656 446 754 l 561 365 m 250 1063 l 296 1063 q 315 1069 310 1063 q 321 1090 321 1075 q 351 1143 321 1143 q 383 1135 368 1143 q 418 1110 397 1126 q 470 1074 447 1086 q 525 1063 493 1063 q 613 1098 585 1063 q 640 1218 640 1133 q 635 1238 640 1232 q 614 1244 629 1244 l 569 1244 q 549 1238 554 1244 q 544 1218 544 1232 q 513 1165 544 1165 q 483 1173 497 1165 q 449 1197 469 1181 q 396 1232 421 1219 q 336 1244 371 1244 q 251 1209 279 1244 q 224 1090 224 1174 q 230 1069 224 1075 q 250 1063 236 1063 "},"Æ":{"ha":1156,"x_min":4,"x_max":1101,"o":"m 38 0 l 121 0 q 176 8 161 0 q 204 42 192 17 l 292 207 l 568 207 l 568 47 q 578 10 568 21 q 614 0 588 0 l 1056 0 q 1091 10 1081 0 q 1101 47 1101 21 l 1101 115 q 1091 152 1101 142 q 1056 163 1081 163 l 738 163 l 738 418 l 978 418 q 1014 428 1004 418 q 1024 465 1024 439 l 1024 533 q 1014 570 1024 560 q 978 581 1004 581 l 738 581 l 738 824 l 1043 824 q 1078 834 1068 824 q 1088 871 1088 844 l 1088 939 q 1078 976 1088 965 q 1043 986 1068 986 l 600 986 q 569 978 579 986 q 544 947 560 971 l 10 46 q 4 22 4 33 q 38 0 4 0 m 568 350 l 381 350 l 574 711 l 568 350 "},"Ǽ":{"ha":1156,"x_min":4,"x_max":1101,"o":"m 38 0 l 121 0 q 176 8 161 0 q 204 42 192 17 l 292 207 l 568 207 l 568 47 q 578 10 568 21 q 614 0 588 0 l 1056 0 q 1091 10 1081 0 q 1101 47 1101 21 l 1101 115 q 1091 152 1101 142 q 1056 163 1081 163 l 738 163 l 738 418 l 978 418 q 1014 428 1004 418 q 1024 465 1024 439 l 1024 533 q 1014 570 1024 560 q 978 581 1004 581 l 738 581 l 738 824 l 1043 824 q 1078 834 1068 824 q 1088 871 1088 844 l 1088 939 q 1078 976 1088 965 q 1043 986 1068 986 l 600 986 q 569 978 579 986 q 544 947 560 971 l 10 46 q 4 22 4 33 q 38 0 4 0 m 568 350 l 381 350 l 574 711 l 568 350 m 736 1058 l 969 1160 q 990 1181 990 1168 q 975 1208 990 1190 l 939 1251 q 904 1269 925 1269 q 861 1254 886 1269 l 667 1132 q 650 1113 650 1122 q 664 1086 650 1104 l 683 1061 q 704 1050 692 1050 q 720 1053 710 1050 q 736 1058 731 1057 "},"B":{"ha":868,"x_min":107,"x_max":806,"o":"m 150 0 l 515 0 q 728 71 650 0 q 806 271 806 142 q 671 511 806 450 l 671 515 q 747 597 722 547 q 771 722 771 647 q 694 916 771 846 q 492 986 618 986 l 150 986 q 116 976 125 986 q 107 939 107 965 l 107 47 q 116 10 107 21 q 150 0 125 0 m 488 574 l 281 574 l 281 826 l 486 826 q 570 795 540 826 q 600 701 600 764 q 571 606 600 638 q 488 574 542 574 m 508 160 l 281 160 l 281 426 l 508 426 q 599 392 565 426 q 632 292 632 357 q 599 194 632 228 q 508 160 565 160 "},"C":{"ha":853,"x_min":78,"x_max":803,"o":"m 446 -21 q 799 213 721 -21 q 803 236 803 228 q 771 272 803 263 l 689 299 q 665 304 669 304 q 632 268 644 304 q 567 174 611 206 q 450 142 522 142 q 253 340 253 142 l 253 647 q 447 844 253 844 q 569 815 524 844 q 636 721 615 785 q 650 694 643 701 q 669 686 657 686 q 692 690 679 686 l 771 715 q 803 750 803 726 q 797 775 803 763 q 446 1007 719 1007 q 174 910 271 1007 q 78 646 78 814 l 78 342 q 174 76 78 172 q 446 -21 271 -21 "},"Ć":{"ha":853,"x_min":78,"x_max":803,"o":"m 446 -21 q 799 213 721 -21 q 803 236 803 228 q 771 272 803 263 l 689 299 q 665 304 669 304 q 632 268 644 304 q 567 174 611 206 q 450 142 522 142 q 253 340 253 142 l 253 647 q 447 844 253 844 q 569 815 524 844 q 636 721 615 785 q 650 694 643 701 q 669 686 657 686 q 692 690 679 686 l 771 715 q 803 750 803 726 q 797 775 803 763 q 446 1007 719 1007 q 174 910 271 1007 q 78 646 78 814 l 78 342 q 174 76 78 172 q 446 -21 271 -21 m 368 1058 l 601 1160 q 622 1181 622 1168 q 607 1208 622 1190 l 571 1251 q 536 1269 557 1269 q 493 1254 518 1269 l 299 1132 q 282 1113 282 1122 q 296 1086 282 1104 l 315 1061 q 336 1050 324 1050 q 352 1053 342 1050 q 368 1058 363 1057 "},"Č":{"ha":853,"x_min":78,"x_max":803,"o":"m 446 -21 q 799 213 721 -21 q 803 236 803 228 q 771 272 803 263 l 689 299 q 665 304 669 304 q 632 268 644 304 q 567 174 611 206 q 450 142 522 142 q 253 340 253 142 l 253 647 q 447 844 253 844 q 569 815 524 844 q 636 721 615 785 q 650 694 643 701 q 669 686 657 686 q 692 690 679 686 l 771 715 q 803 750 803 726 q 797 775 803 763 q 446 1007 719 1007 q 174 910 271 1007 q 78 646 78 814 l 78 342 q 174 76 78 172 q 446 -21 271 -21 m 443 1051 l 458 1051 q 499 1057 486 1051 q 536 1088 511 1063 l 672 1224 q 682 1243 682 1233 q 651 1258 682 1258 l 589 1258 q 548 1254 561 1258 q 521 1235 535 1250 l 446 1156 l 368 1235 q 341 1255 353 1251 q 303 1258 329 1258 l 244 1258 q 214 1243 214 1258 q 224 1224 214 1233 l 360 1088 q 397 1057 383 1063 q 443 1051 411 1051 "},"Ç":{"ha":853,"x_min":78,"x_max":803,"o":"m 428 -340 q 553 -310 503 -340 q 611 -206 604 -279 q 583 -115 617 -151 q 497 -79 550 -79 q 482 -81 486 -79 l 501 -18 q 799 213 729 4 q 803 236 803 228 q 771 272 803 263 l 689 299 q 665 304 669 304 q 632 268 644 304 q 567 174 611 206 q 450 142 522 142 q 253 340 253 142 l 253 647 q 447 844 253 844 q 569 815 524 844 q 636 721 615 785 q 650 694 643 701 q 669 686 657 686 q 692 690 679 686 l 771 715 q 803 750 803 726 q 797 775 803 763 q 446 1007 719 1007 q 174 910 271 1007 q 78 646 78 814 l 78 342 q 163 88 78 183 q 403 -18 247 -7 l 367 -125 q 363 -143 363 -136 q 382 -158 363 -158 l 386 -158 l 418 -157 q 460 -168 447 -158 q 472 -197 472 -178 q 407 -247 472 -247 q 366 -242 381 -247 q 328 -225 351 -237 q 307 -242 307 -215 l 308 -283 q 313 -308 308 -300 q 331 -322 318 -317 q 378 -336 349 -332 q 428 -340 407 -340 "},"Ĉ":{"ha":853,"x_min":78,"x_max":803,"o":"m 446 -21 q 799 213 721 -21 q 803 236 803 228 q 771 272 803 263 l 689 299 q 665 304 669 304 q 632 268 644 304 q 567 174 611 206 q 450 142 522 142 q 253 340 253 142 l 253 647 q 447 844 253 844 q 569 815 524 844 q 636 721 615 785 q 650 694 643 701 q 669 686 657 686 q 692 690 679 686 l 771 715 q 803 750 803 726 q 797 775 803 763 q 446 1007 719 1007 q 174 910 271 1007 q 78 646 78 814 l 78 342 q 174 76 78 172 q 446 -21 271 -21 m 249 1053 l 307 1053 q 346 1057 335 1053 q 372 1078 357 1061 l 451 1157 l 525 1078 q 553 1058 539 1063 q 593 1053 567 1053 l 656 1053 q 686 1068 686 1053 q 676 1088 686 1078 l 540 1224 q 502 1256 515 1250 q 464 1261 489 1261 l 447 1261 q 403 1255 417 1261 q 365 1224 390 1249 l 229 1088 q 218 1068 218 1076 q 249 1053 218 1053 "},"Ċ":{"ha":853,"x_min":78,"x_max":803,"o":"m 446 -21 q 799 213 721 -21 q 803 236 803 228 q 771 272 803 263 l 689 299 q 665 304 669 304 q 632 268 644 304 q 567 174 611 206 q 450 142 522 142 q 253 340 253 142 l 253 647 q 447 844 253 844 q 569 815 524 844 q 636 721 615 785 q 650 694 643 701 q 669 686 657 686 q 692 690 679 686 l 771 715 q 803 750 803 726 q 797 775 803 763 q 446 1007 719 1007 q 174 910 271 1007 q 78 646 78 814 l 78 342 q 174 76 78 172 q 446 -21 271 -21 m 446 1074 l 454 1074 q 513 1089 497 1074 q 529 1147 529 1104 l 529 1158 q 513 1217 529 1201 q 454 1233 497 1233 l 446 1233 q 388 1217 403 1233 q 372 1158 372 1201 l 372 1147 q 388 1089 372 1104 q 446 1074 403 1074 "},"D":{"ha":890,"x_min":107,"x_max":813,"o":"m 150 0 l 440 0 q 715 97 618 0 q 813 367 813 194 l 813 619 q 715 889 813 792 q 440 986 618 986 l 150 986 q 116 976 125 986 q 107 939 107 965 l 107 47 q 116 10 107 21 q 150 0 125 0 m 444 163 l 281 163 l 281 824 l 444 824 q 590 772 540 824 q 639 621 639 721 l 639 365 q 590 214 639 265 q 444 163 540 163 "},"Ð":{"ha":890,"x_min":21,"x_max":813,"o":"m 150 0 l 439 0 q 715 98 618 0 q 813 367 813 196 l 813 619 q 715 889 813 792 q 439 986 618 986 l 150 986 q 115 976 125 986 q 106 939 106 965 l 106 565 l 50 565 q 28 558 35 565 q 21 535 21 551 l 21 471 q 27 447 21 453 q 50 442 33 442 l 106 442 l 106 47 q 115 10 106 21 q 150 0 125 0 m 444 163 l 281 163 l 281 442 l 432 442 q 454 448 449 442 q 460 471 460 454 l 460 535 q 453 559 460 553 q 432 565 447 565 l 281 565 l 281 824 l 444 824 q 590 772 540 824 q 639 621 639 719 l 639 365 q 590 215 639 267 q 444 163 540 163 "},"Ď":{"ha":890,"x_min":107,"x_max":813,"o":"m 150 0 l 440 0 q 715 97 618 0 q 813 367 813 194 l 813 619 q 715 889 813 792 q 440 986 618 986 l 150 986 q 116 976 125 986 q 107 939 107 965 l 107 47 q 116 10 107 21 q 150 0 125 0 m 444 163 l 281 163 l 281 824 l 444 824 q 590 772 540 824 q 639 621 639 721 l 639 365 q 590 214 639 265 q 444 163 540 163 m 414 1051 l 429 1051 q 469 1057 457 1051 q 507 1088 482 1063 l 643 1224 q 653 1243 653 1233 q 622 1258 653 1258 l 560 1258 q 519 1254 532 1258 q 492 1235 506 1250 l 417 1156 l 339 1235 q 312 1255 324 1251 q 274 1258 300 1258 l 215 1258 q 185 1243 185 1258 q 194 1224 185 1233 l 331 1088 q 368 1057 354 1063 q 414 1051 382 1051 "},"Đ":{"ha":890,"x_min":21,"x_max":813,"o":"m 150 0 l 439 0 q 715 98 618 0 q 813 367 813 196 l 813 619 q 715 889 813 792 q 439 986 618 986 l 150 986 q 115 976 125 986 q 106 939 106 965 l 106 565 l 50 565 q 28 558 35 565 q 21 535 21 551 l 21 471 q 27 447 21 453 q 50 442 33 442 l 106 442 l 106 47 q 115 10 106 21 q 150 0 125 0 m 444 163 l 281 163 l 281 442 l 432 442 q 454 448 449 442 q 460 471 460 454 l 460 535 q 453 559 460 553 q 432 565 447 565 l 281 565 l 281 824 l 444 824 q 590 772 540 824 q 639 621 639 719 l 639 365 q 590 215 639 267 q 444 163 540 163 "},"E":{"ha":769,"x_min":107,"x_max":714,"o":"m 150 0 l 669 0 q 704 10 694 0 q 714 47 714 21 l 714 115 q 704 152 714 142 q 669 163 694 163 l 281 163 l 281 418 l 596 418 q 629 428 619 418 q 639 465 639 439 l 639 533 q 629 570 639 560 q 596 581 619 581 l 281 581 l 281 824 l 657 824 q 692 834 682 824 q 701 871 701 844 l 701 939 q 692 976 701 965 q 657 986 682 986 l 150 986 q 116 976 125 986 q 107 939 107 965 l 107 47 q 116 10 107 21 q 150 0 125 0 "},"É":{"ha":769,"x_min":107,"x_max":714,"o":"m 150 0 l 669 0 q 704 10 694 0 q 714 47 714 21 l 714 115 q 704 152 714 142 q 669 163 694 163 l 281 163 l 281 418 l 596 418 q 629 428 619 418 q 639 465 639 439 l 639 533 q 629 570 639 560 q 596 581 619 581 l 281 581 l 281 824 l 657 824 q 692 834 682 824 q 701 871 701 844 l 701 939 q 692 976 701 965 q 657 986 682 986 l 150 986 q 116 976 125 986 q 107 939 107 965 l 107 47 q 116 10 107 21 q 150 0 125 0 m 322 1058 l 556 1160 q 576 1181 576 1168 q 561 1208 576 1190 l 525 1251 q 490 1269 511 1269 q 447 1254 472 1269 l 253 1132 q 236 1113 236 1122 q 250 1086 236 1104 l 269 1061 q 290 1050 278 1050 q 306 1053 296 1050 q 322 1058 317 1057 "},"Ĕ":{"ha":769,"x_min":107,"x_max":714,"o":"m 150 0 l 669 0 q 704 10 694 0 q 714 47 714 21 l 714 115 q 704 152 714 142 q 669 163 694 163 l 281 163 l 281 418 l 596 418 q 629 428 619 418 q 639 465 639 439 l 639 533 q 629 570 639 560 q 596 581 619 581 l 281 581 l 281 824 l 657 824 q 692 834 682 824 q 701 871 701 844 l 701 939 q 692 976 701 965 q 657 986 682 986 l 150 986 q 116 976 125 986 q 107 939 107 965 l 107 47 q 116 10 107 21 q 150 0 125 0 m 404 1056 q 537 1093 482 1056 q 617 1197 592 1131 q 619 1213 619 1208 q 597 1238 619 1228 l 533 1260 q 519 1263 522 1263 q 499 1243 507 1263 q 404 1171 471 1171 q 347 1190 371 1171 q 313 1243 324 1208 q 289 1261 306 1261 q 269 1258 276 1261 l 214 1238 q 193 1214 193 1231 l 196 1197 q 274 1093 219 1131 q 404 1056 328 1056 "},"Ě":{"ha":769,"x_min":107,"x_max":714,"o":"m 150 0 l 669 0 q 704 10 694 0 q 714 47 714 21 l 714 115 q 704 152 714 142 q 669 163 694 163 l 281 163 l 281 418 l 596 418 q 629 428 619 418 q 639 465 639 439 l 639 533 q 629 570 639 560 q 596 581 619 581 l 281 581 l 281 824 l 657 824 q 692 834 682 824 q 701 871 701 844 l 701 939 q 692 976 701 965 q 657 986 682 986 l 150 986 q 116 976 125 986 q 107 939 107 965 l 107 47 q 116 10 107 21 q 150 0 125 0 m 396 1051 l 411 1051 q 451 1057 439 1051 q 489 1088 464 1063 l 625 1224 q 635 1243 635 1233 q 604 1258 635 1258 l 542 1258 q 501 1254 514 1258 q 474 1235 488 1250 l 399 1156 l 321 1235 q 294 1255 306 1251 q 256 1258 282 1258 l 197 1258 q 167 1243 167 1258 q 176 1224 167 1233 l 313 1088 q 350 1057 336 1063 q 396 1051 364 1051 "},"Ê":{"ha":769,"x_min":107,"x_max":714,"o":"m 150 0 l 669 0 q 704 10 694 0 q 714 47 714 21 l 714 115 q 704 152 714 142 q 669 163 694 163 l 281 163 l 281 418 l 596 418 q 629 428 619 418 q 639 465 639 439 l 639 533 q 629 570 639 560 q 596 581 619 581 l 281 581 l 281 824 l 657 824 q 692 834 682 824 q 701 871 701 844 l 701 939 q 692 976 701 965 q 657 986 682 986 l 150 986 q 116 976 125 986 q 107 939 107 965 l 107 47 q 116 10 107 21 q 150 0 125 0 m 203 1053 l 261 1053 q 300 1057 289 1053 q 326 1078 311 1061 l 406 1157 l 479 1078 q 507 1058 493 1063 q 547 1053 521 1053 l 610 1053 q 640 1068 640 1053 q 631 1088 640 1078 l 494 1224 q 456 1256 469 1250 q 418 1261 443 1261 l 401 1261 q 358 1255 371 1261 q 319 1224 344 1249 l 183 1088 q 172 1068 172 1076 q 203 1053 172 1053 "},"Ë":{"ha":769,"x_min":107,"x_max":714,"o":"m 150 0 l 669 0 q 704 10 694 0 q 714 47 714 21 l 714 115 q 704 152 714 142 q 669 163 694 163 l 281 163 l 281 418 l 596 418 q 629 428 619 418 q 639 465 639 439 l 639 533 q 629 570 639 560 q 596 581 619 581 l 281 581 l 281 824 l 657 824 q 692 834 682 824 q 701 871 701 844 l 701 939 q 692 976 701 965 q 657 986 682 986 l 150 986 q 116 976 125 986 q 107 939 107 965 l 107 47 q 116 10 107 21 q 150 0 125 0 m 263 1075 l 272 1075 q 330 1091 314 1075 q 346 1147 346 1107 l 346 1161 q 330 1217 346 1201 q 272 1232 314 1232 l 263 1232 q 206 1217 221 1232 q 190 1161 190 1201 l 190 1147 q 206 1091 190 1107 q 263 1075 221 1075 m 536 1075 l 546 1075 q 603 1091 588 1075 q 618 1147 618 1107 l 618 1161 q 603 1217 618 1201 q 546 1232 588 1232 l 536 1232 q 478 1217 494 1232 q 463 1161 463 1201 l 463 1147 q 478 1091 463 1107 q 536 1075 494 1075 "},"Ė":{"ha":769,"x_min":107,"x_max":714,"o":"m 150 0 l 669 0 q 704 10 694 0 q 714 47 714 21 l 714 115 q 704 152 714 142 q 669 163 694 163 l 281 163 l 281 418 l 596 418 q 629 428 619 418 q 639 465 639 439 l 639 533 q 629 570 639 560 q 596 581 619 581 l 281 581 l 281 824 l 657 824 q 692 834 682 824 q 701 871 701 844 l 701 939 q 692 976 701 965 q 657 986 682 986 l 150 986 q 116 976 125 986 q 107 939 107 965 l 107 47 q 116 10 107 21 q 150 0 125 0 m 400 1074 l 408 1074 q 467 1089 451 1074 q 483 1147 483 1104 l 483 1158 q 467 1217 483 1201 q 408 1233 451 1233 l 400 1233 q 342 1217 357 1233 q 326 1158 326 1201 l 326 1147 q 342 1089 326 1104 q 400 1074 357 1074 "},"È":{"ha":769,"x_min":107,"x_max":714,"o":"m 150 0 l 669 0 q 704 10 694 0 q 714 47 714 21 l 714 115 q 704 152 714 142 q 669 163 694 163 l 281 163 l 281 418 l 596 418 q 629 428 619 418 q 639 465 639 439 l 639 533 q 629 570 639 560 q 596 581 619 581 l 281 581 l 281 824 l 657 824 q 692 834 682 824 q 701 871 701 844 l 701 939 q 692 976 701 965 q 657 986 682 986 l 150 986 q 116 976 125 986 q 107 939 107 965 l 107 47 q 116 10 107 21 q 150 0 125 0 m 260 1160 l 492 1058 q 525 1050 513 1050 q 546 1061 539 1050 l 565 1086 q 579 1113 579 1104 q 563 1132 579 1122 l 367 1254 q 324 1269 342 1269 q 289 1251 303 1269 l 253 1207 q 239 1179 239 1192 q 260 1160 239 1167 "},"Ē":{"ha":769,"x_min":107,"x_max":714,"o":"m 150 0 l 669 0 q 704 10 694 0 q 714 47 714 21 l 714 115 q 704 152 714 142 q 669 163 694 163 l 281 163 l 281 418 l 596 418 q 629 428 619 418 q 639 465 639 439 l 639 533 q 629 570 639 560 q 596 581 619 581 l 281 581 l 281 824 l 657 824 q 692 834 682 824 q 701 871 701 844 l 701 939 q 692 976 701 965 q 657 986 682 986 l 150 986 q 116 976 125 986 q 107 939 107 965 l 107 47 q 116 10 107 21 q 150 0 125 0 m 244 1093 l 563 1093 q 594 1101 586 1093 q 603 1133 603 1110 l 603 1168 q 594 1200 603 1192 q 563 1208 586 1208 l 244 1208 q 213 1200 222 1208 q 204 1168 204 1192 l 204 1133 q 213 1101 204 1110 q 244 1093 221 1093 "},"Ę":{"ha":769,"x_min":107,"x_max":722,"o":"m 588 -340 q 656 -328 622 -340 q 715 -292 690 -315 q 722 -278 722 -285 q 717 -262 722 -274 l 697 -217 q 682 -204 693 -204 q 671 -208 678 -204 q 638 -222 656 -222 q 611 -211 621 -222 q 601 -179 601 -200 q 626 -100 601 -149 q 704 10 651 -51 q 714 47 714 19 l 714 115 q 704 152 714 142 q 669 163 694 163 l 281 163 l 281 418 l 596 418 q 629 428 619 418 q 639 465 639 439 l 639 533 q 629 570 639 560 q 596 581 619 581 l 281 581 l 281 824 l 657 824 q 692 834 682 824 q 701 871 701 844 l 701 939 q 692 976 701 965 q 657 986 682 986 l 150 986 q 116 976 125 986 q 107 939 107 965 l 107 47 q 116 10 107 21 q 150 0 125 0 l 586 0 q 494 -120 526 -61 q 463 -229 463 -179 q 588 -340 463 -340 "},"F":{"ha":736,"x_min":107,"x_max":688,"o":"m 150 0 l 236 0 q 269 10 260 0 q 279 47 279 21 l 279 406 l 581 406 q 615 416 606 406 q 625 453 625 426 l 625 521 q 615 558 625 547 q 581 568 604 568 l 279 568 l 279 824 l 643 824 q 678 834 668 824 q 688 871 688 844 l 688 939 q 678 976 688 965 q 643 986 668 986 l 150 986 q 116 976 125 986 q 107 939 107 965 l 107 47 q 116 10 107 21 q 150 0 125 0 "},"G":{"ha":882,"x_min":78,"x_max":814,"o":"m 447 -21 q 645 22 563 -21 q 771 138 728 64 q 814 307 814 211 l 814 499 q 804 535 814 525 q 769 546 794 546 l 461 546 q 428 535 438 546 q 418 499 418 525 l 418 433 q 428 396 418 407 q 461 385 438 385 l 647 385 l 647 300 q 596 182 647 222 q 447 142 544 142 q 253 340 253 142 l 253 647 q 447 844 253 844 q 566 813 521 844 q 631 718 611 782 q 664 682 643 682 q 686 688 669 682 l 767 714 q 791 728 783 721 q 799 750 799 736 q 794 774 799 760 q 447 1007 724 1007 q 174 910 271 1007 q 78 646 78 814 l 78 342 q 174 76 78 172 q 447 -21 271 -21 "},"Ğ":{"ha":882,"x_min":78,"x_max":814,"o":"m 447 -21 q 645 22 563 -21 q 771 138 728 64 q 814 307 814 211 l 814 499 q 804 535 814 525 q 769 546 794 546 l 461 546 q 428 535 438 546 q 418 499 418 525 l 418 433 q 428 396 418 407 q 461 385 438 385 l 647 385 l 647 300 q 596 182 647 222 q 447 142 544 142 q 253 340 253 142 l 253 647 q 447 844 253 844 q 566 813 521 844 q 631 718 611 782 q 664 682 643 682 q 686 688 669 682 l 767 714 q 791 728 783 721 q 799 750 799 736 q 794 774 799 760 q 447 1007 724 1007 q 174 910 271 1007 q 78 646 78 814 l 78 342 q 174 76 78 172 q 447 -21 271 -21 m 446 1069 q 578 1107 524 1069 q 658 1211 633 1144 q 661 1226 661 1222 q 639 1251 661 1242 l 575 1274 q 561 1276 564 1276 q 540 1257 549 1276 q 446 1185 513 1185 q 389 1203 413 1185 q 354 1257 365 1222 q 331 1275 347 1275 q 311 1272 318 1275 l 256 1251 q 235 1228 235 1244 l 238 1211 q 315 1107 261 1144 q 446 1069 369 1069 "},"Ĝ":{"ha":882,"x_min":78,"x_max":814,"o":"m 447 -21 q 645 22 563 -21 q 771 138 728 64 q 814 307 814 211 l 814 499 q 804 535 814 525 q 769 546 794 546 l 461 546 q 428 535 438 546 q 418 499 418 525 l 418 433 q 428 396 418 407 q 461 385 438 385 l 647 385 l 647 300 q 596 182 647 222 q 447 142 544 142 q 253 340 253 142 l 253 647 q 447 844 253 844 q 566 813 521 844 q 631 718 611 782 q 664 682 643 682 q 686 688 669 682 l 767 714 q 791 728 783 721 q 799 750 799 736 q 794 774 799 760 q 447 1007 724 1007 q 174 910 271 1007 q 78 646 78 814 l 78 342 q 174 76 78 172 q 447 -21 271 -21 m 244 1067 l 303 1067 q 342 1071 331 1067 q 368 1092 353 1075 l 447 1171 l 521 1092 q 549 1072 535 1076 q 589 1067 563 1067 l 651 1067 q 682 1082 682 1067 q 672 1101 682 1092 l 536 1238 q 498 1269 511 1264 q 460 1275 485 1275 l 443 1275 q 399 1269 413 1275 q 361 1238 386 1263 l 225 1101 q 214 1082 214 1090 q 244 1067 214 1067 "},"Ģ":{"ha":882,"x_min":78,"x_max":814,"o":"m 447 -21 q 645 22 563 -21 q 771 138 728 64 q 814 307 814 211 l 814 499 q 804 535 814 525 q 769 546 794 546 l 461 546 q 428 535 438 546 q 418 499 418 525 l 418 433 q 428 396 418 407 q 461 385 438 385 l 647 385 l 647 300 q 596 182 647 222 q 447 142 544 142 q 253 340 253 142 l 253 647 q 447 844 253 844 q 566 813 521 844 q 631 718 611 782 q 664 682 643 682 q 686 688 669 682 l 767 714 q 791 728 783 721 q 799 750 799 736 q 794 774 799 760 q 447 1007 724 1007 q 174 910 271 1007 q 78 646 78 814 l 78 342 q 174 76 78 172 q 447 -21 271 -21 m 360 -357 l 413 -357 q 444 -348 433 -357 q 461 -317 454 -339 l 526 -129 q 529 -111 529 -122 q 519 -91 529 -97 q 485 -85 508 -85 l 413 -85 q 375 -94 386 -85 q 361 -129 364 -103 l 333 -326 q 336 -351 331 -344 q 360 -357 342 -357 "},"Ġ":{"ha":882,"x_min":78,"x_max":814,"o":"m 447 -21 q 645 22 563 -21 q 771 138 728 64 q 814 307 814 211 l 814 499 q 804 535 814 525 q 769 546 794 546 l 461 546 q 428 535 438 546 q 418 499 418 525 l 418 433 q 428 396 418 407 q 461 385 438 385 l 647 385 l 647 300 q 596 182 647 222 q 447 142 544 142 q 253 340 253 142 l 253 647 q 447 844 253 844 q 566 813 521 844 q 631 718 611 782 q 664 682 643 682 q 686 688 669 682 l 767 714 q 791 728 783 721 q 799 750 799 736 q 794 774 799 760 q 447 1007 724 1007 q 174 910 271 1007 q 78 646 78 814 l 78 342 q 174 76 78 172 q 447 -21 271 -21 m 442 1088 l 450 1088 q 509 1103 493 1088 q 525 1161 525 1118 l 525 1172 q 509 1231 525 1215 q 450 1247 493 1247 l 442 1247 q 383 1231 399 1247 q 368 1172 368 1215 l 368 1161 q 383 1103 368 1118 q 442 1088 399 1088 "},"H":{"ha":918,"x_min":107,"x_max":811,"o":"m 150 0 l 238 0 q 271 10 261 0 q 281 47 281 21 l 281 418 l 638 418 l 638 47 q 647 10 638 21 q 681 0 656 0 l 767 0 q 801 10 792 0 q 811 47 811 21 l 811 939 q 801 976 811 965 q 767 986 792 986 l 681 986 q 647 976 656 986 q 638 939 638 965 l 638 581 l 281 581 l 281 939 q 271 976 281 965 q 238 986 261 986 l 150 986 q 116 976 125 986 q 107 939 107 965 l 107 47 q 116 10 107 21 q 150 0 125 0 "},"Ħ":{"ha":913,"x_min":24,"x_max":889,"o":"m 147 0 l 233 0 q 268 10 258 0 q 278 47 278 21 l 278 418 l 633 418 l 633 47 q 643 10 633 21 q 678 0 653 0 l 764 0 q 799 10 789 0 q 808 47 808 21 l 808 743 l 861 743 q 883 749 878 743 q 889 774 889 756 l 889 814 q 883 837 889 831 q 861 843 878 843 l 808 843 l 808 939 q 799 976 808 965 q 764 986 789 986 l 678 986 q 643 976 653 986 q 633 939 633 965 l 633 843 l 278 843 l 278 939 q 268 976 278 965 q 233 986 258 986 l 147 986 q 113 976 122 986 q 104 939 104 965 l 104 843 l 51 843 q 30 837 36 843 q 24 814 24 831 l 24 774 q 29 749 24 756 q 51 743 35 743 l 104 743 l 104 47 q 113 10 104 21 q 147 0 122 0 m 633 581 l 278 581 l 278 743 l 633 743 l 633 581 "},"Ĥ":{"ha":918,"x_min":107,"x_max":811,"o":"m 150 0 l 238 0 q 271 10 261 0 q 281 47 281 21 l 281 418 l 638 418 l 638 47 q 647 10 638 21 q 681 0 656 0 l 767 0 q 801 10 792 0 q 811 47 811 21 l 811 939 q 801 976 811 965 q 767 986 792 986 l 681 986 q 647 976 656 986 q 638 939 638 965 l 638 581 l 281 581 l 281 939 q 271 976 281 965 q 238 986 261 986 l 150 986 q 116 976 125 986 q 107 939 107 965 l 107 47 q 116 10 107 21 q 150 0 125 0 m 257 1053 l 315 1053 q 354 1057 343 1053 q 381 1078 365 1061 l 460 1157 l 533 1078 q 561 1058 547 1063 q 601 1053 575 1053 l 664 1053 q 694 1068 694 1053 q 685 1088 694 1078 l 549 1224 q 510 1256 524 1250 q 472 1261 497 1261 l 456 1261 q 412 1255 425 1261 q 374 1224 399 1249 l 238 1088 q 226 1068 226 1076 q 257 1053 226 1053 "},"I":{"ha":388,"x_min":107,"x_max":281,"o":"m 147 0 l 239 0 q 270 9 260 0 q 281 43 281 18 l 281 944 q 272 978 281 969 q 243 986 263 986 l 147 986 q 117 978 126 986 q 107 944 107 969 l 107 43 q 117 9 107 18 q 147 0 128 0 "},"Ĳ":{"ha":1135,"x_min":107,"x_max":1035,"o":"m 147 0 l 239 0 q 270 9 260 0 q 281 43 281 18 l 281 944 q 272 978 281 969 q 243 986 263 986 l 147 986 q 117 978 126 986 q 107 944 107 969 l 107 43 q 117 9 107 18 q 147 0 128 0 m 708 -19 q 951 72 867 -19 q 1035 326 1035 164 l 1035 942 q 1025 977 1035 967 q 992 988 1015 988 l 903 988 q 870 977 879 988 q 861 942 861 967 l 861 326 q 711 143 861 143 q 563 268 599 143 q 548 296 556 288 q 528 304 540 304 q 506 300 518 304 l 426 272 q 402 259 410 267 q 394 238 394 251 q 400 213 394 232 q 708 -19 468 -19 "},"Í":{"ha":388,"x_min":26,"x_max":367,"o":"m 147 0 l 239 0 q 270 9 260 0 q 281 43 281 18 l 281 944 q 272 978 281 969 q 243 986 263 986 l 147 986 q 117 978 126 986 q 107 944 107 969 l 107 43 q 117 9 107 18 q 147 0 128 0 m 113 1058 l 346 1160 q 367 1181 367 1168 q 351 1208 367 1190 l 315 1251 q 281 1269 301 1269 q 238 1254 263 1269 l 43 1132 q 26 1113 26 1122 q 40 1086 26 1104 l 60 1061 q 81 1050 68 1050 q 97 1053 86 1050 q 113 1058 107 1057 "},"Ĭ":{"ha":388,"x_min":-17,"x_max":410,"o":"m 147 0 l 239 0 q 270 9 260 0 q 281 43 281 18 l 281 944 q 272 978 281 969 q 243 986 263 986 l 147 986 q 117 978 126 986 q 107 944 107 969 l 107 43 q 117 9 107 18 q 147 0 128 0 m 194 1056 q 327 1093 272 1056 q 407 1197 382 1131 q 410 1213 410 1208 q 388 1238 410 1228 l 324 1260 q 310 1263 313 1263 q 289 1243 297 1263 q 194 1171 261 1171 q 138 1190 161 1171 q 103 1243 114 1208 q 79 1261 96 1261 q 60 1258 67 1261 l 4 1238 q -17 1214 -17 1231 l -14 1197 q 64 1093 10 1131 q 194 1056 118 1056 "},"Î":{"ha":388,"x_min":-37,"x_max":431,"o":"m 147 0 l 239 0 q 270 9 260 0 q 281 43 281 18 l 281 944 q 272 978 281 969 q 243 986 263 986 l 147 986 q 117 978 126 986 q 107 944 107 969 l 107 43 q 117 9 107 18 q 147 0 128 0 m -7 1053 l 51 1053 q 90 1057 79 1053 q 117 1078 101 1061 l 196 1157 l 269 1078 q 297 1058 283 1063 q 338 1053 311 1053 l 400 1053 q 431 1068 431 1053 q 421 1088 431 1078 l 285 1224 q 247 1256 260 1250 q 208 1261 233 1261 l 192 1261 q 148 1255 161 1261 q 110 1224 135 1249 l -26 1088 q -37 1068 -37 1076 q -7 1053 -37 1053 "},"Ï":{"ha":388,"x_min":-19,"x_max":408,"o":"m 147 0 l 239 0 q 270 9 260 0 q 281 43 281 18 l 281 944 q 272 978 281 969 q 243 986 263 986 l 147 986 q 117 978 126 986 q 107 944 107 969 l 107 43 q 117 9 107 18 q 147 0 128 0 m 53 1075 l 63 1075 q 120 1091 104 1075 q 136 1147 136 1107 l 136 1161 q 120 1217 136 1201 q 63 1232 104 1232 l 53 1232 q -4 1217 11 1232 q -19 1161 -19 1201 l -19 1147 q -4 1091 -19 1107 q 53 1075 11 1075 m 326 1075 l 336 1075 q 393 1091 378 1075 q 408 1147 408 1107 l 408 1161 q 393 1217 408 1201 q 336 1232 378 1232 l 326 1232 q 269 1217 285 1232 q 253 1161 253 1201 l 253 1147 q 269 1091 253 1107 q 326 1075 285 1075 "},"İ":{"ha":388,"x_min":107,"x_max":281,"o":"m 147 0 l 239 0 q 270 9 260 0 q 281 43 281 18 l 281 944 q 272 978 281 969 q 243 986 263 986 l 147 986 q 117 978 126 986 q 107 944 107 969 l 107 43 q 117 9 107 18 q 147 0 128 0 m 190 1074 l 199 1074 q 258 1089 242 1074 q 274 1147 274 1104 l 274 1158 q 258 1217 274 1201 q 199 1233 242 1233 l 190 1233 q 132 1217 147 1233 q 117 1158 117 1201 l 117 1147 q 132 1089 117 1104 q 190 1074 147 1074 "},"Ì":{"ha":388,"x_min":29,"x_max":369,"o":"m 147 0 l 239 0 q 270 9 260 0 q 281 43 281 18 l 281 944 q 272 978 281 969 q 243 986 263 986 l 147 986 q 117 978 126 986 q 107 944 107 969 l 107 43 q 117 9 107 18 q 147 0 128 0 m 50 1160 l 282 1058 q 315 1050 303 1050 q 336 1061 329 1050 l 356 1086 q 369 1113 369 1104 q 353 1132 369 1122 l 157 1254 q 114 1269 132 1269 q 79 1251 93 1269 l 43 1207 q 29 1179 29 1192 q 50 1160 29 1167 "},"Ī":{"ha":388,"x_min":-4,"x_max":394,"o":"m 147 0 l 239 0 q 270 9 260 0 q 281 43 281 18 l 281 944 q 272 978 281 969 q 243 986 263 986 l 147 986 q 117 978 126 986 q 107 944 107 969 l 107 43 q 117 9 107 18 q 147 0 128 0 m 36 1093 l 354 1093 q 386 1101 378 1093 q 394 1133 394 1110 l 394 1168 q 386 1200 394 1192 q 354 1208 378 1208 l 36 1208 q 5 1200 14 1208 q -4 1168 -4 1192 l -4 1133 q 4 1101 -4 1110 q 36 1093 13 1093 "},"Į":{"ha":388,"x_min":51,"x_max":315,"o":"m 178 -340 q 250 -328 215 -340 q 310 -290 285 -315 q 315 -276 315 -285 q 311 -261 315 -272 l 293 -217 q 278 -204 288 -204 q 267 -208 274 -204 q 229 -222 249 -222 q 206 -215 217 -222 q 192 -194 196 -207 q 189 -175 189 -183 q 208 -93 189 -140 q 269 6 228 -46 q 281 47 281 21 l 281 939 q 270 976 281 965 q 233 986 260 986 l 154 986 q 117 976 128 986 q 107 939 107 965 l 107 47 q 117 11 107 22 q 160 0 128 0 q 79 -115 107 -57 q 51 -224 51 -174 q 178 -340 51 -340 "},"Ĩ":{"ha":388,"x_min":-19,"x_max":397,"o":"m 147 0 l 239 0 q 270 9 260 0 q 281 43 281 18 l 281 944 q 272 978 281 969 q 243 986 263 986 l 147 986 q 117 978 126 986 q 107 944 107 969 l 107 43 q 117 9 107 18 q 147 0 128 0 m 7 1063 l 53 1063 q 72 1069 67 1063 q 78 1090 78 1075 q 108 1143 78 1143 q 140 1135 125 1143 q 175 1110 154 1126 q 227 1074 204 1086 q 282 1063 250 1063 q 369 1098 342 1063 q 397 1218 397 1133 q 392 1238 397 1232 q 371 1244 386 1244 l 326 1244 q 306 1238 311 1244 q 301 1218 301 1232 q 269 1165 301 1165 q 240 1173 254 1165 q 206 1197 226 1181 q 153 1232 178 1219 q 93 1244 128 1244 q 8 1209 36 1244 q -19 1090 -19 1174 q -13 1069 -19 1075 q 7 1063 -7 1063 "},"J":{"ha":767,"x_min":26,"x_max":667,"o":"m 340 -21 q 583 71 499 -21 q 667 325 667 163 l 667 940 q 657 976 667 965 q 624 986 647 986 l 535 986 q 502 976 511 986 q 493 940 493 965 l 493 325 q 343 142 493 142 q 194 267 231 142 q 180 294 188 286 q 160 303 172 303 q 138 299 150 303 l 58 271 q 34 258 42 265 q 26 236 26 250 q 32 211 26 231 q 340 -21 100 -21 "},"Ĵ":{"ha":767,"x_min":26,"x_max":815,"o":"m 340 -21 q 583 71 499 -21 q 667 325 667 163 l 667 940 q 657 976 667 965 q 624 986 647 986 l 535 986 q 502 976 511 986 q 493 940 493 965 l 493 325 q 343 142 493 142 q 194 267 231 142 q 180 294 188 286 q 160 303 172 303 q 138 299 150 303 l 58 271 q 34 258 42 265 q 26 236 26 250 q 32 211 26 231 q 340 -21 100 -21 m 378 1053 l 436 1053 q 475 1057 464 1053 q 501 1078 486 1061 l 581 1157 l 654 1078 q 682 1058 668 1063 q 722 1053 696 1053 l 785 1053 q 815 1068 815 1053 q 806 1088 815 1078 l 669 1224 q 631 1256 644 1250 q 593 1261 618 1261 l 576 1261 q 533 1255 546 1261 q 494 1224 519 1249 l 358 1088 q 347 1068 347 1076 q 378 1053 347 1053 "},"K":{"ha":836,"x_min":107,"x_max":807,"o":"m 150 0 l 238 0 q 271 10 261 0 q 281 47 281 21 l 281 421 l 365 421 q 439 401 417 421 q 488 324 461 382 l 613 42 q 635 7 624 14 q 682 0 647 0 l 775 0 q 807 24 807 0 q 801 47 807 36 l 644 388 q 588 487 614 450 q 529 544 563 524 l 788 940 q 794 963 794 954 q 764 986 794 986 l 667 986 q 618 979 632 986 q 590 947 604 972 l 367 579 l 350 579 l 281 579 l 281 939 q 271 976 281 965 q 238 986 261 986 l 150 986 q 116 976 125 986 q 107 939 107 965 l 107 47 q 116 10 107 21 q 150 0 125 0 "},"Ķ":{"ha":836,"x_min":107,"x_max":807,"o":"m 150 0 l 238 0 q 271 10 261 0 q 281 47 281 21 l 281 421 l 365 421 q 439 401 417 421 q 488 324 461 382 l 613 42 q 635 7 624 14 q 682 0 647 0 l 775 0 q 807 24 807 0 q 801 47 807 36 l 644 388 q 588 487 614 450 q 529 544 563 524 l 788 940 q 794 963 794 954 q 764 986 794 986 l 667 986 q 618 979 632 986 q 590 947 604 972 l 367 579 l 350 579 l 281 579 l 281 939 q 271 976 281 965 q 238 986 261 986 l 150 986 q 116 976 125 986 q 107 939 107 965 l 107 47 q 116 10 107 21 q 150 0 125 0 m 358 -357 l 411 -357 q 442 -348 432 -357 q 460 -317 453 -339 l 525 -129 q 528 -111 528 -122 q 517 -91 528 -97 q 483 -85 507 -85 l 411 -85 q 374 -94 385 -85 q 360 -129 363 -103 l 332 -326 q 335 -351 329 -344 q 358 -357 340 -357 "},"L":{"ha":699,"x_min":107,"x_max":671,"o":"m 149 0 l 628 0 q 661 10 651 0 q 671 47 671 21 l 671 115 q 661 152 671 142 q 628 163 651 163 l 281 163 l 281 939 q 271 976 281 965 q 238 986 261 986 l 149 986 q 116 976 125 986 q 107 939 107 965 l 107 47 q 116 10 107 21 q 149 0 125 0 "},"Ĺ":{"ha":699,"x_min":24,"x_max":671,"o":"m 149 0 l 628 0 q 661 10 651 0 q 671 47 671 21 l 671 115 q 661 152 671 142 q 628 163 651 163 l 281 163 l 281 939 q 271 976 281 965 q 238 986 261 986 l 149 986 q 116 976 125 986 q 107 939 107 965 l 107 47 q 116 10 107 21 q 149 0 125 0 m 110 1058 l 343 1160 q 364 1181 364 1168 q 349 1208 364 1190 l 313 1251 q 278 1269 299 1269 q 235 1254 260 1269 l 40 1132 q 24 1113 24 1122 q 38 1086 24 1104 l 57 1061 q 78 1050 65 1050 q 94 1053 83 1050 q 110 1058 104 1057 "},"Ľ":{"ha":699,"x_min":107,"x_max":671,"o":"m 149 0 l 628 0 q 661 10 651 0 q 671 47 671 21 l 671 115 q 661 152 671 142 q 628 163 651 163 l 281 163 l 281 939 q 271 976 281 965 q 236 986 261 986 l 149 986 q 116 976 125 986 q 107 939 107 965 l 107 47 q 116 10 107 21 q 149 0 125 0 m 496 672 l 535 672 q 565 681 554 672 q 582 711 575 689 l 657 942 q 661 961 661 953 q 619 986 661 986 l 553 986 q 515 977 526 986 q 503 942 504 968 l 469 701 q 472 678 467 685 q 496 672 478 672 "},"Ļ":{"ha":699,"x_min":107,"x_max":671,"o":"m 149 0 l 628 0 q 661 10 651 0 q 671 47 671 21 l 671 115 q 661 152 671 142 q 628 163 651 163 l 281 163 l 281 939 q 271 976 281 965 q 238 986 261 986 l 149 986 q 116 976 125 986 q 107 939 107 965 l 107 47 q 116 10 107 21 q 149 0 125 0 m 300 -357 l 353 -357 q 384 -348 374 -357 q 401 -317 394 -339 l 467 -129 q 469 -111 469 -122 q 459 -91 469 -97 q 425 -85 449 -85 l 353 -85 q 315 -94 326 -85 q 301 -129 304 -103 l 274 -326 q 276 -351 271 -344 q 300 -357 282 -357 "},"Ŀ":{"ha":699,"x_min":107,"x_max":671,"o":"m 149 0 l 628 0 q 661 10 651 0 q 671 47 671 21 l 671 115 q 661 152 671 142 q 628 163 651 163 l 281 163 l 281 939 q 271 976 281 965 q 238 986 261 986 l 149 986 q 116 976 125 986 q 107 939 107 965 l 107 47 q 116 10 107 21 q 149 0 125 0 m 503 435 l 513 435 q 583 454 564 435 q 603 525 603 474 l 603 538 q 583 607 603 588 q 513 626 564 626 l 503 626 q 433 607 451 626 q 414 538 414 588 l 414 525 q 433 454 414 474 q 503 435 453 435 "},"Ł":{"ha":725,"x_min":1,"x_max":697,"o":"m 178 0 l 650 0 q 687 10 676 0 q 697 47 697 21 l 697 115 q 687 152 697 142 q 650 163 676 163 l 304 163 l 304 439 l 543 551 q 563 575 563 560 q 558 590 563 582 l 532 646 q 510 663 524 663 q 486 657 499 663 l 304 571 l 304 939 q 294 976 304 965 q 257 986 283 986 l 178 986 q 141 976 151 986 q 131 939 131 965 l 131 492 l 18 436 q 1 411 1 428 q 6 394 1 403 l 31 344 q 41 328 36 333 q 54 324 46 324 q 75 331 65 324 l 131 360 l 131 47 q 141 10 131 21 q 178 0 151 0 "},"M":{"ha":1090,"x_min":107,"x_max":985,"o":"m 151 0 l 226 0 q 261 10 251 0 q 271 47 271 21 l 271 469 q 243 749 271 597 l 253 749 q 295 610 275 667 q 346 494 315 554 l 467 258 q 486 231 476 238 q 517 224 496 224 l 571 224 q 601 231 590 224 q 621 258 611 239 l 738 494 q 836 747 793 608 l 844 747 q 818 471 818 604 l 818 47 q 828 10 818 21 q 863 0 838 0 l 939 0 q 975 10 965 0 q 985 47 985 21 l 985 939 q 975 976 985 965 q 939 986 965 986 l 858 986 q 822 979 832 986 q 800 949 811 972 l 544 417 l 289 950 q 266 979 279 972 q 225 986 253 986 l 151 986 q 117 976 126 986 q 107 939 107 965 l 107 47 q 117 10 107 21 q 151 0 126 0 "},"N":{"ha":931,"x_min":107,"x_max":825,"o":"m 150 0 l 231 0 q 265 10 254 0 q 275 47 275 21 l 275 483 q 250 760 275 613 l 258 760 q 304 633 283 686 q 356 526 325 581 l 640 24 q 657 5 647 10 q 683 0 667 0 l 781 0 q 815 10 806 0 q 825 47 825 21 l 825 939 q 815 976 825 965 q 781 986 806 986 l 700 986 q 667 976 676 986 q 657 939 657 965 l 657 508 q 665 365 657 428 q 688 228 672 303 l 678 228 q 659 281 674 240 q 626 366 644 321 q 578 464 607 411 l 294 964 q 278 981 288 975 q 251 986 268 986 l 150 986 q 116 976 125 986 q 107 939 107 965 l 107 47 q 116 10 107 21 q 150 0 125 0 "},"Ń":{"ha":931,"x_min":107,"x_max":825,"o":"m 150 0 l 231 0 q 265 10 254 0 q 275 47 275 21 l 275 483 q 250 760 275 613 l 258 760 q 304 633 283 686 q 356 526 325 581 l 640 24 q 657 5 647 10 q 683 0 667 0 l 781 0 q 815 10 806 0 q 825 47 825 21 l 825 939 q 815 976 825 965 q 781 986 806 986 l 700 986 q 667 976 676 986 q 657 939 657 965 l 657 508 q 665 365 657 428 q 688 228 672 303 l 678 228 q 659 281 674 240 q 626 366 644 321 q 578 464 607 411 l 294 964 q 278 981 288 975 q 251 986 268 986 l 150 986 q 116 976 125 986 q 107 939 107 965 l 107 47 q 116 10 107 21 q 150 0 125 0 m 385 1058 l 618 1160 q 639 1181 639 1168 q 624 1208 639 1190 l 588 1251 q 553 1269 574 1269 q 510 1254 535 1269 l 315 1132 q 299 1113 299 1122 q 313 1086 299 1104 l 332 1061 q 353 1050 340 1050 q 369 1053 358 1050 q 385 1058 379 1057 "},"Ň":{"ha":931,"x_min":107,"x_max":825,"o":"m 150 0 l 231 0 q 265 10 254 0 q 275 47 275 21 l 275 483 q 250 760 275 613 l 258 760 q 304 633 283 686 q 356 526 325 581 l 640 24 q 657 5 647 10 q 683 0 667 0 l 781 0 q 815 10 806 0 q 825 47 825 21 l 825 939 q 815 976 825 965 q 781 986 806 986 l 700 986 q 667 976 676 986 q 657 939 657 965 l 657 508 q 665 365 657 428 q 688 228 672 303 l 678 228 q 659 281 674 240 q 626 366 644 321 q 578 464 607 411 l 294 964 q 278 981 288 975 q 251 986 268 986 l 150 986 q 116 976 125 986 q 107 939 107 965 l 107 47 q 116 10 107 21 q 150 0 125 0 m 460 1051 l 475 1051 q 515 1057 503 1051 q 553 1088 528 1063 l 689 1224 q 699 1243 699 1233 q 668 1258 699 1258 l 606 1258 q 565 1254 578 1258 q 538 1235 551 1250 l 463 1156 l 385 1235 q 358 1255 369 1251 q 319 1258 346 1258 l 261 1258 q 231 1243 231 1258 q 240 1224 231 1233 l 376 1088 q 414 1057 400 1063 q 460 1051 428 1051 "},"Ņ":{"ha":931,"x_min":107,"x_max":825,"o":"m 150 0 l 231 0 q 265 10 254 0 q 275 47 275 21 l 275 483 q 250 760 275 613 l 258 760 q 304 633 283 686 q 356 526 325 581 l 640 24 q 657 5 647 10 q 683 0 667 0 l 781 0 q 815 10 806 0 q 825 47 825 21 l 825 939 q 815 976 825 965 q 781 986 806 986 l 700 986 q 667 976 676 986 q 657 939 657 965 l 657 508 q 665 365 657 428 q 688 228 672 303 l 678 228 q 659 281 674 240 q 626 366 644 321 q 578 464 607 411 l 294 964 q 278 981 288 975 q 251 986 268 986 l 150 986 q 116 976 125 986 q 107 939 107 965 l 107 47 q 116 10 107 21 q 150 0 125 0 m 392 -357 l 444 -357 q 476 -348 465 -357 q 493 -317 486 -339 l 558 -129 q 561 -111 561 -122 q 551 -91 561 -97 q 517 -85 540 -85 l 444 -85 q 407 -94 418 -85 q 393 -129 396 -103 l 365 -326 q 368 -351 363 -344 q 392 -357 374 -357 "},"Ŋ":{"ha":931,"x_min":107,"x_max":825,"o":"m 531 -319 q 706 -290 643 -319 q 796 -201 769 -261 q 824 -40 822 -140 l 825 939 q 815 976 825 965 q 781 986 806 986 l 700 986 q 667 976 676 986 q 657 939 657 965 l 657 508 q 665 365 657 428 q 688 228 672 303 l 678 228 q 659 281 674 240 q 626 366 644 321 q 578 464 607 411 l 294 964 q 278 981 288 975 q 251 986 268 986 l 150 986 q 116 976 125 986 q 107 939 107 965 l 107 47 q 116 10 107 21 q 150 0 125 0 l 231 0 q 265 10 254 0 q 275 47 275 21 l 275 483 q 250 760 275 613 l 258 760 q 306 629 288 678 q 356 526 325 581 l 656 8 l 656 -12 q 647 -101 656 -68 q 612 -151 639 -133 q 531 -169 585 -169 q 497 -179 506 -169 q 488 -214 488 -189 l 488 -275 q 497 -310 488 -300 q 531 -319 506 -319 "},"Ñ":{"ha":931,"x_min":107,"x_max":825,"o":"m 150 0 l 231 0 q 265 10 254 0 q 275 47 275 21 l 275 483 q 250 760 275 613 l 258 760 q 304 633 283 686 q 356 526 325 581 l 640 24 q 657 5 647 10 q 683 0 667 0 l 781 0 q 815 10 806 0 q 825 47 825 21 l 825 939 q 815 976 825 965 q 781 986 806 986 l 700 986 q 667 976 676 986 q 657 939 657 965 l 657 508 q 665 365 657 428 q 688 228 672 303 l 678 228 q 659 281 674 240 q 626 366 644 321 q 578 464 607 411 l 294 964 q 278 981 288 975 q 251 986 268 986 l 150 986 q 116 976 125 986 q 107 939 107 965 l 107 47 q 116 10 107 21 q 150 0 125 0 m 279 1063 l 325 1063 q 344 1069 339 1063 q 350 1090 350 1075 q 381 1143 350 1143 q 412 1135 397 1143 q 447 1110 426 1126 q 499 1074 476 1086 q 554 1063 522 1063 q 642 1098 614 1063 q 669 1218 669 1133 q 664 1238 669 1232 q 643 1244 658 1244 l 599 1244 q 578 1238 583 1244 q 574 1218 574 1232 q 542 1165 574 1165 q 513 1173 526 1165 q 478 1197 499 1181 q 425 1232 450 1219 q 365 1244 400 1244 q 281 1209 308 1244 q 253 1090 253 1174 q 259 1069 253 1075 q 279 1063 265 1063 "},"O":{"ha":894,"x_min":78,"x_max":817,"o":"m 447 -21 q 720 76 624 -21 q 817 342 817 172 l 817 644 q 720 910 817 814 q 447 1007 624 1007 q 174 910 271 1007 q 78 644 78 814 l 78 342 q 174 76 78 172 q 447 -21 271 -21 m 447 142 q 302 192 351 142 q 253 340 253 243 l 253 646 q 302 794 253 743 q 447 844 351 844 q 592 794 543 844 q 642 646 642 743 l 642 340 q 592 192 642 243 q 447 142 543 142 "},"Ó":{"ha":894,"x_min":78,"x_max":817,"o":"m 447 -21 q 720 76 624 -21 q 817 342 817 172 l 817 644 q 720 910 817 814 q 447 1007 624 1007 q 174 910 271 1007 q 78 644 78 814 l 78 342 q 174 76 78 172 q 447 -21 271 -21 m 447 142 q 302 192 351 142 q 253 340 253 243 l 253 646 q 302 794 253 743 q 447 844 351 844 q 592 794 543 844 q 642 646 642 743 l 642 340 q 592 192 642 243 q 447 142 543 142 m 364 1072 l 597 1174 q 618 1194 618 1182 q 603 1222 618 1204 l 567 1265 q 532 1283 553 1283 q 489 1268 514 1283 l 294 1146 q 278 1126 278 1136 q 292 1100 278 1118 l 311 1075 q 332 1064 319 1064 q 348 1067 338 1064 q 364 1072 358 1071 "},"Ŏ":{"ha":894,"x_min":78,"x_max":817,"o":"m 447 -21 q 720 76 624 -21 q 817 342 817 172 l 817 644 q 720 910 817 814 q 447 1007 624 1007 q 174 910 271 1007 q 78 644 78 814 l 78 342 q 174 76 78 172 q 447 -21 271 -21 m 447 142 q 302 192 351 142 q 253 340 253 243 l 253 646 q 302 794 253 743 q 447 844 351 844 q 592 794 543 844 q 642 646 642 743 l 642 340 q 592 192 642 243 q 447 142 543 142 m 446 1069 q 578 1107 524 1069 q 658 1211 633 1144 q 661 1226 661 1222 q 639 1251 661 1242 l 575 1274 q 561 1276 564 1276 q 540 1257 549 1276 q 446 1185 513 1185 q 389 1203 413 1185 q 354 1257 365 1222 q 331 1275 347 1275 q 311 1272 318 1275 l 256 1251 q 235 1228 235 1244 l 238 1211 q 315 1107 261 1144 q 446 1069 369 1069 "},"Ô":{"ha":894,"x_min":78,"x_max":817,"o":"m 447 -21 q 720 76 624 -21 q 817 342 817 172 l 817 644 q 720 910 817 814 q 447 1007 624 1007 q 174 910 271 1007 q 78 644 78 814 l 78 342 q 174 76 78 172 q 447 -21 271 -21 m 447 142 q 302 192 351 142 q 253 340 253 243 l 253 646 q 302 794 253 743 q 447 844 351 844 q 592 794 543 844 q 642 646 642 743 l 642 340 q 592 192 642 243 q 447 142 543 142 m 244 1067 l 303 1067 q 342 1071 331 1067 q 368 1092 353 1075 l 447 1171 l 521 1092 q 549 1072 535 1076 q 589 1067 563 1067 l 651 1067 q 682 1082 682 1067 q 672 1101 682 1092 l 536 1238 q 498 1269 511 1264 q 460 1275 485 1275 l 443 1275 q 399 1269 413 1275 q 361 1238 386 1263 l 225 1101 q 214 1082 214 1090 q 244 1067 214 1067 "},"Ö":{"ha":894,"x_min":78,"x_max":817,"o":"m 447 -21 q 720 76 624 -21 q 817 342 817 172 l 817 644 q 720 910 817 814 q 447 1007 624 1007 q 174 910 271 1007 q 78 644 78 814 l 78 342 q 174 76 78 172 q 447 -21 271 -21 m 447 142 q 302 192 351 142 q 253 340 253 243 l 253 646 q 302 794 253 743 q 447 844 351 844 q 592 794 543 844 q 642 646 642 743 l 642 340 q 592 192 642 243 q 447 142 543 142 m 306 1089 l 315 1089 q 373 1105 357 1089 q 389 1161 389 1121 l 389 1175 q 373 1231 389 1215 q 315 1246 357 1246 l 306 1246 q 249 1231 264 1246 q 233 1175 233 1215 l 233 1161 q 249 1105 233 1121 q 306 1089 264 1089 m 579 1089 l 589 1089 q 646 1105 631 1089 q 661 1161 661 1121 l 661 1175 q 646 1231 661 1215 q 589 1246 631 1246 l 579 1246 q 522 1231 538 1246 q 506 1175 506 1215 l 506 1161 q 522 1105 506 1121 q 579 1089 538 1089 "},"Ò":{"ha":894,"x_min":78,"x_max":817,"o":"m 447 -21 q 720 76 624 -21 q 817 342 817 172 l 817 644 q 720 910 817 814 q 447 1007 624 1007 q 174 910 271 1007 q 78 644 78 814 l 78 342 q 174 76 78 172 q 447 -21 271 -21 m 447 142 q 302 192 351 142 q 253 340 253 243 l 253 646 q 302 794 253 743 q 447 844 351 844 q 592 794 543 844 q 642 646 642 743 l 642 340 q 592 192 642 243 q 447 142 543 142 m 301 1174 l 533 1072 q 567 1064 554 1064 q 588 1075 581 1064 l 607 1100 q 621 1126 621 1118 q 604 1146 621 1136 l 408 1268 q 365 1283 383 1283 q 331 1265 344 1283 l 294 1221 q 281 1193 281 1206 q 301 1174 281 1181 "},"Ő":{"ha":894,"x_min":78,"x_max":817,"o":"m 447 -21 q 720 76 624 -21 q 817 342 817 172 l 817 644 q 720 910 817 814 q 447 1007 624 1007 q 174 910 271 1007 q 78 644 78 814 l 78 342 q 174 76 78 172 q 447 -21 271 -21 m 447 142 q 302 192 351 142 q 253 340 253 243 l 253 646 q 302 794 253 743 q 447 844 351 844 q 592 794 543 844 q 642 646 642 743 l 642 340 q 592 192 642 243 q 447 142 543 142 m 260 1079 l 283 1072 q 297 1069 294 1069 q 333 1090 310 1069 l 472 1217 q 485 1239 485 1229 q 458 1265 485 1256 l 411 1282 q 390 1285 404 1285 q 338 1253 358 1285 l 246 1122 q 238 1100 238 1110 q 260 1079 238 1085 m 481 1074 l 504 1067 q 517 1064 513 1064 q 533 1069 525 1064 q 554 1085 542 1074 l 706 1217 q 719 1239 719 1229 q 692 1264 719 1256 l 640 1281 q 618 1285 628 1285 q 568 1253 593 1285 l 467 1117 q 457 1096 457 1107 q 481 1074 457 1082 "},"Ō":{"ha":894,"x_min":78,"x_max":817,"o":"m 447 -21 q 720 76 624 -21 q 817 342 817 172 l 817 644 q 720 910 817 814 q 447 1007 624 1007 q 174 910 271 1007 q 78 644 78 814 l 78 342 q 174 76 78 172 q 447 -21 271 -21 m 447 142 q 302 192 351 142 q 253 340 253 243 l 253 646 q 302 794 253 743 q 447 844 351 844 q 592 794 543 844 q 642 646 642 743 l 642 340 q 592 192 642 243 q 447 142 543 142 m 288 1107 l 606 1107 q 638 1115 629 1107 q 646 1147 646 1124 l 646 1182 q 638 1214 646 1206 q 606 1222 629 1222 l 288 1222 q 256 1214 265 1222 q 247 1182 247 1206 l 247 1147 q 256 1115 247 1124 q 288 1107 264 1107 "},"Ø":{"ha":894,"x_min":67,"x_max":828,"o":"m 81 -54 l 172 -54 q 192 -51 186 -54 q 203 -37 197 -49 l 242 28 q 447 -21 328 -21 q 720 76 624 -21 q 817 342 817 172 l 817 644 q 739 890 817 797 l 819 1031 q 811 1046 828 1046 l 721 1046 q 703 1044 708 1046 q 692 1032 697 1042 l 650 960 q 447 1007 567 1007 q 174 910 271 1007 q 78 644 78 814 l 78 342 q 154 99 78 194 l 74 -39 q 81 -54 67 -54 m 565 814 l 265 293 q 253 360 253 322 l 253 646 q 302 794 253 743 q 447 844 351 844 q 565 814 519 844 m 447 142 q 325 174 372 142 l 629 703 q 642 646 642 682 l 642 340 q 592 192 642 243 q 447 142 543 142 "},"Ǿ":{"ha":894,"x_min":67,"x_max":828,"o":"m 81 -54 l 172 -54 q 192 -51 186 -54 q 203 -37 197 -49 l 242 28 q 447 -21 328 -21 q 720 76 624 -21 q 817 342 817 172 l 817 644 q 739 890 817 797 l 819 1031 q 811 1046 828 1046 l 721 1046 q 703 1044 708 1046 q 692 1032 697 1042 l 650 960 q 447 1007 567 1007 q 174 910 271 1007 q 78 644 78 814 l 78 342 q 154 99 78 194 l 74 -39 q 81 -54 67 -54 m 565 814 l 265 293 q 253 360 253 322 l 253 646 q 302 794 253 743 q 447 844 351 844 q 565 814 519 844 m 447 142 q 325 174 372 142 l 629 703 q 642 646 642 682 l 642 340 q 592 192 642 243 q 447 142 543 142 m 388 1072 l 621 1174 q 642 1194 642 1182 q 626 1222 642 1204 l 590 1265 q 556 1283 576 1283 q 513 1268 538 1283 l 318 1146 q 301 1126 301 1136 q 315 1100 301 1118 l 335 1075 q 356 1064 343 1064 q 372 1067 361 1064 q 388 1072 382 1071 "},"Õ":{"ha":894,"x_min":78,"x_max":817,"o":"m 447 -21 q 720 76 624 -21 q 817 342 817 172 l 817 644 q 720 910 817 814 q 447 1007 624 1007 q 174 910 271 1007 q 78 644 78 814 l 78 342 q 174 76 78 172 q 447 -21 271 -21 m 447 142 q 302 192 351 142 q 253 340 253 243 l 253 646 q 302 794 253 743 q 447 844 351 844 q 592 794 543 844 q 642 646 642 743 l 642 340 q 592 192 642 243 q 447 142 543 142 m 258 1076 l 304 1076 q 324 1083 318 1076 q 329 1104 329 1089 q 360 1157 329 1157 q 391 1149 376 1157 q 426 1124 406 1140 q 478 1088 456 1100 q 533 1076 501 1076 q 621 1112 593 1076 q 649 1232 649 1147 q 643 1252 649 1246 q 622 1258 638 1258 l 578 1258 q 558 1252 563 1258 q 553 1232 553 1246 q 521 1179 553 1179 q 492 1187 506 1179 q 457 1211 478 1194 q 404 1246 429 1233 q 344 1258 379 1258 q 260 1223 288 1258 q 232 1104 232 1188 q 238 1083 232 1089 q 258 1076 244 1076 "},"Œ":{"ha":1151,"x_min":78,"x_max":1094,"o":"m 457 -21 q 608 0 540 -21 l 1050 0 q 1085 10 1075 0 q 1094 47 1094 21 l 1094 115 q 1085 152 1094 142 q 1050 163 1075 163 l 724 163 l 724 418 l 972 418 q 1007 428 997 418 q 1017 465 1017 439 l 1017 533 q 1007 570 1017 560 q 972 581 997 581 l 724 581 l 724 824 l 1036 824 q 1071 834 1061 824 q 1081 871 1081 844 l 1081 939 q 1071 976 1081 965 q 1036 986 1061 986 l 606 986 q 457 1007 540 1007 q 177 910 276 1007 q 78 644 78 814 l 78 342 q 177 76 78 172 q 457 -21 276 -21 m 457 142 q 305 192 357 142 q 253 340 253 243 l 253 646 q 305 794 253 743 q 457 844 357 844 q 556 829 510 844 l 556 158 q 457 142 515 142 "},"P":{"ha":843,"x_min":107,"x_max":794,"o":"m 150 0 l 238 0 q 271 10 261 0 q 281 47 281 21 l 281 343 l 488 343 q 712 428 629 343 q 794 664 794 514 q 710 900 794 814 q 486 986 626 986 l 150 986 q 116 976 125 986 q 107 939 107 965 l 107 47 q 116 10 107 21 q 150 0 125 0 m 479 506 l 281 506 l 281 824 l 479 824 q 582 781 544 824 q 619 664 619 739 q 582 547 619 589 q 479 506 544 506 "},"Þ":{"ha":825,"x_min":107,"x_max":776,"o":"m 150 0 l 236 0 q 271 10 261 0 q 281 47 281 21 l 281 168 l 475 168 q 631 208 563 168 q 738 322 700 247 q 776 499 776 397 q 738 675 776 600 q 631 790 700 750 q 475 829 563 829 l 281 829 l 281 939 q 271 976 281 965 q 236 986 261 986 l 150 986 q 116 976 125 986 q 107 939 107 965 l 107 47 q 116 10 107 21 q 150 0 125 0 m 454 326 l 281 326 l 281 672 l 454 672 q 564 624 522 672 q 606 499 606 575 q 564 374 606 422 q 454 326 522 326 "},"Q":{"ha":924,"x_min":88,"x_max":857,"o":"m 626 15 l 714 -92 q 746 -112 733 -112 q 776 -99 756 -112 l 836 -53 q 857 -19 857 -36 q 842 14 857 -6 l 763 113 q 826 342 826 199 l 826 644 q 730 910 826 814 q 458 1007 633 1007 q 184 910 281 1007 q 88 644 88 814 l 88 342 q 184 76 88 172 q 458 -21 281 -21 q 626 15 554 -21 m 458 142 q 311 192 361 142 q 261 340 261 243 l 261 646 q 311 794 261 743 q 458 844 361 844 q 603 794 553 844 q 653 646 653 743 l 653 340 q 603 192 653 243 q 458 142 553 142 "},"R":{"ha":871,"x_min":107,"x_max":819,"o":"m 150 0 l 238 0 q 271 10 261 0 q 281 47 281 21 l 281 381 l 390 381 q 447 372 426 381 q 481 343 467 364 q 515 278 496 322 l 618 42 q 644 8 629 15 q 700 0 660 0 l 788 0 q 819 24 819 0 q 814 47 819 36 l 679 340 q 622 417 657 390 q 750 508 706 442 q 794 681 794 574 q 713 904 794 822 q 494 986 631 986 l 150 986 q 116 976 125 986 q 107 939 107 965 l 107 47 q 116 10 107 21 q 150 0 125 0 m 488 535 l 281 535 l 281 824 l 488 824 q 583 786 547 824 q 619 681 619 749 q 583 573 619 611 q 488 535 547 535 "},"Ŕ":{"ha":871,"x_min":107,"x_max":819,"o":"m 150 0 l 238 0 q 271 10 261 0 q 281 47 281 21 l 281 381 l 390 381 q 447 372 426 381 q 481 343 467 364 q 515 278 496 322 l 618 42 q 644 8 629 15 q 700 0 660 0 l 788 0 q 819 24 819 0 q 814 47 819 36 l 679 340 q 622 417 657 390 q 750 508 706 442 q 794 681 794 574 q 713 904 794 822 q 494 986 631 986 l 150 986 q 116 976 125 986 q 107 939 107 965 l 107 47 q 116 10 107 21 q 150 0 125 0 m 488 535 l 281 535 l 281 824 l 488 824 q 583 786 547 824 q 619 681 619 749 q 583 573 619 611 q 488 535 547 535 m 347 1058 l 581 1160 q 601 1181 601 1168 q 586 1208 601 1190 l 550 1251 q 515 1269 536 1269 q 472 1254 497 1269 l 278 1132 q 261 1113 261 1122 q 275 1086 261 1104 l 294 1061 q 315 1050 303 1050 q 331 1053 321 1050 q 347 1058 342 1057 "},"Ř":{"ha":871,"x_min":107,"x_max":819,"o":"m 150 0 l 238 0 q 271 10 261 0 q 281 47 281 21 l 281 381 l 390 381 q 447 372 426 381 q 481 343 467 364 q 515 278 496 322 l 618 42 q 644 8 629 15 q 700 0 660 0 l 788 0 q 819 24 819 0 q 814 47 819 36 l 679 340 q 622 417 657 390 q 750 508 706 442 q 794 681 794 574 q 713 904 794 822 q 494 986 631 986 l 150 986 q 116 976 125 986 q 107 939 107 965 l 107 47 q 116 10 107 21 q 150 0 125 0 m 488 535 l 281 535 l 281 824 l 488 824 q 583 786 547 824 q 619 681 619 749 q 583 573 619 611 q 488 535 547 535 m 422 1051 l 438 1051 q 478 1057 465 1051 q 515 1088 490 1063 l 651 1224 q 661 1243 661 1233 q 631 1258 661 1258 l 568 1258 q 527 1254 540 1258 q 500 1235 514 1250 l 425 1156 l 347 1235 q 320 1255 332 1251 q 282 1258 308 1258 l 224 1258 q 193 1243 193 1258 q 203 1224 193 1233 l 339 1088 q 376 1057 363 1063 q 422 1051 390 1051 "},"Ŗ":{"ha":871,"x_min":107,"x_max":819,"o":"m 150 0 l 238 0 q 271 10 261 0 q 281 47 281 21 l 281 381 l 390 381 q 447 372 426 381 q 481 343 467 364 q 515 278 496 322 l 618 42 q 644 8 629 15 q 700 0 660 0 l 788 0 q 819 24 819 0 q 814 47 819 36 l 679 340 q 622 417 657 390 q 750 508 706 442 q 794 681 794 574 q 713 904 794 822 q 494 986 631 986 l 150 986 q 116 976 125 986 q 107 939 107 965 l 107 47 q 116 10 107 21 q 150 0 125 0 m 488 535 l 281 535 l 281 824 l 488 824 q 583 786 547 824 q 619 681 619 749 q 583 573 619 611 q 488 535 547 535 m 375 -357 l 428 -357 q 459 -348 449 -357 q 476 -317 469 -339 l 542 -129 q 544 -111 544 -122 q 534 -91 544 -97 q 500 -85 524 -85 l 428 -85 q 390 -94 401 -85 q 376 -129 379 -103 l 349 -326 q 351 -351 346 -344 q 375 -357 357 -357 "},"S":{"ha":844,"x_min":60,"x_max":786,"o":"m 418 -21 q 690 60 593 -21 q 786 281 786 142 q 694 497 786 435 q 460 578 603 560 q 300 617 354 589 q 246 713 246 644 q 289 809 246 778 q 424 840 332 840 q 601 726 550 840 q 616 703 608 710 q 633 696 624 696 q 657 701 644 696 l 735 732 q 765 768 765 744 q 758 796 765 778 q 632 954 710 901 q 424 1007 554 1007 q 231 969 311 1007 q 110 865 151 932 q 69 708 69 797 q 120 536 69 597 q 243 452 171 475 q 415 417 315 429 q 559 378 510 406 q 608 286 608 351 q 560 177 608 213 q 418 142 513 142 q 302 174 350 142 q 231 269 254 207 q 216 296 224 288 q 196 304 208 304 q 174 299 190 304 l 92 271 q 60 235 60 261 q 64 211 60 226 q 418 -21 140 -21 "},"Ś":{"ha":844,"x_min":60,"x_max":786,"o":"m 418 -21 q 690 60 593 -21 q 786 281 786 142 q 694 497 786 435 q 460 578 603 560 q 300 617 354 589 q 246 713 246 644 q 289 809 246 778 q 424 840 332 840 q 601 726 550 840 q 616 703 608 710 q 633 696 624 696 q 657 701 644 696 l 735 732 q 765 768 765 744 q 758 796 765 778 q 632 954 710 901 q 424 1007 554 1007 q 231 969 311 1007 q 110 865 151 932 q 69 708 69 797 q 120 536 69 597 q 243 452 171 475 q 415 417 315 429 q 559 378 510 406 q 608 286 608 351 q 560 177 608 213 q 418 142 513 142 q 302 174 350 142 q 231 269 254 207 q 216 296 224 288 q 196 304 208 304 q 174 299 190 304 l 92 271 q 60 235 60 261 q 64 211 60 226 q 418 -21 140 -21 m 342 1072 l 575 1174 q 596 1194 596 1182 q 581 1222 596 1204 l 544 1265 q 510 1283 531 1283 q 467 1268 492 1283 l 272 1146 q 256 1126 256 1136 q 269 1100 256 1118 l 289 1075 q 310 1064 297 1064 q 326 1067 315 1064 q 342 1072 336 1071 "},"Š":{"ha":844,"x_min":60,"x_max":786,"o":"m 418 -21 q 690 60 593 -21 q 786 281 786 142 q 694 497 786 435 q 460 578 603 560 q 300 617 354 589 q 246 713 246 644 q 289 809 246 778 q 424 840 332 840 q 601 726 550 840 q 616 703 608 710 q 633 696 624 696 q 657 701 644 696 l 735 732 q 765 768 765 744 q 758 796 765 778 q 632 954 710 901 q 424 1007 554 1007 q 231 969 311 1007 q 110 865 151 932 q 69 708 69 797 q 120 536 69 597 q 243 452 171 475 q 415 417 315 429 q 559 378 510 406 q 608 286 608 351 q 560 177 608 213 q 418 142 513 142 q 302 174 350 142 q 231 269 254 207 q 216 296 224 288 q 196 304 208 304 q 174 299 190 304 l 92 271 q 60 235 60 261 q 64 211 60 226 q 418 -21 140 -21 m 417 1065 l 432 1065 q 472 1071 460 1065 q 510 1101 485 1076 l 646 1238 q 656 1257 656 1247 q 625 1272 656 1272 l 563 1272 q 522 1268 535 1272 q 494 1249 508 1264 l 419 1169 l 342 1249 q 315 1269 326 1265 q 276 1272 303 1272 l 218 1272 q 188 1257 188 1272 q 197 1238 188 1247 l 333 1101 q 371 1071 357 1076 q 417 1065 385 1065 "},"Ş":{"ha":844,"x_min":60,"x_max":786,"o":"m 410 -340 q 534 -310 483 -340 q 593 -206 585 -279 q 567 -115 599 -151 q 479 -79 535 -79 q 463 -81 468 -79 l 485 -17 q 708 77 629 -1 q 786 281 786 156 q 694 497 786 435 q 460 578 603 560 q 300 617 354 589 q 246 713 246 644 q 289 809 246 778 q 424 840 332 840 q 601 726 550 840 q 616 703 608 710 q 633 696 624 696 q 657 701 644 696 l 735 732 q 765 768 765 744 q 758 796 765 778 q 632 954 710 901 q 424 1007 554 1007 q 231 969 311 1007 q 110 865 151 932 q 69 708 69 797 q 120 536 69 597 q 243 452 171 475 q 415 417 315 429 q 559 378 510 406 q 608 286 608 351 q 560 177 608 213 q 418 142 513 142 q 302 175 350 142 q 231 271 254 208 q 216 297 224 289 q 196 304 208 304 q 174 300 186 304 l 92 272 q 60 236 60 263 q 64 211 60 226 q 390 -19 139 -10 l 346 -125 q 342 -143 342 -136 q 360 -158 342 -158 l 364 -158 l 397 -157 q 454 -197 454 -158 q 438 -234 454 -221 q 388 -247 421 -247 q 346 -242 361 -247 q 310 -225 331 -237 q 293 -225 299 -219 q 288 -242 288 -231 l 289 -283 q 294 -308 289 -299 q 313 -322 299 -317 q 358 -336 329 -332 q 410 -340 388 -340 "},"Ŝ":{"ha":844,"x_min":60,"x_max":786,"o":"m 418 -21 q 690 60 593 -21 q 786 281 786 142 q 694 497 786 435 q 460 578 603 560 q 300 617 354 589 q 246 713 246 644 q 289 809 246 778 q 424 840 332 840 q 601 726 550 840 q 616 703 608 710 q 633 696 624 696 q 657 701 644 696 l 735 732 q 765 768 765 744 q 758 796 765 778 q 632 954 710 901 q 424 1007 554 1007 q 231 969 311 1007 q 110 865 151 932 q 69 708 69 797 q 120 536 69 597 q 243 452 171 475 q 415 417 315 429 q 559 378 510 406 q 608 286 608 351 q 560 177 608 213 q 418 142 513 142 q 302 174 350 142 q 231 269 254 207 q 216 296 224 288 q 196 304 208 304 q 174 299 190 304 l 92 271 q 60 235 60 261 q 64 211 60 226 q 418 -21 140 -21 m 222 1067 l 281 1067 q 319 1071 308 1067 q 346 1092 331 1075 l 425 1171 l 499 1092 q 526 1072 513 1076 q 567 1067 540 1067 l 629 1067 q 660 1082 660 1067 q 650 1101 660 1092 l 514 1238 q 476 1269 489 1264 q 438 1275 463 1275 l 421 1275 q 377 1269 390 1275 q 339 1238 364 1263 l 203 1101 q 192 1082 192 1090 q 222 1067 192 1067 "},"Ș":{"ha":844,"x_min":60,"x_max":786,"o":"m 418 -21 q 690 60 593 -21 q 786 281 786 142 q 694 497 786 435 q 460 578 603 560 q 300 617 354 589 q 246 713 246 644 q 289 809 246 778 q 424 840 332 840 q 601 726 550 840 q 616 703 608 710 q 633 696 624 696 q 657 701 644 696 l 735 732 q 765 768 765 744 q 758 796 765 778 q 632 954 710 901 q 424 1007 554 1007 q 231 969 311 1007 q 110 865 151 932 q 69 708 69 797 q 120 536 69 597 q 243 452 171 475 q 415 417 315 429 q 559 378 510 406 q 608 286 608 351 q 560 177 608 213 q 418 142 513 142 q 302 174 350 142 q 231 269 254 207 q 216 296 224 288 q 196 304 208 304 q 174 299 190 304 l 92 271 q 60 235 60 261 q 64 211 60 226 q 418 -21 140 -21 m 354 -358 l 407 -358 q 438 -349 428 -358 q 456 -318 449 -340 l 521 -131 q 524 -112 524 -124 q 513 -92 524 -99 q 479 -86 503 -86 l 407 -86 q 369 -95 381 -86 q 356 -131 358 -104 l 328 -328 q 331 -352 325 -346 q 354 -358 336 -358 "},"ẞ":{"ha":869,"x_min":107,"x_max":807,"o":"m 560 589 l 721 804 q 744 857 744 832 l 744 939 q 697 986 744 986 l 154 986 q 117 976 128 986 q 107 939 107 965 l 107 47 q 117 10 107 21 q 154 0 128 0 l 233 0 q 269 11 257 0 q 281 47 281 22 l 281 825 l 536 825 l 401 608 q 389 583 394 597 q 383 554 383 569 l 383 489 q 397 455 383 468 q 431 442 410 442 q 514 443 457 443 q 600 408 567 443 q 633 303 633 374 q 501 158 633 158 q 394 165 426 158 q 360 153 374 165 q 347 121 347 140 l 347 53 q 394 6 347 6 q 506 -3 454 -3 q 728 71 650 -3 q 807 297 807 144 q 560 589 807 581 "},"T":{"ha":743,"x_min":29,"x_max":714,"o":"m 328 0 l 415 0 q 449 10 440 0 q 458 44 458 19 l 458 824 l 669 824 q 704 834 694 824 q 714 871 714 844 l 714 939 q 704 976 714 965 q 669 986 694 986 l 74 986 q 39 976 49 986 q 29 939 29 965 l 29 871 q 39 834 29 844 q 74 824 49 824 l 285 824 l 285 44 q 294 10 285 19 q 328 0 304 0 "},"Ŧ":{"ha":743,"x_min":29,"x_max":714,"o":"m 328 0 l 415 0 q 449 10 440 0 q 458 44 458 19 l 458 392 l 596 392 q 618 398 613 392 q 624 422 624 404 l 624 486 q 618 510 624 503 q 596 517 613 517 l 458 517 l 458 824 l 669 824 q 704 834 694 824 q 714 871 714 844 l 714 939 q 704 976 714 965 q 669 986 694 986 l 74 986 q 39 976 49 986 q 29 939 29 965 l 29 871 q 39 834 29 844 q 74 824 49 824 l 285 824 l 285 517 l 149 517 q 127 510 133 517 q 121 486 121 503 l 121 422 q 126 398 121 404 q 149 392 132 392 l 285 392 l 285 44 q 294 10 285 19 q 328 0 304 0 "},"Ť":{"ha":743,"x_min":29,"x_max":714,"o":"m 328 0 l 415 0 q 449 10 440 0 q 458 44 458 19 l 458 824 l 669 824 q 704 834 694 824 q 714 871 714 844 l 714 939 q 704 976 714 965 q 669 986 694 986 l 74 986 q 39 976 49 986 q 29 939 29 965 l 29 871 q 39 834 29 844 q 74 824 49 824 l 285 824 l 285 44 q 294 10 285 19 q 328 0 304 0 m 364 1051 l 379 1051 q 419 1057 407 1051 q 457 1088 432 1063 l 593 1224 q 603 1243 603 1233 q 572 1258 603 1258 l 510 1258 q 469 1254 482 1258 q 442 1235 456 1250 l 367 1156 l 289 1235 q 262 1255 274 1251 q 224 1258 250 1258 l 165 1258 q 135 1243 135 1258 q 144 1224 135 1233 l 281 1088 q 318 1057 304 1063 q 364 1051 332 1051 "},"Ţ":{"ha":743,"x_min":29,"x_max":714,"o":"m 328 0 l 415 0 q 449 10 440 0 q 458 44 458 19 l 458 824 l 669 824 q 704 834 694 824 q 714 871 714 844 l 714 939 q 704 976 714 965 q 669 986 694 986 l 74 986 q 39 976 49 986 q 29 939 29 965 l 29 871 q 39 834 29 844 q 74 824 49 824 l 285 824 l 285 44 q 294 10 285 19 q 328 0 304 0 m 283 -357 l 336 -357 q 367 -348 357 -357 q 385 -317 378 -339 l 450 -129 q 453 -111 453 -122 q 442 -91 453 -97 q 408 -85 432 -85 l 336 -85 q 299 -94 310 -85 q 285 -129 288 -103 l 257 -326 q 260 -351 254 -344 q 283 -357 265 -357 "},"U":{"ha":919,"x_min":100,"x_max":821,"o":"m 460 -21 q 728 76 635 -21 q 821 339 821 172 l 821 942 q 811 977 821 968 q 776 986 801 986 l 690 986 q 656 977 665 986 q 646 942 646 968 l 646 338 q 600 192 646 243 q 460 142 554 142 q 320 192 367 142 q 274 338 274 243 l 274 942 q 264 977 274 968 q 229 986 254 986 l 143 986 q 109 977 118 986 q 100 942 100 968 l 100 339 q 192 76 100 172 q 460 -21 285 -21 "},"Ú":{"ha":919,"x_min":100,"x_max":821,"o":"m 460 -21 q 728 76 635 -21 q 821 339 821 172 l 821 942 q 811 977 821 968 q 776 986 801 986 l 690 986 q 656 977 665 986 q 646 942 646 968 l 646 338 q 600 192 646 243 q 460 142 554 142 q 320 192 367 142 q 274 338 274 243 l 274 942 q 264 977 274 968 q 229 986 254 986 l 143 986 q 109 977 118 986 q 100 942 100 968 l 100 339 q 192 76 100 172 q 460 -21 285 -21 m 376 1058 l 610 1160 q 631 1181 631 1168 q 615 1208 631 1190 l 579 1251 q 544 1269 565 1269 q 501 1254 526 1269 l 307 1132 q 290 1113 290 1122 q 304 1086 290 1104 l 324 1061 q 344 1050 332 1050 q 360 1053 350 1050 q 376 1058 371 1057 "},"Ŭ":{"ha":919,"x_min":100,"x_max":821,"o":"m 460 -21 q 728 76 635 -21 q 821 339 821 172 l 821 942 q 811 977 821 968 q 776 986 801 986 l 690 986 q 656 977 665 986 q 646 942 646 968 l 646 338 q 600 192 646 243 q 460 142 554 142 q 320 192 367 142 q 274 338 274 243 l 274 942 q 264 977 274 968 q 229 986 254 986 l 143 986 q 109 977 118 986 q 100 942 100 968 l 100 339 q 192 76 100 172 q 460 -21 285 -21 m 458 1056 q 591 1093 536 1056 q 671 1197 646 1131 q 674 1213 674 1208 q 651 1238 674 1228 l 588 1260 q 574 1263 576 1263 q 553 1243 561 1263 q 458 1171 525 1171 q 401 1190 425 1171 q 367 1243 378 1208 q 343 1261 360 1261 q 324 1258 331 1261 l 268 1238 q 247 1214 247 1231 l 250 1197 q 328 1093 274 1131 q 458 1056 382 1056 "},"Û":{"ha":919,"x_min":100,"x_max":821,"o":"m 460 -21 q 728 76 635 -21 q 821 339 821 172 l 821 942 q 811 977 821 968 q 776 986 801 986 l 690 986 q 656 977 665 986 q 646 942 646 968 l 646 338 q 600 192 646 243 q 460 142 554 142 q 320 192 367 142 q 274 338 274 243 l 274 942 q 264 977 274 968 q 229 986 254 986 l 143 986 q 109 977 118 986 q 100 942 100 968 l 100 339 q 192 76 100 172 q 460 -21 285 -21 m 257 1053 l 315 1053 q 354 1057 343 1053 q 381 1078 365 1061 l 460 1157 l 533 1078 q 561 1058 547 1063 q 601 1053 575 1053 l 664 1053 q 694 1068 694 1053 q 685 1088 694 1078 l 549 1224 q 510 1256 524 1250 q 472 1261 497 1261 l 456 1261 q 412 1255 425 1261 q 374 1224 399 1249 l 238 1088 q 226 1068 226 1076 q 257 1053 226 1053 "},"Ü":{"ha":919,"x_min":100,"x_max":821,"o":"m 460 -21 q 728 76 635 -21 q 821 339 821 172 l 821 942 q 811 977 821 968 q 776 986 801 986 l 690 986 q 656 977 665 986 q 646 942 646 968 l 646 338 q 600 192 646 243 q 460 142 554 142 q 320 192 367 142 q 274 338 274 243 l 274 942 q 264 977 274 968 q 229 986 254 986 l 143 986 q 109 977 118 986 q 100 942 100 968 l 100 339 q 192 76 100 172 q 460 -21 285 -21 m 318 1075 l 328 1075 q 385 1091 369 1075 q 401 1147 401 1107 l 401 1161 q 385 1217 401 1201 q 328 1232 369 1232 l 318 1232 q 261 1217 276 1232 q 246 1161 246 1201 l 246 1147 q 261 1091 246 1107 q 318 1075 276 1075 m 592 1075 l 601 1075 q 658 1091 643 1075 q 674 1147 674 1107 l 674 1161 q 658 1217 674 1201 q 601 1232 643 1232 l 592 1232 q 534 1217 550 1232 q 518 1161 518 1201 l 518 1147 q 534 1091 518 1107 q 592 1075 550 1075 "},"Ù":{"ha":919,"x_min":100,"x_max":821,"o":"m 460 -21 q 728 76 635 -21 q 821 339 821 172 l 821 942 q 811 977 821 968 q 776 986 801 986 l 690 986 q 656 977 665 986 q 646 942 646 968 l 646 338 q 600 192 646 243 q 460 142 554 142 q 320 192 367 142 q 274 338 274 243 l 274 942 q 264 977 274 968 q 229 986 254 986 l 143 986 q 109 977 118 986 q 100 942 100 968 l 100 339 q 192 76 100 172 q 460 -21 285 -21 m 314 1160 l 546 1058 q 579 1050 567 1050 q 600 1061 593 1050 l 619 1086 q 633 1113 633 1104 q 617 1132 633 1122 l 421 1254 q 378 1269 396 1269 q 343 1251 357 1269 l 307 1207 q 293 1179 293 1192 q 314 1160 293 1167 "},"Ű":{"ha":919,"x_min":100,"x_max":821,"o":"m 460 -21 q 728 76 635 -21 q 821 339 821 172 l 821 942 q 811 977 821 968 q 776 986 801 986 l 690 986 q 656 977 665 986 q 646 942 646 968 l 646 338 q 600 192 646 243 q 460 142 554 142 q 320 192 367 142 q 274 338 274 243 l 274 942 q 264 977 274 968 q 229 986 254 986 l 143 986 q 109 977 118 986 q 100 942 100 968 l 100 339 q 192 76 100 172 q 460 -21 285 -21 m 272 1065 l 296 1058 q 310 1056 307 1056 q 346 1076 322 1056 l 485 1203 q 497 1225 497 1215 q 471 1251 497 1242 l 424 1268 q 403 1271 417 1271 q 350 1239 371 1271 l 258 1108 q 250 1086 250 1096 q 272 1065 250 1071 m 493 1060 l 517 1053 q 529 1050 525 1050 q 546 1055 538 1050 q 567 1071 554 1060 l 718 1203 q 732 1225 732 1215 q 704 1250 732 1242 l 653 1267 q 631 1271 640 1271 q 581 1239 606 1271 l 479 1103 q 469 1082 469 1093 q 493 1060 469 1068 "},"Ū":{"ha":919,"x_min":100,"x_max":821,"o":"m 460 -21 q 728 76 635 -21 q 821 339 821 172 l 821 942 q 811 977 821 968 q 776 986 801 986 l 690 986 q 656 977 665 986 q 646 942 646 968 l 646 338 q 600 192 646 243 q 460 142 554 142 q 320 192 367 142 q 274 338 274 243 l 274 942 q 264 977 274 968 q 229 986 254 986 l 143 986 q 109 977 118 986 q 100 942 100 968 l 100 339 q 192 76 100 172 q 460 -21 285 -21 m 300 1093 l 618 1093 q 650 1101 642 1093 q 658 1133 658 1110 l 658 1168 q 650 1200 658 1192 q 618 1208 642 1208 l 300 1208 q 269 1200 278 1208 q 260 1168 260 1192 l 260 1133 q 268 1101 260 1110 q 300 1093 276 1093 "},"Ų":{"ha":919,"x_min":100,"x_max":821,"o":"m 560 -340 q 631 -328 596 -340 q 692 -292 667 -315 q 697 -278 697 -286 q 693 -262 697 -271 l 674 -217 q 658 -204 669 -204 q 647 -208 653 -204 q 610 -222 632 -222 q 589 -215 599 -222 q 575 -194 579 -208 q 574 -182 574 -190 q 607 -78 574 -143 q 708 57 640 -14 q 792 176 764 104 q 821 339 821 249 l 821 942 q 811 977 821 968 q 776 986 801 986 l 690 986 q 656 977 665 986 q 646 942 646 968 l 646 338 q 600 192 646 243 q 460 142 554 142 q 320 192 367 142 q 274 338 274 243 l 274 942 q 264 977 274 968 q 229 986 254 986 l 143 986 q 109 977 118 986 q 100 942 100 968 l 100 339 q 192 76 100 172 q 460 -21 285 -21 q 543 -11 508 -21 q 463 -125 490 -68 q 435 -229 435 -182 q 560 -340 435 -340 "},"Ů":{"ha":919,"x_min":100,"x_max":821,"o":"m 460 -21 q 728 76 635 -21 q 821 339 821 172 l 821 942 q 811 977 821 968 q 776 986 801 986 l 690 986 q 656 977 665 986 q 646 942 646 968 l 646 338 q 600 192 646 243 q 460 142 554 142 q 320 192 367 142 q 274 338 274 243 l 274 942 q 264 977 274 968 q 229 986 254 986 l 143 986 q 109 977 118 986 q 100 942 100 968 l 100 339 q 192 76 100 172 q 460 -21 285 -21 m 460 1040 q 565 1081 524 1040 q 607 1186 607 1122 q 565 1293 607 1251 q 460 1335 524 1335 q 352 1293 394 1335 q 310 1186 310 1251 q 352 1081 310 1122 q 460 1040 394 1040 m 460 1119 q 410 1138 429 1119 q 390 1186 390 1157 q 410 1235 390 1217 q 460 1254 429 1254 q 508 1235 489 1254 q 526 1186 526 1217 q 508 1138 526 1157 q 460 1119 489 1119 "},"Ũ":{"ha":919,"x_min":100,"x_max":821,"o":"m 460 -21 q 728 76 635 -21 q 821 339 821 172 l 821 942 q 811 977 821 968 q 776 986 801 986 l 690 986 q 656 977 665 986 q 646 942 646 968 l 646 338 q 600 192 646 243 q 460 142 554 142 q 320 192 367 142 q 274 338 274 243 l 274 942 q 264 977 274 968 q 229 986 254 986 l 143 986 q 109 977 118 986 q 100 942 100 968 l 100 339 q 192 76 100 172 q 460 -21 285 -21 m 271 1063 l 317 1063 q 336 1069 331 1063 q 342 1090 342 1075 q 372 1143 342 1143 q 403 1135 389 1143 q 439 1110 418 1126 q 491 1074 468 1086 q 546 1063 514 1063 q 633 1098 606 1063 q 661 1218 661 1133 q 656 1238 661 1232 q 635 1244 650 1244 l 590 1244 q 570 1238 575 1244 q 565 1218 565 1232 q 533 1165 565 1165 q 504 1173 518 1165 q 469 1197 490 1181 q 417 1232 442 1219 q 357 1244 392 1244 q 272 1209 300 1244 q 244 1090 244 1174 q 251 1069 244 1075 q 271 1063 257 1063 "},"V":{"ha":853,"x_min":24,"x_max":832,"o":"m 379 0 l 475 0 q 511 8 500 0 q 531 39 522 15 l 828 940 q 832 963 832 953 q 799 986 832 986 l 711 986 q 660 978 672 986 q 640 944 647 971 l 467 351 q 435 206 446 278 l 426 206 q 393 353 406 311 l 213 944 q 193 978 206 969 q 147 986 181 986 l 57 986 q 24 961 24 986 q 26 940 24 949 l 325 38 q 344 8 332 15 q 379 0 356 0 "},"W":{"ha":1224,"x_min":38,"x_max":1186,"o":"m 313 0 l 399 0 q 436 8 424 0 q 454 39 449 15 l 583 590 q 607 746 603 675 l 615 746 q 638 589 619 660 l 764 38 q 783 8 769 15 q 821 0 796 0 l 914 0 q 950 8 938 0 q 968 39 963 15 l 1183 940 q 1186 958 1186 954 q 1177 980 1186 974 q 1149 986 1168 986 l 1060 986 q 1019 978 1031 986 q 1003 944 1008 971 l 896 425 q 872 240 885 368 l 864 240 q 835 426 850 361 l 714 940 q 694 974 708 965 q 653 982 681 982 l 581 982 q 541 974 554 982 q 521 940 528 965 l 394 426 q 374 328 381 368 q 363 240 367 289 l 354 240 q 333 426 347 360 l 228 944 q 212 978 222 971 q 172 986 201 986 l 72 986 q 38 961 38 986 q 40 940 38 957 l 257 38 q 275 8 263 15 q 313 0 288 0 "},"Ẃ":{"ha":1224,"x_min":38,"x_max":1186,"o":"m 313 0 l 399 0 q 436 8 424 0 q 454 39 449 15 l 583 590 q 607 746 603 675 l 615 746 q 638 589 619 660 l 764 38 q 783 8 769 15 q 821 0 796 0 l 914 0 q 950 8 938 0 q 968 39 963 15 l 1183 940 q 1186 958 1186 954 q 1177 980 1186 974 q 1149 986 1168 986 l 1060 986 q 1019 978 1031 986 q 1003 944 1008 971 l 896 425 q 872 240 885 368 l 864 240 q 835 426 850 361 l 714 940 q 694 974 708 965 q 653 982 681 982 l 581 982 q 541 974 554 982 q 521 940 528 965 l 394 426 q 374 328 381 368 q 363 240 367 289 l 354 240 q 333 426 347 360 l 228 944 q 212 978 222 971 q 172 986 201 986 l 72 986 q 38 961 38 986 q 40 940 38 957 l 257 38 q 275 8 263 15 q 313 0 288 0 m 535 1058 l 768 1160 q 789 1181 789 1168 q 774 1208 789 1190 l 738 1251 q 703 1269 724 1269 q 660 1254 685 1269 l 465 1132 q 449 1113 449 1122 q 463 1086 449 1104 l 482 1061 q 503 1050 490 1050 q 519 1053 508 1050 q 535 1058 529 1057 "},"Ŵ":{"ha":1224,"x_min":38,"x_max":1186,"o":"m 313 0 l 399 0 q 436 8 424 0 q 454 39 449 15 l 583 590 q 607 746 603 675 l 615 746 q 638 589 619 660 l 764 38 q 783 8 769 15 q 821 0 796 0 l 914 0 q 950 8 938 0 q 968 39 963 15 l 1183 940 q 1186 958 1186 954 q 1177 980 1186 974 q 1149 986 1168 986 l 1060 986 q 1019 978 1031 986 q 1003 944 1008 971 l 896 425 q 872 240 885 368 l 864 240 q 835 426 850 361 l 714 940 q 694 974 708 965 q 653 982 681 982 l 581 982 q 541 974 554 982 q 521 940 528 965 l 394 426 q 374 328 381 368 q 363 240 367 289 l 354 240 q 333 426 347 360 l 228 944 q 212 978 222 971 q 172 986 201 986 l 72 986 q 38 961 38 986 q 40 940 38 957 l 257 38 q 275 8 263 15 q 313 0 288 0 m 415 1053 l 474 1053 q 513 1057 501 1053 q 539 1078 524 1061 l 618 1157 l 692 1078 q 719 1058 706 1063 q 760 1053 733 1053 l 822 1053 q 853 1068 853 1053 q 843 1088 853 1078 l 707 1224 q 669 1256 682 1250 q 631 1261 656 1261 l 614 1261 q 570 1255 583 1261 q 532 1224 557 1249 l 396 1088 q 385 1068 385 1076 q 415 1053 385 1053 "},"Ẅ":{"ha":1224,"x_min":38,"x_max":1186,"o":"m 313 0 l 399 0 q 436 8 424 0 q 454 39 449 15 l 583 590 q 607 746 603 675 l 615 746 q 638 589 619 660 l 764 38 q 783 8 769 15 q 821 0 796 0 l 914 0 q 950 8 938 0 q 968 39 963 15 l 1183 940 q 1186 958 1186 954 q 1177 980 1186 974 q 1149 986 1168 986 l 1060 986 q 1019 978 1031 986 q 1003 944 1008 971 l 896 425 q 872 240 885 368 l 864 240 q 835 426 850 361 l 714 940 q 694 974 708 965 q 653 982 681 982 l 581 982 q 541 974 554 982 q 521 940 528 965 l 394 426 q 374 328 381 368 q 363 240 367 289 l 354 240 q 333 426 347 360 l 228 944 q 212 978 222 971 q 172 986 201 986 l 72 986 q 38 961 38 986 q 40 940 38 957 l 257 38 q 275 8 263 15 q 313 0 288 0 m 475 1075 l 485 1075 q 542 1091 526 1075 q 558 1147 558 1107 l 558 1161 q 542 1217 558 1201 q 485 1232 526 1232 l 475 1232 q 418 1217 433 1232 q 403 1161 403 1201 l 403 1147 q 418 1091 403 1107 q 475 1075 433 1075 m 749 1075 l 758 1075 q 815 1091 800 1075 q 831 1147 831 1107 l 831 1161 q 815 1217 831 1201 q 758 1232 800 1232 l 749 1232 q 691 1217 707 1232 q 675 1161 675 1201 l 675 1147 q 691 1091 675 1107 q 749 1075 707 1075 "},"Ẁ":{"ha":1224,"x_min":38,"x_max":1186,"o":"m 313 0 l 399 0 q 436 8 424 0 q 454 39 449 15 l 583 590 q 607 746 603 675 l 615 746 q 638 589 619 660 l 764 38 q 783 8 769 15 q 821 0 796 0 l 914 0 q 950 8 938 0 q 968 39 963 15 l 1183 940 q 1186 958 1186 954 q 1177 980 1186 974 q 1149 986 1168 986 l 1060 986 q 1019 978 1031 986 q 1003 944 1008 971 l 896 425 q 872 240 885 368 l 864 240 q 835 426 850 361 l 714 940 q 694 974 708 965 q 653 982 681 982 l 581 982 q 541 974 554 982 q 521 940 528 965 l 394 426 q 374 328 381 368 q 363 240 367 289 l 354 240 q 333 426 347 360 l 228 944 q 212 978 222 971 q 172 986 201 986 l 72 986 q 38 961 38 986 q 40 940 38 957 l 257 38 q 275 8 263 15 q 313 0 288 0 m 472 1160 l 704 1058 q 738 1050 725 1050 q 758 1061 751 1050 l 778 1086 q 792 1113 792 1104 q 775 1132 792 1122 l 579 1254 q 536 1269 554 1269 q 501 1251 515 1269 l 465 1207 q 451 1179 451 1192 q 472 1160 451 1167 "},"X":{"ha":850,"x_min":28,"x_max":822,"o":"m 58 0 l 168 0 q 213 7 200 0 q 240 42 226 14 l 419 374 l 611 42 q 638 6 626 13 q 688 0 650 0 l 793 0 q 822 24 822 0 q 815 49 822 36 l 535 507 l 803 942 q 811 964 811 954 q 782 986 811 986 l 675 986 q 626 980 639 986 q 600 947 614 974 l 425 640 l 250 947 q 220 980 235 974 q 164 986 206 986 l 68 986 q 47 980 54 986 q 39 964 39 974 q 46 942 39 956 l 311 506 l 36 49 q 28 24 28 35 q 58 0 28 0 "},"Y":{"ha":860,"x_min":24,"x_max":835,"o":"m 385 0 l 469 0 q 504 10 494 0 q 514 47 514 21 l 514 389 l 828 939 q 835 964 835 951 q 806 986 835 986 l 711 986 q 660 978 672 986 q 635 944 647 971 l 431 557 l 229 944 q 203 978 217 971 q 153 986 190 986 l 53 986 q 24 964 24 986 q 31 939 24 951 l 340 392 l 340 47 q 351 10 340 21 q 385 0 361 0 "},"Ý":{"ha":860,"x_min":24,"x_max":835,"o":"m 385 0 l 469 0 q 504 10 494 0 q 514 47 514 21 l 514 389 l 828 939 q 835 964 835 951 q 806 986 835 986 l 711 986 q 660 978 672 986 q 635 944 647 971 l 431 557 l 229 944 q 203 978 217 971 q 153 986 190 986 l 53 986 q 24 964 24 986 q 31 939 24 951 l 340 392 l 340 47 q 351 10 340 21 q 385 0 361 0 m 350 1058 l 583 1160 q 604 1181 604 1168 q 589 1208 604 1190 l 553 1251 q 518 1269 539 1269 q 475 1254 500 1269 l 281 1132 q 264 1113 264 1122 q 278 1086 264 1104 l 297 1061 q 318 1050 306 1050 q 334 1053 324 1050 q 350 1058 344 1057 "},"Ŷ":{"ha":860,"x_min":24,"x_max":835,"o":"m 385 0 l 469 0 q 504 10 494 0 q 514 47 514 21 l 514 389 l 828 939 q 835 964 835 951 q 806 986 835 986 l 711 986 q 660 978 672 986 q 635 944 647 971 l 431 557 l 229 944 q 203 978 217 971 q 153 986 190 986 l 53 986 q 24 964 24 986 q 31 939 24 951 l 340 392 l 340 47 q 351 10 340 21 q 385 0 361 0 m 231 1053 l 289 1053 q 328 1057 317 1053 q 354 1078 339 1061 l 433 1157 l 507 1078 q 535 1058 521 1063 q 575 1053 549 1053 l 638 1053 q 668 1068 668 1053 q 658 1088 668 1078 l 522 1224 q 484 1256 497 1250 q 446 1261 471 1261 l 429 1261 q 385 1255 399 1261 q 347 1224 372 1249 l 211 1088 q 200 1068 200 1076 q 231 1053 200 1053 "},"Ÿ":{"ha":860,"x_min":24,"x_max":835,"o":"m 385 0 l 469 0 q 504 10 494 0 q 514 47 514 21 l 514 389 l 828 939 q 835 964 835 951 q 806 986 835 986 l 711 986 q 660 978 672 986 q 635 944 647 971 l 431 557 l 229 944 q 203 978 217 971 q 153 986 190 986 l 53 986 q 24 964 24 986 q 31 939 24 951 l 340 392 l 340 47 q 351 10 340 21 q 385 0 361 0 m 290 1075 l 300 1075 q 358 1091 342 1075 q 374 1147 374 1107 l 374 1161 q 358 1217 374 1201 q 300 1232 342 1232 l 290 1232 q 233 1217 249 1232 q 218 1161 218 1201 l 218 1147 q 233 1091 218 1107 q 290 1075 249 1075 m 564 1075 l 574 1075 q 631 1091 615 1075 q 646 1147 646 1107 l 646 1161 q 631 1217 646 1201 q 574 1232 615 1232 l 564 1232 q 506 1217 522 1232 q 490 1161 490 1201 l 490 1147 q 506 1091 490 1107 q 564 1075 522 1075 "},"Ỳ":{"ha":860,"x_min":24,"x_max":835,"o":"m 385 0 l 469 0 q 504 10 494 0 q 514 47 514 21 l 514 389 l 828 939 q 835 964 835 951 q 806 986 835 986 l 711 986 q 660 978 672 986 q 635 944 647 971 l 431 557 l 229 944 q 203 978 217 971 q 153 986 190 986 l 53 986 q 24 964 24 986 q 31 939 24 951 l 340 392 l 340 47 q 351 10 340 21 q 385 0 361 0 m 288 1160 l 519 1058 q 553 1050 540 1050 q 574 1061 567 1050 l 593 1086 q 607 1113 607 1104 q 590 1132 607 1122 l 394 1254 q 351 1269 369 1269 q 317 1251 331 1269 l 281 1207 q 267 1179 267 1192 q 288 1160 267 1167 "},"Z":{"ha":782,"x_min":58,"x_max":725,"o":"m 101 0 l 681 0 q 715 10 706 0 q 725 47 725 21 l 725 115 q 715 152 725 142 q 681 163 706 163 l 264 163 l 703 822 q 717 872 717 844 l 717 939 q 707 976 717 965 q 674 986 697 986 l 107 986 q 74 976 83 986 q 64 939 64 965 l 64 872 q 74 835 64 846 q 107 825 83 825 l 513 825 l 72 164 q 58 115 58 142 l 58 47 q 67 10 58 21 q 101 0 76 0 "},"Ź":{"ha":782,"x_min":58,"x_max":725,"o":"m 101 0 l 681 0 q 715 10 706 0 q 725 47 725 21 l 725 115 q 715 152 725 142 q 681 163 706 163 l 264 163 l 703 822 q 717 872 717 844 l 717 939 q 707 976 717 965 q 674 986 697 986 l 107 986 q 74 976 83 986 q 64 939 64 965 l 64 872 q 74 835 64 846 q 107 825 83 825 l 513 825 l 72 164 q 58 115 58 142 l 58 47 q 67 10 58 21 q 101 0 76 0 m 315 1058 l 549 1160 q 569 1181 569 1168 q 554 1208 569 1190 l 518 1251 q 483 1269 504 1269 q 440 1254 465 1269 l 246 1132 q 229 1113 229 1122 q 243 1086 229 1104 l 263 1061 q 283 1050 271 1050 q 299 1053 289 1050 q 315 1058 310 1057 "},"Ž":{"ha":782,"x_min":58,"x_max":725,"o":"m 101 0 l 681 0 q 715 10 706 0 q 725 47 725 21 l 725 115 q 715 152 725 142 q 681 163 706 163 l 264 163 l 703 822 q 717 872 717 844 l 717 939 q 707 976 717 965 q 674 986 697 986 l 107 986 q 74 976 83 986 q 64 939 64 965 l 64 872 q 74 835 64 846 q 107 825 83 825 l 513 825 l 72 164 q 58 115 58 142 l 58 47 q 67 10 58 21 q 101 0 76 0 m 390 1051 l 406 1051 q 446 1057 433 1051 q 483 1088 458 1063 l 619 1224 q 629 1243 629 1233 q 599 1258 629 1258 l 536 1258 q 495 1254 508 1258 q 468 1235 482 1250 l 393 1156 l 315 1235 q 288 1255 300 1251 q 250 1258 276 1258 l 192 1258 q 161 1243 161 1258 q 171 1224 161 1233 l 307 1088 q 344 1057 331 1063 q 390 1051 358 1051 "},"Ż":{"ha":782,"x_min":58,"x_max":725,"o":"m 101 0 l 681 0 q 715 10 706 0 q 725 47 725 21 l 725 115 q 715 152 725 142 q 681 163 706 163 l 264 163 l 703 822 q 717 872 717 844 l 717 939 q 707 976 717 965 q 674 986 697 986 l 107 986 q 74 976 83 986 q 64 939 64 965 l 64 872 q 74 835 64 846 q 107 825 83 825 l 513 825 l 72 164 q 58 115 58 142 l 58 47 q 67 10 58 21 q 101 0 76 0 m 393 1074 l 401 1074 q 460 1089 444 1074 q 476 1147 476 1104 l 476 1158 q 460 1217 476 1201 q 401 1233 444 1233 l 393 1233 q 335 1217 350 1233 q 319 1158 319 1201 l 319 1147 q 335 1089 319 1104 q 393 1074 350 1074 "},"a":{"ha":686,"x_min":54,"x_max":607,"o":"m 335 -21 q 563 15 486 -21 q 598 43 589 28 q 607 94 607 58 l 607 467 q 544 671 607 601 q 335 740 482 740 q 83 593 154 740 q 76 567 76 579 q 106 533 76 546 l 156 510 q 179 503 169 503 q 213 529 199 503 q 335 599 247 599 q 422 571 397 599 q 447 474 447 543 l 447 418 q 399 423 429 421 q 338 425 368 425 q 120 374 186 425 q 54 206 54 322 q 121 33 54 88 q 335 -21 188 -21 m 325 113 q 241 135 268 113 q 214 206 214 157 q 242 276 214 253 q 328 299 269 299 q 397 296 357 299 q 447 293 436 293 l 447 143 q 445 130 447 133 q 436 124 443 126 q 325 113 397 113 "},"á":{"ha":686,"x_min":54,"x_max":607,"o":"m 335 -21 q 563 15 486 -21 q 598 43 589 28 q 607 94 607 58 l 607 467 q 544 671 607 601 q 335 740 482 740 q 83 593 154 740 q 76 567 76 579 q 106 533 76 546 l 156 510 q 179 503 169 503 q 213 529 199 503 q 335 599 247 599 q 422 571 397 599 q 447 474 447 543 l 447 418 q 399 423 429 421 q 338 425 368 425 q 120 374 186 425 q 54 206 54 322 q 121 33 54 88 q 335 -21 188 -21 m 325 113 q 241 135 268 113 q 214 206 214 157 q 242 276 214 253 q 328 299 269 299 q 397 296 357 299 q 447 293 436 293 l 447 143 q 445 130 447 133 q 436 124 443 126 q 325 113 397 113 m 254 824 l 486 924 q 507 944 507 931 q 493 972 507 957 l 457 1015 q 422 1033 440 1033 q 378 1018 406 1033 l 183 896 q 167 876 167 888 q 181 850 167 868 l 200 825 q 221 814 208 814 q 254 824 229 814 "},"ă":{"ha":686,"x_min":54,"x_max":607,"o":"m 335 -21 q 563 15 486 -21 q 598 43 589 28 q 607 94 607 58 l 607 467 q 544 671 607 601 q 335 740 482 740 q 83 593 154 740 q 76 567 76 579 q 106 533 76 546 l 156 510 q 179 503 169 503 q 213 529 199 503 q 335 599 247 599 q 422 571 397 599 q 447 474 447 543 l 447 418 q 399 423 429 421 q 338 425 368 425 q 120 374 186 425 q 54 206 54 322 q 121 33 54 88 q 335 -21 188 -21 m 325 113 q 241 135 268 113 q 214 206 214 157 q 242 276 214 253 q 328 299 269 299 q 397 296 357 299 q 447 293 436 293 l 447 143 q 445 130 447 133 q 436 124 443 126 q 325 113 397 113 m 336 818 q 469 855 414 818 q 547 960 525 892 q 550 976 550 974 q 545 990 550 985 q 528 1000 540 994 l 465 1022 q 451 1025 454 1025 q 429 1006 438 1025 q 394 952 418 971 q 336 933 369 933 q 279 952 303 933 q 244 1006 256 971 q 221 1024 235 1024 q 201 1021 208 1024 l 146 1000 q 124 975 124 992 q 126 960 124 971 q 204 855 149 892 q 336 818 260 818 "},"â":{"ha":686,"x_min":54,"x_max":607,"o":"m 335 -21 q 563 15 486 -21 q 598 43 589 28 q 607 94 607 58 l 607 467 q 544 671 607 601 q 335 740 482 740 q 83 593 154 740 q 76 567 76 579 q 106 533 76 546 l 156 510 q 179 503 169 503 q 213 529 199 503 q 335 599 247 599 q 422 571 397 599 q 447 474 447 543 l 447 418 q 399 423 429 421 q 338 425 368 425 q 120 374 186 425 q 54 206 54 322 q 121 33 54 88 q 335 -21 188 -21 m 325 113 q 241 135 268 113 q 214 206 214 157 q 242 276 214 253 q 328 299 269 299 q 397 296 357 299 q 447 293 436 293 l 447 143 q 445 130 447 133 q 436 124 443 126 q 325 113 397 113 m 135 817 l 192 817 q 231 820 219 817 q 258 840 242 824 l 336 919 l 411 840 q 438 821 425 825 q 479 817 451 817 l 542 817 q 572 832 572 817 q 563 851 572 842 l 426 988 q 389 1018 401 1013 q 350 1024 376 1024 l 333 1024 q 288 1018 301 1024 q 250 988 275 1013 l 114 851 q 104 832 104 842 q 135 817 104 817 "},"ä":{"ha":686,"x_min":54,"x_max":607,"o":"m 335 -21 q 563 15 486 -21 q 598 43 589 28 q 607 94 607 58 l 607 467 q 544 671 607 601 q 335 740 482 740 q 83 593 154 740 q 76 567 76 579 q 106 533 76 546 l 156 510 q 179 503 169 503 q 213 529 199 503 q 335 599 247 599 q 422 571 397 599 q 447 474 447 543 l 447 418 q 399 423 429 421 q 338 425 368 425 q 120 374 186 425 q 54 206 54 322 q 121 33 54 88 q 335 -21 188 -21 m 325 113 q 241 135 268 113 q 214 206 214 157 q 242 276 214 253 q 328 299 269 299 q 397 296 357 299 q 447 293 436 293 l 447 143 q 445 130 447 133 q 436 124 443 126 q 325 113 397 113 m 194 833 l 204 833 q 262 849 246 833 q 278 907 278 865 l 278 919 q 262 976 278 960 q 204 992 246 992 l 194 992 q 137 976 153 992 q 121 919 121 960 l 121 907 q 137 849 121 865 q 194 833 153 833 m 460 833 l 468 833 q 526 849 510 833 q 542 907 542 865 l 542 919 q 526 976 542 960 q 468 992 510 992 l 460 992 q 401 976 417 992 q 385 919 385 960 l 385 907 q 401 849 385 865 q 460 833 418 833 "},"à":{"ha":686,"x_min":54,"x_max":607,"o":"m 335 -21 q 563 15 486 -21 q 598 43 589 28 q 607 94 607 58 l 607 467 q 544 671 607 601 q 335 740 482 740 q 83 593 154 740 q 76 567 76 579 q 106 533 76 546 l 156 510 q 179 503 169 503 q 213 529 199 503 q 335 599 247 599 q 422 571 397 599 q 447 474 447 543 l 447 418 q 399 423 429 421 q 338 425 368 425 q 120 374 186 425 q 54 206 54 322 q 121 33 54 88 q 335 -21 188 -21 m 325 113 q 241 135 268 113 q 214 206 214 157 q 242 276 214 253 q 328 299 269 299 q 397 296 357 299 q 447 293 436 293 l 447 143 q 445 130 447 133 q 436 124 443 126 q 325 113 397 113 m 190 924 l 422 822 q 454 814 447 814 q 476 825 465 814 l 496 850 q 510 876 510 868 q 493 896 510 888 l 297 1018 q 254 1033 272 1033 q 219 1015 233 1033 l 183 972 q 169 944 169 957 q 190 924 169 931 "},"ā":{"ha":686,"x_min":54,"x_max":607,"o":"m 335 -21 q 563 15 486 -21 q 598 43 589 28 q 607 94 607 58 l 607 467 q 544 671 607 601 q 335 740 482 740 q 83 593 154 740 q 76 567 76 579 q 106 533 76 546 l 156 510 q 179 503 169 503 q 213 529 199 503 q 335 599 247 599 q 422 571 397 599 q 447 474 447 543 l 447 418 q 399 423 429 421 q 338 425 368 425 q 120 374 186 425 q 54 206 54 322 q 121 33 54 88 q 335 -21 188 -21 m 325 113 q 241 135 268 113 q 214 206 214 157 q 242 276 214 253 q 328 299 269 299 q 397 296 357 299 q 447 293 436 293 l 447 143 q 445 130 447 133 q 436 124 443 126 q 325 113 397 113 m 176 857 l 494 857 q 526 865 518 857 q 535 897 535 874 l 535 932 q 526 964 535 956 q 494 972 518 972 l 176 972 q 145 964 154 972 q 136 932 136 956 l 136 897 q 144 865 136 874 q 176 857 153 857 "},"ą":{"ha":686,"x_min":54,"x_max":615,"o":"m 481 -340 q 551 -328 517 -340 q 610 -292 585 -315 q 615 -278 615 -286 q 611 -262 615 -271 l 592 -217 q 576 -204 586 -204 q 565 -208 572 -204 q 531 -222 550 -222 q 505 -210 515 -222 q 494 -179 494 -199 q 520 -88 494 -146 q 593 36 546 -31 q 607 94 607 54 l 607 467 q 544 671 607 601 q 335 740 482 740 q 83 593 154 740 q 76 567 76 579 q 106 533 76 546 l 156 510 q 182 501 172 501 q 213 529 197 501 q 335 599 247 599 q 422 571 397 599 q 447 474 447 543 l 447 418 q 400 423 429 421 q 340 425 371 425 q 122 373 189 425 q 54 206 54 321 q 120 33 54 86 q 335 -21 186 -21 q 461 -10 403 -21 q 383 -124 411 -67 q 356 -228 356 -181 q 481 -340 356 -340 m 325 113 q 238 136 263 113 q 214 206 214 160 q 239 275 214 251 q 328 299 264 299 q 447 292 350 299 l 447 143 q 445 130 447 133 q 436 124 443 126 q 325 113 397 113 "},"å":{"ha":686,"x_min":54,"x_max":607,"o":"m 335 -21 q 563 15 486 -21 q 598 43 589 28 q 607 94 607 58 l 607 467 q 544 671 607 601 q 335 740 482 740 q 83 593 154 740 q 76 567 76 579 q 106 533 76 546 l 156 510 q 179 503 169 503 q 213 529 199 503 q 335 599 247 599 q 422 571 397 599 q 447 474 447 543 l 447 418 q 399 423 429 421 q 338 425 368 425 q 120 374 186 425 q 54 206 54 322 q 121 33 54 88 q 335 -21 188 -21 m 325 113 q 241 135 268 113 q 214 206 214 157 q 242 276 214 253 q 328 299 269 299 q 397 296 357 299 q 447 293 436 293 l 447 143 q 445 130 447 133 q 436 124 443 126 q 325 113 397 113 m 339 782 q 444 823 403 782 q 485 928 485 864 q 444 1033 485 992 q 339 1075 403 1075 q 230 1034 272 1075 q 188 928 188 993 q 230 823 188 864 q 339 782 272 782 m 339 861 q 288 880 308 861 q 268 928 268 899 q 288 977 268 958 q 339 996 307 996 q 385 977 367 996 q 404 928 404 958 q 385 880 404 899 q 339 861 367 861 "},"ǻ":{"ha":686,"x_min":54,"x_max":607,"o":"m 246 1093 l 482 1182 q 503 1201 503 1189 q 490 1229 503 1211 l 457 1274 q 421 1293 443 1293 q 379 1281 404 1293 l 179 1169 q 163 1150 163 1161 q 175 1124 163 1140 l 193 1099 q 215 1086 201 1086 q 246 1093 225 1086 m 338 782 q 442 823 401 782 q 483 928 483 864 q 442 1034 483 993 q 338 1075 401 1075 q 230 1033 272 1075 q 188 928 188 992 q 230 823 188 864 q 338 782 272 782 m 338 861 q 288 880 307 861 q 268 928 268 899 q 288 977 268 958 q 338 996 307 996 q 385 977 367 996 q 403 928 403 958 q 385 880 403 899 q 338 861 367 861 m 335 -21 q 563 15 486 -21 q 598 43 589 28 q 607 94 607 58 l 607 467 q 544 671 607 601 q 335 740 482 740 q 83 593 154 740 q 76 567 76 579 q 106 533 76 546 l 156 510 q 179 503 169 503 q 213 529 199 503 q 335 599 247 599 q 422 571 397 599 q 447 474 447 543 l 447 418 q 399 423 429 421 q 338 425 368 425 q 120 374 186 425 q 54 206 54 322 q 121 33 54 88 q 335 -21 188 -21 m 325 113 q 241 135 268 113 q 214 206 214 157 q 242 276 214 253 q 328 299 269 299 q 397 296 357 299 q 447 293 436 293 l 447 143 q 445 130 447 133 q 436 124 443 126 q 325 113 397 113 "},"ã":{"ha":686,"x_min":54,"x_max":607,"o":"m 335 -21 q 563 15 486 -21 q 598 43 589 28 q 607 94 607 58 l 607 467 q 544 671 607 601 q 335 740 482 740 q 83 593 154 740 q 76 567 76 579 q 106 533 76 546 l 156 510 q 179 503 169 503 q 213 529 199 503 q 335 599 247 599 q 422 571 397 599 q 447 474 447 543 l 447 418 q 399 423 429 421 q 338 425 368 425 q 120 374 186 425 q 54 206 54 322 q 121 33 54 88 q 335 -21 188 -21 m 325 113 q 241 135 268 113 q 214 206 214 157 q 242 276 214 253 q 328 299 269 299 q 397 296 357 299 q 447 293 436 293 l 447 143 q 445 130 447 133 q 436 124 443 126 q 325 113 397 113 m 149 831 l 193 831 q 218 857 218 831 q 250 910 218 910 q 282 901 267 910 q 318 876 297 893 q 367 842 344 854 q 422 831 390 831 q 511 866 483 831 q 539 985 539 901 q 533 1006 539 1000 q 513 1013 526 1013 l 468 1013 q 447 1006 453 1013 q 442 985 442 1000 q 411 932 442 932 q 382 940 396 932 q 347 964 368 947 q 294 1000 318 988 q 235 1013 269 1013 q 149 976 178 1013 q 121 857 121 940 q 149 831 121 831 "},"æ":{"ha":1036,"x_min":54,"x_max":979,"o":"m 331 -21 q 453 -7 404 -21 q 544 32 503 7 q 610 -7 569 7 q 703 -21 650 -21 q 861 14 803 -21 q 958 115 919 49 q 968 146 968 131 q 940 182 968 167 l 899 206 q 868 217 879 217 q 852 210 860 217 q 835 189 844 204 q 782 135 813 153 q 703 118 751 118 q 613 153 643 118 q 582 257 582 189 l 582 308 l 919 308 q 979 368 979 308 l 979 454 q 913 663 979 585 q 704 740 847 740 q 515 656 582 740 q 442 719 486 697 q 333 740 399 740 q 78 596 149 740 q 69 568 69 579 q 100 535 69 544 l 146 515 q 172 508 164 508 q 188 514 181 508 q 203 535 194 519 q 329 597 238 597 q 410 567 388 597 q 433 478 433 538 l 433 421 q 393 425 424 422 q 336 428 363 428 q 119 376 185 428 q 54 203 54 324 q 118 31 54 83 q 331 -21 182 -21 m 825 432 l 582 432 l 582 467 q 704 604 582 604 q 796 570 767 604 q 825 467 825 536 l 825 432 m 319 113 q 233 135 256 113 q 211 204 211 157 q 234 274 211 251 q 322 296 257 296 q 385 293 349 296 q 433 289 422 290 l 433 211 q 435 143 433 165 q 394 122 422 132 q 319 113 365 113 "},"ǽ":{"ha":1036,"x_min":54,"x_max":979,"o":"m 331 -21 q 453 -7 404 -21 q 544 32 503 7 q 610 -7 569 7 q 703 -21 650 -21 q 861 14 803 -21 q 958 115 919 49 q 968 146 968 131 q 940 182 968 167 l 899 206 q 868 217 879 217 q 852 210 860 217 q 835 189 844 204 q 782 135 813 153 q 703 118 751 118 q 613 153 643 118 q 582 257 582 189 l 582 308 l 919 308 q 979 368 979 308 l 979 454 q 913 663 979 585 q 704 740 847 740 q 515 656 582 740 q 442 719 486 697 q 333 740 399 740 q 78 596 149 740 q 69 568 69 579 q 100 535 69 544 l 146 515 q 172 508 164 508 q 188 514 181 508 q 203 535 194 519 q 329 597 238 597 q 410 567 388 597 q 433 478 433 538 l 433 421 q 393 425 424 422 q 336 428 363 428 q 119 376 185 428 q 54 203 54 324 q 118 31 54 83 q 331 -21 182 -21 m 825 432 l 582 432 l 582 467 q 704 604 582 604 q 796 570 767 604 q 825 467 825 536 l 825 432 m 319 113 q 233 135 256 113 q 211 204 211 157 q 234 274 211 251 q 322 296 257 296 q 385 293 349 296 q 433 289 422 290 l 433 211 q 435 143 433 165 q 394 122 422 132 q 319 113 365 113 m 436 824 l 668 924 q 689 944 689 931 q 675 972 689 957 l 639 1015 q 604 1033 622 1033 q 560 1018 588 1033 l 365 896 q 349 876 349 888 q 363 850 349 868 l 382 825 q 403 814 390 814 q 436 824 411 814 "},"b":{"ha":724,"x_min":89,"x_max":656,"o":"m 363 -21 q 656 274 656 -21 l 656 461 q 588 669 656 597 q 385 740 521 740 q 250 717 321 740 l 250 985 q 241 1018 250 1008 q 210 1028 232 1028 l 128 1028 q 97 1019 106 1028 q 89 985 89 1010 l 89 100 q 97 53 89 67 q 135 24 106 39 q 233 -8 174 6 q 363 -21 293 -21 m 357 126 q 301 131 329 126 q 258 143 274 135 q 251 150 253 146 q 250 158 250 154 l 250 569 q 301 586 268 579 q 364 593 333 593 q 494 457 494 593 l 494 278 q 463 163 494 200 q 357 126 431 126 "},"c":{"ha":683,"x_min":67,"x_max":635,"o":"m 347 -21 q 528 26 460 -21 q 629 164 596 72 q 635 190 635 176 q 603 225 635 217 l 535 244 q 511 249 521 249 q 478 215 489 249 q 432 144 461 168 q 351 121 403 121 q 259 156 290 121 q 228 257 228 192 l 228 463 q 354 599 228 599 q 438 576 407 599 q 483 508 468 554 q 498 482 490 490 q 518 474 506 474 q 540 478 528 474 l 600 497 q 632 533 632 507 q 628 558 632 544 q 535 691 603 642 q 360 740 467 740 q 140 667 214 740 q 67 461 67 594 l 67 258 q 136 51 67 124 q 347 -21 206 -21 "},"ć":{"ha":683,"x_min":67,"x_max":635,"o":"m 347 -21 q 528 26 460 -21 q 629 164 596 72 q 635 190 635 176 q 603 225 635 217 l 535 244 q 511 249 521 249 q 478 215 489 249 q 432 144 461 168 q 351 121 403 121 q 259 156 290 121 q 228 257 228 192 l 228 463 q 354 599 228 599 q 438 576 407 599 q 483 508 468 554 q 498 482 490 490 q 518 474 506 474 q 540 478 528 474 l 600 497 q 632 533 632 507 q 628 558 632 544 q 535 691 603 642 q 360 740 467 740 q 140 667 214 740 q 67 461 67 594 l 67 258 q 136 51 67 124 q 347 -21 206 -21 m 275 824 l 507 924 q 528 944 528 931 q 514 972 528 957 l 478 1015 q 443 1033 461 1033 q 399 1018 426 1033 l 204 896 q 188 876 188 888 q 201 850 188 868 l 221 825 q 242 814 229 814 q 275 824 250 814 "},"č":{"ha":683,"x_min":67,"x_max":635,"o":"m 347 -21 q 528 26 460 -21 q 629 164 596 72 q 635 190 635 176 q 603 225 635 217 l 535 244 q 511 249 521 249 q 478 215 489 249 q 432 144 461 168 q 351 121 403 121 q 259 156 290 121 q 228 257 228 192 l 228 463 q 354 599 228 599 q 438 576 407 599 q 483 508 468 554 q 498 482 490 490 q 518 474 506 474 q 540 478 528 474 l 600 497 q 632 533 632 507 q 628 558 632 544 q 535 691 603 642 q 360 740 467 740 q 140 667 214 740 q 67 461 67 594 l 67 258 q 136 51 67 124 q 347 -21 206 -21 m 349 814 l 364 814 q 403 819 390 814 q 442 851 415 825 l 578 988 q 588 1007 588 997 q 557 1022 588 1022 l 494 1022 q 453 1018 467 1022 q 426 997 440 1014 l 351 918 l 274 997 q 247 1018 258 1014 q 208 1022 235 1022 l 150 1022 q 119 1007 119 1022 q 129 988 119 997 l 265 851 q 303 820 290 826 q 349 814 317 814 "},"ç":{"ha":683,"x_min":67,"x_max":635,"o":"m 331 -340 q 464 -306 411 -340 q 517 -190 517 -271 q 486 -110 517 -142 q 400 -79 456 -79 q 385 -81 390 -79 l 407 -15 q 547 40 493 -4 q 629 164 600 85 q 635 190 635 176 q 603 225 635 217 l 535 244 q 511 249 521 249 q 478 215 489 249 q 432 144 461 168 q 351 121 403 121 q 259 156 290 121 q 228 257 228 192 l 228 463 q 354 599 228 599 q 438 576 407 599 q 483 508 468 554 q 498 482 490 490 q 518 474 506 474 q 540 478 528 474 l 600 497 q 632 533 632 507 q 628 558 632 544 q 535 691 603 642 q 360 740 467 740 q 140 667 214 740 q 67 461 67 594 l 67 258 q 128 62 67 133 q 311 -19 189 -10 l 267 -126 q 263 -143 263 -137 q 286 -160 263 -160 q 324 -157 311 -157 q 374 -167 360 -157 q 388 -197 388 -176 q 310 -246 388 -246 q 267 -241 282 -246 q 231 -225 253 -236 q 210 -242 210 -212 l 211 -283 q 215 -307 211 -299 q 233 -322 219 -315 q 281 -335 251 -331 q 331 -340 311 -340 "},"ĉ":{"ha":683,"x_min":67,"x_max":635,"o":"m 347 -21 q 528 26 460 -21 q 629 164 596 72 q 635 190 635 176 q 603 225 635 217 l 535 244 q 511 249 521 249 q 478 215 489 249 q 432 144 461 168 q 351 121 403 121 q 259 156 290 121 q 228 257 228 192 l 228 463 q 354 599 228 599 q 438 576 407 599 q 483 508 468 554 q 498 482 490 490 q 518 474 506 474 q 540 478 528 474 l 600 497 q 632 533 632 507 q 628 558 632 544 q 535 691 603 642 q 360 740 467 740 q 140 667 214 740 q 67 461 67 594 l 67 258 q 136 51 67 124 q 347 -21 206 -21 m 156 817 l 213 817 q 251 820 240 817 q 279 840 263 824 l 357 919 l 432 840 q 459 821 446 825 q 500 817 472 817 l 563 817 q 593 832 593 817 q 583 851 593 842 l 447 988 q 410 1018 422 1013 q 371 1024 397 1024 l 354 1024 q 309 1018 322 1024 q 271 988 296 1013 l 135 851 q 125 832 125 842 q 156 817 125 817 "},"ċ":{"ha":683,"x_min":67,"x_max":635,"o":"m 347 -21 q 528 26 460 -21 q 629 164 596 72 q 635 190 635 176 q 603 225 635 217 l 535 244 q 511 249 521 249 q 478 215 489 249 q 432 144 461 168 q 351 121 403 121 q 259 156 290 121 q 228 257 228 192 l 228 463 q 354 599 228 599 q 438 576 407 599 q 483 508 468 554 q 498 482 490 490 q 518 474 506 474 q 540 478 528 474 l 600 497 q 632 533 632 507 q 628 558 632 544 q 535 691 603 642 q 360 740 467 740 q 140 667 214 740 q 67 461 67 594 l 67 258 q 136 51 67 124 q 347 -21 206 -21 m 328 831 l 383 831 q 432 846 419 831 q 444 906 444 861 l 444 926 q 431 985 444 969 q 383 1001 418 1001 l 328 1001 q 280 985 293 1001 q 267 926 267 969 l 267 906 q 279 846 267 861 q 328 831 292 831 "},"d":{"ha":724,"x_min":68,"x_max":635,"o":"m 361 -21 q 490 -8 431 -21 q 589 24 550 6 q 626 53 618 39 q 635 100 635 67 l 635 985 q 626 1019 635 1010 q 596 1028 618 1028 l 514 1028 q 483 1018 492 1028 q 474 985 474 1008 l 474 717 q 339 740 403 740 q 135 669 203 740 q 68 461 68 597 l 68 274 q 361 -21 68 -21 m 367 126 q 261 163 293 126 q 229 278 229 200 l 229 457 q 360 593 229 593 q 423 586 390 593 q 474 569 456 579 l 474 158 q 472 150 474 154 q 465 143 471 146 q 422 131 450 135 q 367 126 394 126 "},"ð":{"ha":725,"x_min":68,"x_max":653,"o":"m 361 -21 q 578 53 503 -21 q 653 261 653 128 l 653 553 q 627 778 653 686 q 546 926 601 871 l 586 976 q 594 992 594 985 q 585 1007 594 999 l 546 1040 q 531 1049 538 1049 q 517 1039 525 1049 l 469 982 q 199 1032 368 1032 q 167 1022 176 1032 q 158 989 158 1013 l 158 926 q 168 894 158 903 q 201 885 178 885 q 297 878 260 885 q 363 857 335 871 l 321 803 q 313 786 313 794 q 321 772 313 781 l 357 743 q 371 736 367 736 q 385 746 376 736 l 440 808 q 499 640 488 753 q 332 703 443 703 q 140 630 211 703 q 68 428 68 557 l 68 260 q 143 53 68 126 q 361 -21 218 -21 m 361 125 q 229 261 229 125 l 229 419 q 361 557 229 557 q 492 421 492 557 l 492 261 q 361 125 492 125 "},"ď":{"ha":832,"x_min":68,"x_max":910,"o":"m 361 -21 q 490 -8 431 -21 q 589 24 550 6 q 626 53 618 39 q 635 100 635 67 l 635 985 q 626 1019 635 1010 q 596 1028 618 1028 l 514 1028 q 483 1018 492 1028 q 474 985 474 1008 l 474 717 q 339 740 403 740 q 135 669 203 740 q 68 461 68 597 l 68 274 q 361 -21 68 -21 m 749 707 l 792 707 q 820 715 813 707 q 835 746 828 724 l 906 983 q 910 1003 910 994 q 868 1028 910 1028 l 806 1028 q 770 1019 781 1028 q 756 983 760 1010 l 722 736 q 726 713 721 718 q 749 707 731 707 m 367 126 q 261 163 293 126 q 229 278 229 200 l 229 457 q 360 593 229 593 q 423 586 390 593 q 474 569 456 579 l 474 158 q 472 150 474 154 q 465 143 471 146 q 422 131 450 135 q 367 126 394 126 "},"đ":{"ha":706,"x_min":68,"x_max":719,"o":"m 361 -21 q 490 -8 431 -21 q 589 24 550 6 q 626 53 618 39 q 635 100 635 67 l 635 826 l 692 826 q 713 833 707 826 q 719 857 719 839 l 719 897 q 713 920 719 914 q 692 926 707 926 l 635 926 l 635 985 q 626 1019 635 1010 q 596 1028 618 1028 l 514 1028 q 483 1018 492 1028 q 474 985 474 1008 l 474 926 l 319 926 q 297 920 304 926 q 290 897 290 914 l 290 857 q 297 833 290 839 q 319 826 303 826 l 474 826 l 474 717 q 339 740 403 740 q 135 669 203 740 q 68 461 68 597 l 68 274 q 361 -21 68 -21 m 367 126 q 261 163 293 126 q 229 278 229 200 l 229 457 q 360 593 229 593 q 423 586 390 593 q 474 569 456 579 l 474 158 q 472 150 474 154 q 465 143 471 146 q 422 131 450 135 q 367 126 394 126 "},"e":{"ha":700,"x_min":65,"x_max":643,"o":"m 354 -21 q 517 14 451 -21 q 617 113 582 49 q 626 143 626 128 q 599 182 626 165 l 547 210 q 519 219 532 219 q 488 192 501 219 q 438 137 468 156 q 356 118 407 118 q 258 153 292 118 q 225 257 225 189 l 225 308 l 585 308 q 630 324 617 308 q 643 368 643 339 l 643 453 q 570 660 643 579 q 356 740 497 740 q 140 663 215 740 q 65 440 65 585 l 65 276 q 137 60 65 140 q 354 -21 208 -21 m 485 432 l 225 432 l 225 463 q 258 567 225 531 q 356 604 290 604 q 485 463 485 604 l 485 432 "},"é":{"ha":700,"x_min":65,"x_max":643,"o":"m 354 -21 q 517 14 451 -21 q 617 113 582 49 q 626 143 626 128 q 599 182 626 165 l 547 210 q 519 219 532 219 q 488 192 501 219 q 438 137 468 156 q 356 118 407 118 q 258 153 292 118 q 225 257 225 189 l 225 308 l 585 308 q 630 324 617 308 q 643 368 643 339 l 643 453 q 570 660 643 579 q 356 740 497 740 q 140 663 215 740 q 65 440 65 585 l 65 276 q 137 60 65 140 q 354 -21 208 -21 m 485 432 l 225 432 l 225 463 q 258 567 225 531 q 356 604 290 604 q 485 463 485 604 l 485 432 m 274 824 l 506 924 q 526 944 526 931 q 513 972 526 957 l 476 1015 q 442 1033 460 1033 q 397 1018 425 1033 l 203 896 q 186 876 186 888 q 200 850 186 868 l 219 825 q 240 814 228 814 q 274 824 249 814 "},"ĕ":{"ha":700,"x_min":65,"x_max":643,"o":"m 354 -21 q 517 14 451 -21 q 617 113 582 49 q 626 143 626 128 q 599 182 626 165 l 547 210 q 519 219 532 219 q 488 192 501 219 q 438 137 468 156 q 356 118 407 118 q 258 153 292 118 q 225 257 225 189 l 225 308 l 585 308 q 630 324 617 308 q 643 368 643 339 l 643 453 q 570 660 643 579 q 356 740 497 740 q 140 663 215 740 q 65 440 65 585 l 65 276 q 137 60 65 140 q 354 -21 208 -21 m 485 432 l 225 432 l 225 463 q 258 567 225 531 q 356 604 290 604 q 485 463 485 604 l 485 432 m 356 818 q 489 855 433 818 q 567 960 544 892 q 569 976 569 974 q 565 990 569 985 q 547 1000 560 994 l 485 1022 q 471 1025 474 1025 q 449 1006 457 1025 q 413 952 438 971 q 356 933 389 933 q 299 952 322 933 q 264 1006 275 971 q 240 1024 254 1024 q 221 1021 228 1024 l 165 1000 q 143 975 143 992 q 146 960 143 971 q 224 855 168 892 q 356 818 279 818 "},"ě":{"ha":700,"x_min":65,"x_max":643,"o":"m 354 -21 q 517 14 451 -21 q 617 113 582 49 q 626 143 626 128 q 599 182 626 165 l 547 210 q 519 219 532 219 q 488 192 501 219 q 438 137 468 156 q 356 118 407 118 q 258 153 292 118 q 225 257 225 189 l 225 308 l 585 308 q 630 324 617 308 q 643 368 643 339 l 643 453 q 570 660 643 579 q 356 740 497 740 q 140 663 215 740 q 65 440 65 585 l 65 276 q 137 60 65 140 q 354 -21 208 -21 m 485 432 l 225 432 l 225 463 q 258 567 225 531 q 356 604 290 604 q 485 463 485 604 l 485 432 m 349 814 l 364 814 q 403 819 390 814 q 442 851 415 825 l 578 988 q 588 1007 588 997 q 557 1022 588 1022 l 494 1022 q 453 1018 467 1022 q 426 997 440 1014 l 351 918 l 274 997 q 247 1018 258 1014 q 208 1022 235 1022 l 150 1022 q 119 1007 119 1022 q 129 988 119 997 l 265 851 q 303 820 290 826 q 349 814 317 814 "},"ê":{"ha":700,"x_min":65,"x_max":643,"o":"m 354 -21 q 517 14 451 -21 q 617 113 582 49 q 626 143 626 128 q 599 182 626 165 l 547 210 q 519 219 532 219 q 488 192 501 219 q 438 137 468 156 q 356 118 407 118 q 258 153 292 118 q 225 257 225 189 l 225 308 l 585 308 q 630 324 617 308 q 643 368 643 339 l 643 453 q 570 660 643 579 q 356 740 497 740 q 140 663 215 740 q 65 440 65 585 l 65 276 q 137 60 65 140 q 354 -21 208 -21 m 485 432 l 225 432 l 225 463 q 258 567 225 531 q 356 604 290 604 q 485 463 485 604 l 485 432 m 154 817 l 211 817 q 250 820 239 817 q 278 840 261 824 l 356 919 l 431 840 q 458 821 444 825 q 499 817 471 817 l 561 817 q 592 832 592 817 q 582 851 592 842 l 446 988 q 408 1018 421 1013 q 369 1024 396 1024 l 353 1024 q 308 1018 321 1024 q 269 988 294 1013 l 133 851 q 124 832 124 842 q 154 817 124 817 "},"ë":{"ha":700,"x_min":65,"x_max":643,"o":"m 354 -21 q 517 14 451 -21 q 617 113 582 49 q 626 143 626 128 q 599 182 626 165 l 547 210 q 519 219 532 219 q 488 192 501 219 q 438 137 468 156 q 356 118 407 118 q 258 153 292 118 q 225 257 225 189 l 225 308 l 585 308 q 630 324 617 308 q 643 368 643 339 l 643 453 q 570 660 643 579 q 356 740 497 740 q 140 663 215 740 q 65 440 65 585 l 65 276 q 137 60 65 140 q 354 -21 208 -21 m 485 432 l 225 432 l 225 463 q 258 567 225 531 q 356 604 290 604 q 485 463 485 604 l 485 432 m 215 833 l 225 833 q 283 849 267 833 q 299 907 299 865 l 299 919 q 283 976 299 960 q 225 992 267 992 l 215 992 q 158 976 174 992 q 142 919 142 960 l 142 907 q 158 849 142 865 q 215 833 174 833 m 481 833 l 489 833 q 547 849 531 833 q 563 907 563 865 l 563 919 q 547 976 563 960 q 489 992 531 992 l 481 992 q 422 976 438 992 q 406 919 406 960 l 406 907 q 422 849 406 865 q 481 833 439 833 "},"ė":{"ha":700,"x_min":65,"x_max":643,"o":"m 354 -21 q 517 14 451 -21 q 617 113 582 49 q 626 143 626 128 q 599 182 626 165 l 547 210 q 519 219 532 219 q 488 192 501 219 q 438 137 468 156 q 356 118 407 118 q 258 153 292 118 q 225 257 225 189 l 225 308 l 585 308 q 630 324 617 308 q 643 368 643 339 l 643 453 q 570 660 643 579 q 356 740 497 740 q 140 663 215 740 q 65 440 65 585 l 65 276 q 137 60 65 140 q 354 -21 208 -21 m 485 432 l 225 432 l 225 463 q 258 567 225 531 q 356 604 290 604 q 485 463 485 604 l 485 432 m 328 831 l 383 831 q 432 846 419 831 q 444 906 444 861 l 444 926 q 431 985 444 969 q 383 1001 418 1001 l 328 1001 q 280 985 293 1001 q 267 926 267 969 l 267 906 q 279 846 267 861 q 328 831 292 831 "},"è":{"ha":700,"x_min":65,"x_max":643,"o":"m 354 -21 q 517 14 451 -21 q 617 113 582 49 q 626 143 626 128 q 599 182 626 165 l 547 210 q 519 219 532 219 q 488 192 501 219 q 438 137 468 156 q 356 118 407 118 q 258 153 292 118 q 225 257 225 189 l 225 308 l 585 308 q 630 324 617 308 q 643 368 643 339 l 643 453 q 570 660 643 579 q 356 740 497 740 q 140 663 215 740 q 65 440 65 585 l 65 276 q 137 60 65 140 q 354 -21 208 -21 m 485 432 l 225 432 l 225 463 q 258 567 225 531 q 356 604 290 604 q 485 463 485 604 l 485 432 m 211 924 l 443 822 q 475 814 468 814 q 497 825 486 814 l 517 850 q 531 876 531 868 q 514 896 531 888 l 318 1018 q 275 1033 293 1033 q 240 1015 254 1033 l 204 972 q 190 944 190 957 q 211 924 190 931 "},"ē":{"ha":700,"x_min":65,"x_max":643,"o":"m 354 -21 q 517 14 451 -21 q 617 113 582 49 q 626 143 626 128 q 599 182 626 165 l 547 210 q 519 219 532 219 q 488 192 501 219 q 438 137 468 156 q 356 118 407 118 q 258 153 292 118 q 225 257 225 189 l 225 308 l 585 308 q 630 324 617 308 q 643 368 643 339 l 643 453 q 570 660 643 579 q 356 740 497 740 q 140 663 215 740 q 65 440 65 585 l 65 276 q 137 60 65 140 q 354 -21 208 -21 m 485 432 l 225 432 l 225 463 q 258 567 225 531 q 356 604 290 604 q 485 463 485 604 l 485 432 m 197 857 l 515 857 q 547 865 539 857 q 556 897 556 874 l 556 932 q 547 964 556 956 q 515 972 539 972 l 197 972 q 166 964 175 972 q 157 932 157 956 l 157 897 q 165 865 157 874 q 197 857 174 857 "},"ę":{"ha":700,"x_min":65,"x_max":643,"o":"m 464 -340 q 534 -328 500 -340 q 593 -292 568 -315 q 599 -278 599 -286 q 594 -262 599 -271 l 575 -217 q 560 -204 569 -204 q 549 -208 556 -204 q 514 -222 533 -222 q 488 -212 499 -222 q 476 -181 476 -201 q 507 -76 476 -146 q 597 82 538 -7 q 617 113 607 93 q 626 143 626 128 q 599 182 626 165 l 547 210 q 519 219 532 219 q 488 192 501 219 q 438 137 468 156 q 356 118 407 118 q 258 153 292 118 q 225 257 225 189 l 225 308 l 585 308 q 630 324 617 308 q 643 368 643 339 l 643 453 q 570 660 643 579 q 356 740 497 740 q 140 663 215 740 q 65 440 65 585 l 65 276 q 137 60 65 140 q 354 -21 208 -21 q 444 -10 403 -21 q 365 -123 393 -65 q 338 -231 338 -181 q 372 -315 338 -289 q 464 -340 407 -340 m 485 432 l 225 432 l 225 463 q 258 567 225 531 q 356 604 290 604 q 485 463 485 604 l 485 432 "},"f":{"ha":464,"x_min":24,"x_max":444,"o":"m 168 0 l 249 0 q 280 10 271 0 q 289 43 289 19 l 289 571 l 403 571 q 433 581 425 571 q 442 614 442 590 l 442 678 q 433 710 442 701 q 403 719 425 719 l 289 719 l 289 733 q 314 845 289 813 q 404 878 339 878 q 435 888 426 878 q 444 922 444 897 l 444 983 q 435 1018 444 1008 q 404 1028 426 1028 l 388 1028 q 194 951 260 1025 q 128 733 128 876 l 128 719 l 63 719 q 32 710 40 719 q 24 678 24 701 l 24 614 q 32 581 24 590 q 63 571 40 571 l 128 571 l 128 43 q 137 10 128 19 q 168 0 146 0 "},"g":{"ha":722,"x_min":68,"x_max":633,"o":"m 354 -326 q 633 -31 633 -326 l 633 617 q 625 668 633 651 q 588 700 617 685 q 492 728 553 717 q 358 740 431 740 q 68 449 68 740 l 68 286 q 335 13 68 13 q 408 19 371 13 q 472 36 446 26 l 472 -39 q 444 -148 472 -114 q 351 -182 415 -182 q 228 -111 265 -182 q 194 -85 213 -85 q 167 -94 186 -85 l 107 -126 q 82 -161 82 -142 q 93 -193 82 -176 q 354 -326 169 -326 m 356 160 q 258 192 286 160 q 229 296 229 224 l 229 443 q 260 560 229 526 q 365 593 290 593 q 461 578 425 593 q 470 572 468 575 q 472 561 472 568 l 472 178 q 356 160 428 160 "},"ğ":{"ha":722,"x_min":68,"x_max":633,"o":"m 354 -326 q 633 -31 633 -326 l 633 617 q 625 668 633 651 q 588 700 617 685 q 492 728 553 717 q 358 740 431 740 q 68 449 68 740 l 68 286 q 335 13 68 13 q 408 19 371 13 q 472 36 446 26 l 472 -39 q 444 -148 472 -114 q 351 -182 415 -182 q 228 -111 265 -182 q 194 -85 213 -85 q 167 -94 186 -85 l 107 -126 q 82 -161 82 -142 q 93 -193 82 -176 q 354 -326 169 -326 m 356 160 q 258 192 286 160 q 229 296 229 224 l 229 443 q 260 560 229 526 q 365 593 290 593 q 461 578 425 593 q 470 572 468 575 q 472 561 472 568 l 472 178 q 356 160 428 160 m 369 818 q 503 855 447 818 q 581 960 558 892 q 583 976 583 974 q 578 990 583 985 q 561 1000 574 994 l 499 1022 q 485 1025 488 1025 q 463 1006 471 1025 q 427 952 451 971 q 369 933 403 933 q 313 952 336 933 q 278 1006 289 971 q 254 1024 268 1024 q 235 1021 242 1024 l 179 1000 q 157 975 157 992 q 160 960 157 971 q 238 855 182 892 q 369 818 293 818 "},"ĝ":{"ha":722,"x_min":68,"x_max":633,"o":"m 354 -326 q 633 -31 633 -326 l 633 617 q 625 668 633 651 q 588 700 617 685 q 492 728 553 717 q 358 740 431 740 q 68 449 68 740 l 68 286 q 335 13 68 13 q 408 19 371 13 q 472 36 446 26 l 472 -39 q 444 -148 472 -114 q 351 -182 415 -182 q 228 -111 265 -182 q 194 -85 213 -85 q 167 -94 186 -85 l 107 -126 q 82 -161 82 -142 q 93 -193 82 -176 q 354 -326 169 -326 m 356 160 q 258 192 286 160 q 229 296 229 224 l 229 443 q 260 560 229 526 q 365 593 290 593 q 461 578 425 593 q 470 572 468 575 q 472 561 472 568 l 472 178 q 356 160 428 160 m 168 817 l 225 817 q 264 820 253 817 q 292 840 275 824 l 369 919 l 444 840 q 472 821 458 825 q 513 817 485 817 l 575 817 q 606 832 606 817 q 596 851 606 842 l 460 988 q 422 1018 435 1013 q 383 1024 410 1024 l 367 1024 q 322 1018 335 1024 q 283 988 308 1013 l 147 851 q 138 832 138 842 q 168 817 138 817 "},"ģ":{"ha":722,"x_min":68,"x_max":633,"o":"m 333 807 l 393 807 q 434 817 422 807 q 450 856 446 826 l 476 1006 q 473 1031 479 1025 q 446 1038 467 1038 l 406 1038 q 370 1030 381 1038 q 351 999 360 1022 l 296 857 q 292 835 292 844 q 333 807 292 807 m 354 -326 q 633 -31 633 -326 l 633 617 q 625 668 633 651 q 588 700 617 685 q 492 728 553 717 q 358 740 431 740 q 68 449 68 740 l 68 286 q 335 13 68 13 q 408 19 371 13 q 472 36 446 26 l 472 -39 q 444 -148 472 -114 q 351 -182 415 -182 q 228 -111 265 -182 q 194 -85 213 -85 q 167 -94 186 -85 l 107 -126 q 82 -161 82 -142 q 93 -193 82 -176 q 354 -326 169 -326 m 356 160 q 258 192 286 160 q 229 296 229 224 l 229 443 q 260 560 229 526 q 365 593 290 593 q 461 578 425 593 q 470 572 468 575 q 472 561 472 568 l 472 178 q 356 160 428 160 "},"ġ":{"ha":722,"x_min":68,"x_max":633,"o":"m 354 -326 q 633 -31 633 -326 l 633 617 q 625 668 633 651 q 588 700 617 685 q 492 728 553 717 q 358 740 431 740 q 68 449 68 740 l 68 286 q 335 13 68 13 q 408 19 371 13 q 472 36 446 26 l 472 -39 q 444 -148 472 -114 q 351 -182 415 -182 q 228 -111 265 -182 q 194 -85 213 -85 q 167 -94 186 -85 l 107 -126 q 82 -161 82 -142 q 93 -193 82 -176 q 354 -326 169 -326 m 356 160 q 258 192 286 160 q 229 296 229 224 l 229 443 q 260 560 229 526 q 365 593 290 593 q 461 578 425 593 q 470 572 468 575 q 472 561 472 568 l 472 178 q 356 160 428 160 m 340 831 l 396 831 q 444 846 432 831 q 457 906 457 861 l 457 926 q 444 985 457 969 q 396 1001 431 1001 l 340 1001 q 292 985 306 1001 q 279 926 279 969 l 279 906 q 292 846 279 861 q 340 831 304 831 "},"h":{"ha":736,"x_min":92,"x_max":651,"o":"m 131 0 l 213 0 q 244 10 235 0 q 253 43 253 19 l 253 575 q 297 588 265 582 q 367 593 328 593 q 460 560 431 593 q 490 457 490 528 l 490 43 q 499 10 490 19 q 529 0 507 0 l 613 0 q 643 10 635 0 q 651 43 651 19 l 651 468 q 389 740 651 740 q 305 734 342 740 q 253 721 268 728 l 253 985 q 244 1018 253 1008 q 213 1028 235 1028 l 131 1028 q 100 1018 108 1028 q 92 985 92 1008 l 92 43 q 100 10 92 19 q 131 0 108 0 "},"ħ":{"ha":736,"x_min":18,"x_max":651,"o":"m 131 0 l 213 0 q 244 10 235 0 q 253 43 253 19 l 253 575 q 296 588 264 582 q 367 593 328 593 q 460 560 431 593 q 490 457 490 528 l 490 43 q 499 10 490 19 q 529 0 507 0 l 613 0 q 643 10 635 0 q 651 43 651 19 l 651 468 q 389 740 651 740 q 305 734 342 740 q 253 721 268 728 l 253 835 l 414 835 q 436 841 431 835 q 442 865 442 847 l 442 901 q 436 924 442 918 q 414 931 431 931 l 253 931 l 253 985 q 244 1018 253 1008 q 213 1028 235 1028 l 131 1028 q 100 1019 108 1028 q 92 985 92 1010 l 92 931 l 46 931 q 24 924 31 931 q 18 901 18 918 l 18 865 q 24 841 18 847 q 46 835 29 835 l 92 835 l 92 43 q 100 9 92 18 q 131 0 108 0 "},"ĥ":{"ha":736,"x_min":-56,"x_max":651,"o":"m 131 0 l 213 0 q 244 10 235 0 q 253 43 253 19 l 253 575 q 297 588 265 582 q 367 593 328 593 q 460 560 431 593 q 490 457 490 528 l 490 43 q 499 10 490 19 q 529 0 507 0 l 613 0 q 643 10 635 0 q 651 43 651 19 l 651 468 q 389 740 651 740 q 305 734 342 740 q 253 721 268 728 l 253 985 q 244 1018 253 1008 q 213 1028 235 1028 l 131 1028 q 100 1018 108 1028 q 92 985 92 1008 l 92 43 q 100 10 92 19 q 131 0 108 0 m -25 1075 l 33 1075 q 72 1079 61 1075 q 99 1100 83 1083 l 178 1179 l 251 1100 q 279 1080 265 1085 q 319 1075 293 1075 l 382 1075 q 413 1090 413 1075 q 403 1110 413 1100 l 267 1246 q 228 1278 242 1272 q 190 1283 215 1283 l 174 1283 q 130 1277 143 1283 q 92 1246 117 1271 l -44 1110 q -56 1090 -56 1099 q -25 1075 -56 1075 "},"i":{"ha":342,"x_min":81,"x_max":260,"o":"m 143 831 l 197 831 q 247 846 233 831 q 260 906 260 861 l 260 926 q 247 985 260 969 q 197 1001 233 1001 l 143 1001 q 94 985 107 1001 q 81 926 81 969 l 81 906 q 94 846 81 861 q 143 831 107 831 m 133 0 l 208 0 q 242 10 232 0 q 251 43 251 19 l 251 678 q 242 710 251 701 q 208 719 232 719 l 133 719 q 100 710 110 719 q 90 678 90 701 l 90 43 q 100 10 90 19 q 133 0 110 0 "},"ı":{"ha":342,"x_min":90,"x_max":251,"o":"m 133 0 l 208 0 q 242 10 232 0 q 251 43 251 19 l 251 678 q 242 710 251 701 q 208 719 232 719 l 133 719 q 100 710 110 719 q 90 678 90 701 l 90 43 q 100 10 90 19 q 133 0 110 0 "},"í":{"ha":342,"x_min":1,"x_max":342,"o":"m 133 0 l 208 0 q 242 10 232 0 q 251 43 251 19 l 251 678 q 242 710 251 701 q 208 719 232 719 l 133 719 q 100 710 110 719 q 90 678 90 701 l 90 43 q 100 10 90 19 q 133 0 110 0 m 89 824 l 321 924 q 342 944 342 931 q 328 972 342 957 l 292 1015 q 257 1033 275 1033 q 213 1018 240 1033 l 18 896 q 1 876 1 888 q 15 850 1 868 l 35 825 q 56 814 43 814 q 89 824 64 814 "},"ĭ":{"ha":342,"x_min":-22,"x_max":365,"o":"m 171 815 q 292 852 243 815 q 363 956 342 889 q 365 972 365 969 q 360 985 365 981 q 344 996 356 990 l 281 1018 q 267 1021 269 1021 q 244 1001 253 1021 q 217 950 235 965 q 171 935 200 935 q 124 950 142 935 q 97 1001 107 965 q 74 1019 90 1019 q 54 1017 61 1019 l -1 996 q -22 972 -22 989 l -19 956 q 49 852 0 889 q 171 815 99 815 m 133 0 l 208 0 q 242 10 232 0 q 251 43 251 19 l 251 678 q 242 710 251 701 q 208 719 232 719 l 133 719 q 100 710 110 719 q 90 678 90 701 l 90 43 q 100 10 90 19 q 133 0 110 0 "},"î":{"ha":342,"x_min":-33,"x_max":374,"o":"m -3 815 l 50 815 q 92 818 82 815 q 115 838 103 821 l 169 914 l 221 838 q 244 819 231 822 q 288 815 257 815 l 343 815 q 374 829 374 815 q 364 849 374 836 l 257 979 q 223 1010 236 1006 q 181 1015 210 1015 l 165 1015 q 119 1010 132 1015 q 85 979 106 1006 l -24 849 q -33 829 -33 836 q -3 815 -33 815 m 133 0 l 208 0 q 242 10 232 0 q 251 43 251 19 l 251 678 q 242 710 251 701 q 208 719 232 719 l 133 719 q 100 710 110 719 q 90 678 90 701 l 90 43 q 100 10 90 19 q 133 0 110 0 "},"ï":{"ha":342,"x_min":-25,"x_max":365,"o":"m 47 828 l 57 828 q 115 844 99 828 q 131 900 131 860 l 131 913 q 115 969 131 953 q 57 985 99 985 l 47 985 q -10 969 6 985 q -25 913 -25 953 l -25 900 q -10 844 -25 860 q 47 828 6 828 m 285 828 l 293 828 q 350 844 335 828 q 365 900 365 860 l 365 913 q 350 969 365 953 q 293 985 335 985 l 285 985 q 227 969 243 985 q 211 913 211 953 l 211 900 q 227 844 211 860 q 285 828 243 828 m 133 0 l 208 0 q 242 10 232 0 q 251 43 251 19 l 251 678 q 242 710 251 701 q 208 719 232 719 l 133 719 q 100 710 110 719 q 90 678 90 701 l 90 43 q 100 10 90 19 q 133 0 110 0 "},"ì":{"ha":342,"x_min":4,"x_max":344,"o":"m 133 0 l 208 0 q 242 10 232 0 q 251 43 251 19 l 251 678 q 242 710 251 701 q 208 719 232 719 l 133 719 q 100 710 110 719 q 90 678 90 701 l 90 43 q 100 10 90 19 q 133 0 110 0 m 25 924 l 257 822 q 289 814 282 814 q 311 825 300 814 l 331 850 q 344 876 344 868 q 328 896 344 888 l 132 1018 q 89 1033 107 1033 q 54 1015 68 1033 l 18 972 q 4 944 4 957 q 25 924 4 931 "},"ĳ":{"ha":653,"x_min":81,"x_max":579,"o":"m 143 831 l 197 831 q 247 846 233 831 q 260 906 260 861 l 260 926 q 247 985 260 969 q 197 1001 233 1001 l 143 1001 q 94 985 107 1001 q 81 926 81 969 l 81 906 q 94 846 81 861 q 143 831 107 831 m 133 0 l 208 0 q 242 10 232 0 q 251 43 251 19 l 251 678 q 242 710 251 701 q 208 719 232 719 l 133 719 q 100 710 110 719 q 90 678 90 701 l 90 43 q 100 10 90 19 q 133 0 110 0 "},"ī":{"ha":342,"x_min":33,"x_max":307,"o":"m 74 850 l 267 850 q 299 858 290 850 q 307 890 307 867 l 307 925 q 299 957 307 949 q 267 965 290 965 l 74 965 q 42 957 51 965 q 33 925 33 949 l 33 890 q 42 858 33 867 q 74 850 50 850 m 133 0 l 208 0 q 242 10 232 0 q 251 43 251 19 l 251 678 q 242 710 251 701 q 208 719 232 719 l 133 719 q 100 710 110 719 q 90 678 90 701 l 90 43 q 100 10 90 19 q 133 0 110 0 "},"į":{"ha":342,"x_min":46,"x_max":297,"o":"m 165 836 l 176 836 q 242 854 224 836 q 260 919 260 872 l 260 932 q 242 999 260 981 q 176 1017 224 1017 l 165 1017 q 99 999 118 1017 q 81 932 81 981 l 81 919 q 99 854 81 872 q 165 836 117 836 m 171 -340 q 292 -290 243 -340 q 297 -276 297 -285 q 293 -261 297 -269 l 276 -217 q 263 -206 272 -206 q 250 -210 257 -206 q 221 -222 239 -222 q 199 -214 208 -222 q 186 -192 189 -206 q 185 -167 185 -185 q 243 10 185 -85 q 251 43 251 21 l 251 678 q 242 710 251 701 q 208 719 232 719 l 133 719 q 100 710 110 719 q 90 678 90 701 l 90 43 q 99 10 90 19 q 129 0 107 0 q 67 -110 89 -53 q 46 -219 46 -168 q 49 -253 46 -231 q 88 -319 56 -299 q 171 -340 121 -340 "},"ĩ":{"ha":342,"x_min":-8,"x_max":336,"o":"m 14 832 l 57 832 q 78 860 78 832 q 85 897 78 888 q 107 906 93 906 q 126 901 117 906 q 146 887 136 896 q 158 875 156 878 q 195 843 178 854 q 239 832 213 832 q 313 867 289 832 q 336 989 336 901 q 332 1009 336 1003 q 315 1015 328 1015 l 275 1015 q 258 1010 263 1015 q 254 989 254 1004 q 225 938 254 938 q 201 945 211 938 q 175 969 190 953 q 136 1003 154 992 q 90 1015 118 1015 q 17 981 42 1015 q -8 860 -8 946 q 14 832 -8 832 m 133 0 l 208 0 q 242 10 232 0 q 251 43 251 19 l 251 678 q 242 710 251 701 q 208 719 232 719 l 133 719 q 100 710 110 719 q 90 678 90 701 l 90 43 q 100 10 90 19 q 133 0 110 0 "},"j":{"ha":333,"x_min":-49,"x_max":260,"o":"m -11 -319 q 153 -284 97 -319 q 228 -184 210 -249 q 247 -11 247 -119 l 247 678 q 240 710 247 701 q 211 719 232 719 l 125 719 q 94 710 103 719 q 86 678 86 701 l 86 -7 q 81 -101 86 -69 q 56 -151 76 -132 q -11 -169 35 -169 q -40 -179 -32 -169 q -49 -214 -49 -189 l -49 -275 q -40 -310 -49 -300 q -11 -319 -32 -319 m 143 831 l 199 831 q 247 846 235 831 q 260 906 260 861 l 260 926 q 247 985 260 969 q 199 1001 233 1001 l 143 1001 q 95 985 108 1001 q 82 926 82 969 l 82 906 q 94 846 82 861 q 143 831 107 831 "},"ȷ":{"ha":333,"x_min":-49,"x_max":247,"o":"m -11 -319 q 153 -284 97 -319 q 228 -184 210 -249 q 247 -11 247 -119 l 247 678 q 240 710 247 701 q 211 719 232 719 l 125 719 q 94 710 103 719 q 86 678 86 701 l 86 -7 q 81 -101 86 -69 q 56 -151 76 -132 q -11 -169 35 -169 q -40 -179 -32 -169 q -49 -214 -49 -189 l -49 -275 q -40 -310 -49 -300 q -11 -319 -32 -319 "},"ĵ":{"ha":333,"x_min":-50,"x_max":396,"o":"m -19 813 l 36 813 q 74 816 63 813 q 101 835 85 819 l 172 914 l 239 835 q 265 817 251 821 q 306 813 278 813 l 365 813 q 396 826 396 813 q 386 846 396 836 l 260 979 q 222 1010 235 1004 q 183 1015 208 1015 l 168 1015 q 124 1010 138 1015 q 86 979 111 1004 l -40 846 q -50 826 -50 833 q -19 813 -50 813 m -11 -319 q 153 -284 97 -319 q 228 -184 210 -249 q 247 -11 247 -119 l 247 678 q 240 710 247 701 q 211 719 232 719 l 125 719 q 94 710 103 719 q 86 678 86 701 l 86 -7 q 81 -101 86 -69 q 56 -151 76 -132 q -11 -169 35 -169 q -40 -179 -32 -169 q -49 -214 -49 -189 l -49 -275 q -40 -310 -49 -300 q -11 -319 -32 -319 "},"k":{"ha":689,"x_min":92,"x_max":657,"o":"m 131 0 l 213 0 q 244 10 235 0 q 253 44 253 19 l 253 292 l 331 292 q 375 276 358 292 q 407 224 392 261 l 481 39 q 504 7 490 14 q 553 0 518 0 l 618 0 q 648 5 639 0 q 657 22 657 10 q 649 51 657 33 l 546 296 q 510 366 526 339 q 471 410 493 393 l 638 669 q 647 697 647 685 q 608 719 647 719 l 540 719 q 492 715 506 719 q 468 688 479 710 l 325 442 l 318 442 l 253 442 l 253 983 q 244 1018 253 1008 q 213 1028 235 1028 l 131 1028 q 100 1018 108 1028 q 92 983 92 1008 l 92 44 q 100 10 92 19 q 131 0 108 0 "},"ķ":{"ha":689,"x_min":92,"x_max":657,"o":"m 131 0 l 213 0 q 244 10 235 0 q 253 44 253 19 l 253 292 l 331 292 q 375 276 358 292 q 407 224 392 261 l 481 39 q 504 7 490 14 q 553 0 518 0 l 618 0 q 648 5 639 0 q 657 22 657 10 q 649 51 657 33 l 546 296 q 510 366 526 339 q 471 410 493 393 l 638 669 q 647 697 647 685 q 608 719 647 719 l 540 719 q 492 715 506 719 q 468 688 479 710 l 325 442 l 318 442 l 253 442 l 253 983 q 244 1018 253 1008 q 213 1028 235 1028 l 131 1028 q 100 1018 108 1028 q 92 983 92 1008 l 92 44 q 100 10 92 19 q 131 0 108 0 m 256 -357 l 308 -357 q 340 -348 329 -357 q 357 -317 350 -339 l 422 -129 q 425 -111 425 -122 q 415 -91 425 -97 q 381 -85 404 -85 l 308 -85 q 271 -94 282 -85 q 257 -129 260 -103 l 229 -326 q 232 -351 226 -344 q 256 -357 238 -357 "},"ĸ":{"ha":663,"x_min":90,"x_max":632,"o":"m 129 0 l 213 0 q 243 10 235 0 q 251 44 251 19 l 251 197 l 336 296 l 463 36 q 484 6 475 11 q 526 0 493 0 l 593 0 q 632 24 632 0 q 624 51 632 35 l 438 414 l 617 669 q 629 699 629 686 q 593 719 629 719 l 514 719 q 473 714 483 719 q 447 685 463 708 l 251 399 l 251 676 q 243 710 251 701 q 213 719 235 719 l 129 719 q 99 710 107 719 q 90 676 90 701 l 90 44 q 99 10 90 19 q 129 0 107 0 "},"l":{"ha":350,"x_min":94,"x_max":256,"o":"m 125 0 l 225 0 q 249 10 242 0 q 256 43 256 19 l 256 985 q 249 1018 256 1008 q 225 1028 242 1028 l 125 1028 q 101 1018 107 1028 q 94 985 94 1008 l 94 43 q 101 10 94 19 q 125 0 107 0 "},"ĺ":{"ha":350,"x_min":6,"x_max":346,"o":"m 125 0 l 225 0 q 249 10 242 0 q 256 43 256 19 l 256 985 q 249 1018 256 1008 q 225 1028 242 1028 l 125 1028 q 101 1018 107 1028 q 94 985 94 1008 l 94 43 q 101 10 94 19 q 125 0 107 0 m 92 1056 l 325 1157 q 346 1178 346 1165 q 331 1206 346 1188 l 294 1249 q 260 1267 281 1267 q 217 1251 242 1267 l 22 1129 q 6 1110 6 1119 q 19 1083 6 1101 l 39 1058 q 60 1047 47 1047 q 76 1051 65 1047 q 92 1056 86 1054 "},"ľ":{"ha":356,"x_min":93,"x_max":521,"o":"m 124 0 l 224 0 q 247 10 240 0 q 254 43 254 19 l 254 985 q 247 1018 254 1008 q 224 1028 240 1028 l 124 1028 q 99 1018 106 1028 q 93 985 93 1008 l 93 43 q 99 10 93 19 q 124 0 106 0 m 361 744 l 399 744 q 429 752 419 744 q 447 782 439 760 l 517 983 q 521 1003 521 994 q 478 1028 521 1028 l 413 1028 q 376 1019 386 1028 q 363 983 365 1010 l 335 774 q 338 750 333 756 q 361 744 343 744 "},"ļ":{"ha":350,"x_min":57,"x_max":256,"o":"m 125 0 l 225 0 q 249 10 242 0 q 256 43 256 19 l 256 985 q 249 1018 256 1008 q 225 1028 242 1028 l 125 1028 q 101 1018 107 1028 q 94 985 94 1008 l 94 43 q 101 10 94 19 q 125 0 107 0 m 86 -357 l 139 -357 q 170 -348 160 -357 q 188 -317 181 -339 l 253 -129 q 256 -111 256 -122 q 245 -91 256 -97 q 211 -85 235 -85 l 139 -85 q 101 -94 113 -85 q 88 -129 90 -103 l 60 -326 q 63 -351 57 -344 q 86 -357 68 -357 "},"ŀ":{"ha":551,"x_min":94,"x_max":528,"o":"m 125 0 l 225 0 q 249 10 242 0 q 256 43 256 19 l 256 985 q 249 1018 256 1008 q 225 1028 242 1028 l 125 1028 q 101 1018 107 1028 q 94 985 94 1008 l 94 43 q 101 10 94 19 q 125 0 107 0 m 436 435 l 446 435 q 510 453 492 435 q 528 518 528 471 l 528 529 q 510 594 528 576 q 446 611 492 611 l 436 611 q 371 594 389 611 q 353 529 353 576 l 353 518 q 371 453 353 471 q 436 435 389 435 "},"ł":{"ha":454,"x_min":19,"x_max":436,"o":"m 186 0 l 263 0 q 295 10 286 0 q 304 43 304 19 l 304 496 l 419 560 q 436 583 436 568 q 431 601 436 592 l 404 651 q 382 669 394 669 q 357 660 374 669 l 304 629 l 304 985 q 295 1018 304 1008 q 263 1028 286 1028 l 186 1028 q 153 1018 163 1028 q 143 985 143 1008 l 143 543 l 38 483 q 19 460 19 472 q 25 442 19 456 l 53 394 q 76 376 63 376 q 100 383 83 376 l 143 408 l 143 43 q 153 10 143 19 q 186 0 163 0 "},"m":{"ha":1118,"x_min":89,"x_max":1033,"o":"m 129 0 l 208 0 q 241 10 232 0 q 250 43 250 19 l 250 560 q 260 576 250 572 q 360 593 301 593 q 453 561 425 593 q 482 461 482 529 l 482 43 q 490 9 482 18 q 522 0 499 0 l 601 0 q 633 10 624 0 q 642 43 642 19 l 642 467 q 631 567 642 528 q 749 593 689 593 q 843 560 814 593 q 872 458 872 526 l 872 43 q 881 10 872 19 q 914 0 890 0 l 992 0 q 1024 10 1015 0 q 1033 43 1033 19 l 1033 463 q 771 740 1033 740 q 647 728 699 740 q 549 694 596 715 q 382 740 486 740 q 246 727 301 740 q 139 693 190 714 q 99 663 108 679 q 89 614 89 647 l 89 43 q 98 10 89 19 q 129 0 107 0 "},"n":{"ha":733,"x_min":89,"x_max":649,"o":"m 128 0 l 210 0 q 241 10 232 0 q 250 43 250 19 l 250 561 q 258 575 250 569 q 306 588 276 582 q 364 593 336 593 q 455 559 422 593 q 488 457 488 525 l 488 43 q 496 10 488 19 q 526 0 504 0 l 610 0 q 640 10 632 0 q 649 43 649 19 l 649 461 q 584 668 649 596 q 386 740 519 740 q 136 693 246 740 q 98 663 107 679 q 89 614 89 647 l 89 43 q 97 10 89 19 q 128 0 106 0 "},"ń":{"ha":733,"x_min":89,"x_max":649,"o":"m 128 0 l 210 0 q 241 10 232 0 q 250 43 250 19 l 250 561 q 258 575 250 569 q 306 588 276 582 q 364 593 336 593 q 455 559 422 593 q 488 457 488 525 l 488 43 q 496 10 488 19 q 526 0 504 0 l 610 0 q 640 10 632 0 q 649 43 649 19 l 649 461 q 584 668 649 596 q 386 740 519 740 q 136 693 246 740 q 98 663 107 679 q 89 614 89 647 l 89 43 q 97 10 89 19 q 128 0 106 0 m 285 824 l 517 924 q 538 944 538 931 q 524 972 538 957 l 488 1015 q 453 1033 471 1033 q 408 1018 436 1033 l 214 896 q 197 876 197 888 q 211 850 197 868 l 231 825 q 251 814 239 814 q 285 824 260 814 "},"ŉ":{"ha":733,"x_min":50,"x_max":649,"o":"m 75 756 l 113 756 q 142 761 133 756 q 164 785 151 767 l 275 982 q 283 1006 283 994 q 247 1025 283 1025 l 169 1025 q 136 1017 146 1025 q 119 988 126 1010 l 53 785 q 50 769 50 774 q 75 756 50 756 m 128 0 l 210 0 q 241 10 232 0 q 250 43 250 19 l 250 561 q 258 575 250 569 q 306 588 276 582 q 364 593 336 593 q 455 559 422 593 q 488 457 488 525 l 488 43 q 496 10 488 19 q 526 0 504 0 l 610 0 q 640 10 632 0 q 649 43 649 19 l 649 461 q 584 668 649 596 q 386 740 519 740 q 136 693 246 740 q 98 663 107 679 q 89 614 89 647 l 89 43 q 97 10 89 19 q 128 0 106 0 "},"ň":{"ha":733,"x_min":89,"x_max":649,"o":"m 128 0 l 210 0 q 241 10 232 0 q 250 43 250 19 l 250 561 q 258 575 250 569 q 306 588 276 582 q 364 593 336 593 q 455 559 422 593 q 488 457 488 525 l 488 43 q 496 10 488 19 q 526 0 504 0 l 610 0 q 640 10 632 0 q 649 43 649 19 l 649 461 q 584 668 649 596 q 386 740 519 740 q 136 693 246 740 q 98 663 107 679 q 89 614 89 647 l 89 43 q 97 10 89 19 q 128 0 106 0 m 358 814 l 374 814 q 413 819 400 814 q 451 851 425 825 l 588 988 q 597 1007 597 997 q 567 1022 597 1022 l 504 1022 q 463 1018 476 1022 q 436 997 450 1014 l 361 918 l 283 997 q 256 1018 268 1014 q 218 1022 244 1022 l 160 1022 q 129 1007 129 1022 q 139 988 129 997 l 275 851 q 313 820 300 826 q 358 814 326 814 "},"ņ":{"ha":733,"x_min":89,"x_max":649,"o":"m 128 0 l 210 0 q 241 10 232 0 q 250 43 250 19 l 250 561 q 258 575 250 569 q 306 588 276 582 q 364 593 336 593 q 455 559 422 593 q 488 457 488 525 l 488 43 q 496 10 488 19 q 526 0 504 0 l 610 0 q 640 10 632 0 q 649 43 649 19 l 649 461 q 584 668 649 596 q 386 740 519 740 q 136 693 246 740 q 98 663 107 679 q 89 614 89 647 l 89 43 q 97 10 89 19 q 128 0 106 0 m 278 -357 l 331 -357 q 362 -348 351 -357 q 379 -317 372 -339 l 444 -129 q 447 -111 447 -122 q 437 -91 447 -97 q 403 -85 426 -85 l 331 -85 q 293 -94 304 -85 q 279 -129 282 -103 l 251 -326 q 254 -351 249 -344 q 278 -357 260 -357 "},"ŋ":{"ha":733,"x_min":89,"x_max":649,"o":"m 369 -319 q 585 -246 521 -319 q 649 -25 649 -172 l 649 461 q 584 668 649 596 q 386 740 519 740 q 136 693 246 740 q 98 663 107 679 q 89 614 89 647 l 89 43 q 97 10 89 19 q 128 0 106 0 l 210 0 q 241 10 232 0 q 250 43 250 19 l 250 561 q 258 575 250 569 q 306 588 276 582 q 364 593 336 593 q 455 559 422 593 q 488 457 488 525 l 488 -21 q 481 -110 488 -79 q 448 -159 474 -142 q 369 -176 422 -176 q 337 -185 346 -176 q 328 -218 328 -194 l 328 -278 q 337 -310 328 -301 q 369 -319 346 -319 "},"ñ":{"ha":733,"x_min":89,"x_max":649,"o":"m 128 0 l 210 0 q 241 10 232 0 q 250 43 250 19 l 250 561 q 258 575 250 569 q 306 588 276 582 q 364 593 336 593 q 455 559 422 593 q 488 457 488 525 l 488 43 q 496 10 488 19 q 526 0 504 0 l 610 0 q 640 10 632 0 q 649 43 649 19 l 649 461 q 584 668 649 596 q 386 740 519 740 q 136 693 246 740 q 98 663 107 679 q 89 614 89 647 l 89 43 q 97 10 89 19 q 128 0 106 0 m 179 831 l 224 831 q 249 857 249 831 q 281 910 249 910 q 313 901 297 910 q 349 876 328 893 q 398 842 375 854 q 453 831 421 831 q 542 866 514 831 q 569 985 569 901 q 563 1006 569 1000 q 543 1013 557 1013 l 499 1013 q 478 1006 483 1013 q 472 985 472 1000 q 442 932 472 932 q 413 940 426 932 q 378 964 399 947 q 324 1000 349 988 q 265 1013 300 1013 q 180 976 208 1013 q 151 857 151 940 q 179 831 151 831 "},"o":{"ha":719,"x_min":68,"x_max":651,"o":"m 358 -21 q 576 53 500 -21 q 651 257 651 126 l 651 463 q 576 667 651 593 q 358 740 500 740 q 144 667 219 740 q 68 463 68 593 l 68 257 q 144 53 68 126 q 358 -21 219 -21 m 358 125 q 263 160 297 125 q 229 257 229 194 l 229 463 q 263 560 229 526 q 358 594 297 594 q 456 560 422 594 q 490 463 490 526 l 490 257 q 456 160 490 194 q 358 125 422 125 "},"ó":{"ha":719,"x_min":68,"x_max":651,"o":"m 358 -21 q 576 53 500 -21 q 651 257 651 126 l 651 463 q 576 667 651 593 q 358 740 500 740 q 144 667 219 740 q 68 463 68 593 l 68 257 q 144 53 68 126 q 358 -21 219 -21 m 358 125 q 263 160 297 125 q 229 257 229 194 l 229 463 q 263 560 229 526 q 358 594 297 594 q 456 560 422 594 q 490 463 490 526 l 490 257 q 456 160 490 194 q 358 125 422 125 m 276 824 l 508 924 q 529 944 529 931 q 515 972 529 957 l 479 1015 q 444 1033 463 1033 q 400 1018 428 1033 l 206 896 q 189 876 189 888 q 203 850 189 868 l 222 825 q 243 814 231 814 q 276 824 251 814 "},"ŏ":{"ha":719,"x_min":68,"x_max":651,"o":"m 358 -21 q 576 53 500 -21 q 651 257 651 126 l 651 463 q 576 667 651 593 q 358 740 500 740 q 144 667 219 740 q 68 463 68 593 l 68 257 q 144 53 68 126 q 358 -21 219 -21 m 358 125 q 263 160 297 125 q 229 257 229 194 l 229 463 q 263 560 229 526 q 358 594 297 594 q 456 560 422 594 q 490 463 490 526 l 490 257 q 456 160 490 194 q 358 125 422 125 m 358 818 q 492 855 436 818 q 569 960 547 892 q 572 976 572 974 q 567 990 572 985 q 550 1000 563 994 l 488 1022 q 474 1025 476 1025 q 451 1006 460 1025 q 416 952 440 971 q 358 933 392 933 q 301 952 325 933 q 267 1006 278 971 q 243 1024 257 1024 q 224 1021 231 1024 l 168 1000 q 146 975 146 992 q 149 960 146 971 q 226 855 171 892 q 358 818 282 818 "},"ô":{"ha":719,"x_min":68,"x_max":651,"o":"m 358 -21 q 576 53 500 -21 q 651 257 651 126 l 651 463 q 576 667 651 593 q 358 740 500 740 q 144 667 219 740 q 68 463 68 593 l 68 257 q 144 53 68 126 q 358 -21 219 -21 m 358 125 q 263 160 297 125 q 229 257 229 194 l 229 463 q 263 560 229 526 q 358 594 297 594 q 456 560 422 594 q 490 463 490 526 l 490 257 q 456 160 490 194 q 358 125 422 125 m 157 817 l 214 817 q 253 820 242 817 q 281 840 264 824 l 358 919 l 433 840 q 460 821 447 825 q 501 817 474 817 l 564 817 q 594 832 594 817 q 585 851 594 842 l 449 988 q 411 1018 424 1013 q 372 1024 399 1024 l 356 1024 q 310 1018 324 1024 q 272 988 297 1013 l 136 851 q 126 832 126 842 q 157 817 126 817 "},"ö":{"ha":719,"x_min":68,"x_max":651,"o":"m 358 -21 q 576 53 500 -21 q 651 257 651 126 l 651 463 q 576 667 651 593 q 358 740 500 740 q 144 667 219 740 q 68 463 68 593 l 68 257 q 144 53 68 126 q 358 -21 219 -21 m 358 125 q 263 160 297 125 q 229 257 229 194 l 229 463 q 263 560 229 526 q 358 594 297 594 q 456 560 422 594 q 490 463 490 526 l 490 257 q 456 160 490 194 q 358 125 422 125 m 218 833 l 228 833 q 285 849 269 833 q 301 907 301 865 l 301 919 q 285 976 301 960 q 228 992 269 992 l 218 992 q 160 976 176 992 q 144 919 144 960 l 144 907 q 160 849 144 865 q 218 833 176 833 m 483 833 l 492 833 q 549 849 533 833 q 565 907 565 865 l 565 919 q 549 976 565 960 q 492 992 533 992 l 483 992 q 424 976 440 992 q 408 919 408 960 l 408 907 q 425 849 408 865 q 483 833 442 833 "},"ò":{"ha":719,"x_min":68,"x_max":651,"o":"m 358 -21 q 576 53 500 -21 q 651 257 651 126 l 651 463 q 576 667 651 593 q 358 740 500 740 q 144 667 219 740 q 68 463 68 593 l 68 257 q 144 53 68 126 q 358 -21 219 -21 m 358 125 q 263 160 297 125 q 229 257 229 194 l 229 463 q 263 560 229 526 q 358 594 297 594 q 456 560 422 594 q 490 463 490 526 l 490 257 q 456 160 490 194 q 358 125 422 125 m 214 924 l 446 822 q 478 814 471 814 q 500 825 489 814 l 519 850 q 533 876 533 868 q 517 896 533 888 l 321 1018 q 278 1033 296 1033 q 243 1015 257 1033 l 207 972 q 193 944 193 957 q 214 924 193 931 "},"ő":{"ha":719,"x_min":68,"x_max":651,"o":"m 358 -21 q 576 53 500 -21 q 651 257 651 126 l 651 463 q 576 667 651 593 q 358 740 500 740 q 144 667 219 740 q 68 463 68 593 l 68 257 q 144 53 68 126 q 358 -21 219 -21 m 358 125 q 263 160 297 125 q 229 257 229 194 l 229 463 q 263 560 229 526 q 358 594 297 594 q 456 560 422 594 q 490 463 490 526 l 490 257 q 456 160 490 194 q 358 125 422 125 m 174 819 l 196 813 q 210 810 207 810 q 227 815 218 810 q 247 831 236 821 l 385 957 q 397 982 397 972 q 371 1006 397 996 l 324 1022 q 303 1025 317 1025 q 251 993 272 1025 l 160 863 q 150 840 150 849 q 174 819 150 828 m 393 814 l 417 807 q 432 803 425 803 q 443 806 438 803 q 456 815 449 808 q 467 824 464 821 l 618 957 q 632 979 632 969 q 604 1004 632 993 l 554 1021 q 533 1024 546 1024 q 481 993 504 1024 l 379 857 q 369 835 369 843 q 393 814 369 822 "},"ō":{"ha":719,"x_min":68,"x_max":651,"o":"m 358 -21 q 576 53 500 -21 q 651 257 651 126 l 651 463 q 576 667 651 593 q 358 740 500 740 q 144 667 219 740 q 68 463 68 593 l 68 257 q 144 53 68 126 q 358 -21 219 -21 m 358 125 q 263 160 297 125 q 229 257 229 194 l 229 463 q 263 560 229 526 q 358 594 297 594 q 456 560 422 594 q 490 463 490 526 l 490 257 q 456 160 490 194 q 358 125 422 125 m 200 857 l 518 857 q 550 865 542 857 q 558 897 558 874 l 558 932 q 550 964 558 956 q 518 972 542 972 l 200 972 q 169 964 178 972 q 160 932 160 956 l 160 897 q 168 865 160 874 q 200 857 176 857 "},"ø":{"ha":719,"x_min":68,"x_max":651,"o":"m 90 -49 l 151 -49 q 170 -47 165 -49 q 182 -36 175 -44 l 208 10 q 358 -21 272 -21 q 576 53 500 -21 q 651 257 651 126 l 651 463 q 586 657 651 583 l 640 751 q 643 763 644 758 q 633 767 642 767 l 569 767 q 552 764 557 767 q 542 753 547 761 l 515 708 q 358 740 451 740 q 144 667 219 740 q 68 463 68 593 l 68 257 q 138 60 68 132 l 83 -31 q 81 -43 79 -37 q 90 -49 82 -49 m 439 574 l 239 235 q 229 285 229 256 l 229 463 q 263 560 229 526 q 358 594 297 594 q 439 574 407 594 m 358 125 q 285 143 317 125 l 482 478 q 490 425 490 456 l 490 257 q 456 160 490 194 q 358 125 422 125 "},"ǿ":{"ha":719,"x_min":68,"x_max":651,"o":"m 90 -49 l 151 -49 q 170 -47 165 -49 q 182 -36 175 -44 l 208 10 q 358 -21 272 -21 q 576 53 500 -21 q 651 257 651 126 l 651 463 q 586 657 651 583 l 640 751 q 643 763 644 758 q 633 767 642 767 l 569 767 q 552 764 557 767 q 542 753 547 761 l 515 708 q 358 740 451 740 q 144 667 219 740 q 68 463 68 593 l 68 257 q 138 60 68 132 l 83 -31 q 81 -43 79 -37 q 90 -49 82 -49 m 439 574 l 239 235 q 229 285 229 256 l 229 463 q 263 560 229 526 q 358 594 297 594 q 439 574 407 594 m 358 125 q 285 143 317 125 l 482 478 q 490 425 490 456 l 490 257 q 456 160 490 194 q 358 125 422 125 m 278 824 l 510 924 q 531 944 531 931 q 517 972 531 957 l 481 1015 q 446 1033 464 1033 q 401 1018 429 1033 l 207 896 q 190 876 190 888 q 204 850 190 868 l 224 825 q 244 814 232 814 q 278 824 253 814 "},"õ":{"ha":719,"x_min":68,"x_max":651,"o":"m 358 -21 q 576 53 500 -21 q 651 257 651 126 l 651 463 q 576 667 651 593 q 358 740 500 740 q 144 667 219 740 q 68 463 68 593 l 68 257 q 144 53 68 126 q 358 -21 219 -21 m 358 125 q 263 160 297 125 q 229 257 229 194 l 229 463 q 263 560 229 526 q 358 594 297 594 q 456 560 422 594 q 490 463 490 526 l 490 257 q 456 160 490 194 q 358 125 422 125 m 171 831 l 215 831 q 240 857 240 831 q 272 910 240 910 q 304 901 289 910 q 340 876 319 893 q 390 842 367 854 q 444 831 413 831 q 533 866 506 831 q 561 985 561 901 q 555 1006 561 1000 q 535 1013 549 1013 l 490 1013 q 469 1006 475 1013 q 464 985 464 1000 q 433 932 464 932 q 404 940 418 932 q 369 964 390 947 q 316 1000 340 988 q 257 1013 292 1013 q 172 976 200 1013 q 143 857 143 940 q 171 831 143 831 "},"œ":{"ha":1075,"x_min":68,"x_max":1018,"o":"m 350 -21 q 469 3 418 -21 q 547 71 519 26 q 629 2 582 25 q 744 -21 676 -21 q 903 14 844 -21 q 1000 115 961 49 q 1011 149 1011 135 q 983 185 1011 172 l 933 208 q 903 218 911 218 q 885 212 893 218 q 868 192 878 206 q 819 137 847 154 q 746 119 792 119 q 622 257 622 119 l 622 308 l 957 308 q 1018 368 1018 308 l 1018 454 q 953 663 1018 585 q 746 740 889 740 q 547 649 621 740 q 467 716 518 692 q 350 740 417 740 q 142 667 215 740 q 68 463 68 593 l 68 256 q 142 53 68 126 q 350 -21 215 -21 m 868 432 l 622 432 l 622 463 q 746 603 622 603 q 868 463 868 603 l 868 432 m 350 121 q 258 157 290 121 q 226 257 226 193 l 226 463 q 258 562 226 526 q 350 597 290 597 q 440 562 410 597 q 471 463 471 526 l 471 257 q 440 157 471 193 q 350 121 408 121 "},"p":{"ha":724,"x_min":89,"x_max":654,"o":"m 128 -306 l 210 -306 q 241 -296 232 -306 q 250 -262 250 -286 l 250 4 q 386 -21 319 -21 q 588 51 522 -21 q 654 258 654 124 l 654 449 q 363 740 654 740 q 233 727 293 740 q 135 696 172 714 q 97 667 106 681 q 89 619 89 653 l 89 -262 q 97 -297 89 -287 q 128 -306 106 -306 m 367 126 q 250 150 313 126 l 250 561 q 251 569 250 565 q 258 576 253 574 q 301 589 274 585 q 357 593 329 593 q 462 558 431 593 q 493 444 493 522 l 493 263 q 367 126 493 126 "},"þ":{"ha":718,"x_min":89,"x_max":650,"o":"m 128 -306 l 211 -306 q 242 -296 233 -306 q 250 -262 250 -286 l 250 4 q 374 -21 321 -21 q 581 53 511 -21 q 650 269 650 128 l 650 460 q 583 668 650 596 q 381 740 515 740 q 250 724 317 740 l 250 985 q 242 1018 250 1008 q 211 1028 233 1028 l 128 1028 q 97 1018 106 1028 q 89 985 89 1008 l 89 -262 q 97 -296 89 -286 q 128 -306 106 -306 m 361 126 q 299 133 332 126 q 250 147 267 140 l 250 572 q 364 593 308 593 q 489 456 489 593 l 489 275 q 458 163 489 199 q 361 126 428 126 "},"q":{"ha":724,"x_min":68,"x_max":635,"o":"m 513 -306 l 596 -306 q 626 -296 618 -306 q 635 -262 635 -286 l 635 619 q 626 667 635 653 q 589 696 618 681 q 490 728 550 715 q 360 740 431 740 q 68 449 68 740 l 68 258 q 134 51 68 124 q 336 -21 200 -21 q 409 -13 371 -21 q 474 4 447 -6 l 474 -262 q 482 -296 474 -286 q 513 -306 490 -306 m 357 126 q 260 161 290 126 q 229 263 229 196 l 229 444 q 261 558 229 522 q 367 593 293 593 q 422 589 393 593 q 465 576 450 585 q 474 561 474 571 l 474 150 q 357 126 411 126 "},"r":{"ha":493,"x_min":89,"x_max":471,"o":"m 125 0 l 213 0 q 242 10 233 0 q 250 43 250 19 l 250 538 q 261 558 250 551 q 360 574 301 574 l 433 574 q 463 583 454 574 q 471 615 471 592 l 471 682 q 463 711 471 703 q 433 719 454 719 l 368 719 q 135 683 221 719 q 98 656 107 672 q 89 604 89 639 l 89 43 q 97 10 89 19 q 125 0 106 0 "},"ŕ":{"ha":493,"x_min":75,"x_max":471,"o":"m 125 0 l 213 0 q 242 10 233 0 q 250 43 250 19 l 250 538 q 261 558 250 551 q 360 574 301 574 l 433 574 q 463 583 454 574 q 471 615 471 592 l 471 682 q 463 711 471 703 q 433 719 454 719 l 368 719 q 135 683 221 719 q 98 656 107 672 q 89 604 89 639 l 89 43 q 97 10 89 19 q 125 0 106 0 m 163 824 l 394 924 q 415 944 415 931 q 401 972 415 957 l 365 1015 q 331 1033 349 1033 q 286 1018 314 1033 l 92 896 q 75 876 75 888 q 89 850 75 868 l 108 825 q 129 814 117 814 q 163 824 138 814 "},"ř":{"ha":493,"x_min":7,"x_max":475,"o":"m 125 0 l 213 0 q 242 10 233 0 q 250 43 250 19 l 250 538 q 261 558 250 551 q 360 574 301 574 l 433 574 q 463 583 454 574 q 471 615 471 592 l 471 682 q 463 711 471 703 q 433 719 454 719 l 368 719 q 135 683 221 719 q 98 656 107 672 q 89 604 89 639 l 89 43 q 97 10 89 19 q 125 0 106 0 m 236 814 l 251 814 q 290 819 278 814 q 329 851 303 825 l 465 988 q 475 1007 475 997 q 444 1022 475 1022 l 382 1022 q 341 1018 354 1022 q 314 997 328 1014 l 239 918 l 161 997 q 134 1018 146 1014 q 96 1022 122 1022 l 38 1022 q 7 1007 7 1022 q 17 988 7 997 l 153 851 q 191 820 178 826 q 236 814 204 814 "},"ŗ":{"ha":493,"x_min":60,"x_max":471,"o":"m 125 0 l 213 0 q 242 10 233 0 q 250 43 250 19 l 250 538 q 261 558 250 551 q 360 574 301 574 l 433 574 q 463 583 454 574 q 471 615 471 592 l 471 682 q 463 711 471 703 q 433 719 454 719 l 368 719 q 135 683 221 719 q 98 656 107 672 q 89 604 89 639 l 89 43 q 97 10 89 19 q 125 0 106 0 m 89 -357 l 142 -357 q 173 -348 163 -357 q 190 -317 183 -339 l 256 -129 q 258 -111 258 -122 q 248 -91 258 -97 q 214 -85 238 -85 l 142 -85 q 104 -94 115 -85 q 90 -129 93 -103 l 63 -326 q 65 -351 60 -344 q 89 -357 71 -357 "},"s":{"ha":667,"x_min":53,"x_max":615,"o":"m 336 -21 q 543 41 471 -21 q 615 207 615 103 q 549 368 615 318 q 357 431 482 418 q 253 456 282 439 q 224 519 224 472 q 251 576 224 556 q 333 597 279 597 q 413 578 383 597 q 458 526 443 560 q 472 506 465 511 q 488 500 478 500 q 513 506 497 500 l 575 529 q 603 563 603 539 q 596 592 603 574 q 501 701 564 664 q 333 739 439 739 q 135 679 207 739 q 64 519 64 619 q 98 390 64 438 q 187 324 132 343 q 319 296 242 304 q 426 269 396 288 q 456 204 456 250 q 336 122 456 122 q 256 140 288 122 q 211 199 225 158 q 197 222 204 215 q 181 229 190 229 q 158 225 171 229 l 82 203 q 53 169 53 194 q 58 146 53 163 q 157 19 89 60 q 336 -21 225 -21 "},"ś":{"ha":667,"x_min":53,"x_max":615,"o":"m 336 -21 q 543 41 471 -21 q 615 207 615 103 q 549 368 615 318 q 357 431 482 418 q 253 456 282 439 q 224 519 224 472 q 251 576 224 556 q 333 597 279 597 q 413 578 383 597 q 458 526 443 560 q 472 506 465 511 q 488 500 478 500 q 513 506 497 500 l 575 529 q 603 563 603 539 q 596 592 603 574 q 501 701 564 664 q 333 739 439 739 q 135 679 207 739 q 64 519 64 619 q 98 390 64 438 q 187 324 132 343 q 319 296 242 304 q 426 269 396 288 q 456 204 456 250 q 336 122 456 122 q 256 140 288 122 q 211 199 225 158 q 197 222 204 215 q 181 229 190 229 q 158 225 171 229 l 82 203 q 53 169 53 194 q 58 146 53 163 q 157 19 89 60 q 336 -21 225 -21 m 251 824 l 483 924 q 504 944 504 931 q 490 972 504 957 l 454 1015 q 419 1033 438 1033 q 375 1018 403 1033 l 181 896 q 164 876 164 888 q 178 850 164 868 l 197 825 q 218 814 206 814 q 251 824 226 814 "},"š":{"ha":667,"x_min":53,"x_max":615,"o":"m 336 -21 q 543 41 471 -21 q 615 207 615 103 q 549 368 615 318 q 357 431 482 418 q 253 456 282 439 q 224 519 224 472 q 251 576 224 556 q 333 597 279 597 q 413 578 383 597 q 458 526 443 560 q 472 506 465 511 q 488 500 478 500 q 513 506 497 500 l 575 529 q 603 563 603 539 q 596 592 603 574 q 501 701 564 664 q 333 739 439 739 q 135 679 207 739 q 64 519 64 619 q 98 390 64 438 q 187 324 132 343 q 319 296 242 304 q 426 269 396 288 q 456 204 456 250 q 336 122 456 122 q 256 140 288 122 q 211 199 225 158 q 197 222 204 215 q 181 229 190 229 q 158 225 171 229 l 82 203 q 53 169 53 194 q 58 146 53 163 q 157 19 89 60 q 336 -21 225 -21 m 325 814 l 340 814 q 379 819 367 814 q 418 851 392 825 l 554 988 q 564 1007 564 997 q 533 1022 564 1022 l 471 1022 q 430 1018 443 1022 q 403 997 417 1014 l 328 918 l 250 997 q 223 1018 235 1014 q 185 1022 211 1022 l 126 1022 q 96 1007 96 1022 q 106 988 96 997 l 242 851 q 280 820 267 826 q 325 814 293 814 "},"ş":{"ha":667,"x_min":53,"x_max":615,"o":"m 318 -339 q 441 -309 392 -339 q 497 -208 490 -279 q 469 -122 503 -157 q 383 -86 436 -86 l 367 -87 l 390 -15 q 556 57 497 -3 q 615 207 615 117 q 549 368 615 318 q 357 431 482 418 q 253 456 282 439 q 224 519 224 472 q 251 576 224 556 q 333 597 279 597 q 413 578 383 597 q 458 526 443 560 q 472 506 465 511 q 488 500 478 500 q 513 506 497 500 l 575 529 q 603 563 603 539 q 596 592 603 574 q 501 701 564 664 q 333 739 439 739 q 135 679 207 739 q 64 519 64 619 q 98 390 64 438 q 187 324 132 343 q 319 296 242 304 q 426 269 396 288 q 456 204 456 250 q 336 122 456 122 q 256 140 288 122 q 211 199 225 158 q 197 222 204 215 q 181 229 190 229 q 158 225 171 229 l 82 203 q 53 169 53 194 q 58 146 53 163 q 144 26 86 65 q 297 -19 201 -14 l 256 -131 q 251 -149 251 -142 q 269 -162 251 -162 l 274 -162 l 306 -161 q 361 -200 361 -162 q 297 -249 361 -249 q 256 -244 271 -249 q 219 -228 242 -239 q 200 -243 200 -217 l 200 -285 q 205 -307 200 -299 q 222 -322 210 -315 q 269 -335 240 -331 q 318 -339 297 -339 "},"ŝ":{"ha":667,"x_min":53,"x_max":615,"o":"m 336 -21 q 543 41 471 -21 q 615 207 615 103 q 549 368 615 318 q 357 431 482 418 q 253 456 282 439 q 224 519 224 472 q 251 576 224 556 q 333 597 279 597 q 413 578 383 597 q 458 526 443 560 q 472 506 465 511 q 488 500 478 500 q 513 506 497 500 l 575 529 q 603 563 603 539 q 596 592 603 574 q 501 701 564 664 q 333 739 439 739 q 135 679 207 739 q 64 519 64 619 q 98 390 64 438 q 187 324 132 343 q 319 296 242 304 q 426 269 396 288 q 456 204 456 250 q 336 122 456 122 q 256 140 288 122 q 211 199 225 158 q 197 222 204 215 q 181 229 190 229 q 158 225 171 229 l 82 203 q 53 169 53 194 q 58 146 53 163 q 157 19 89 60 q 336 -21 225 -21 m 132 817 l 189 817 q 228 820 217 817 q 256 840 239 824 l 333 919 l 408 840 q 435 821 422 825 q 476 817 449 817 l 539 817 q 569 832 569 817 q 560 851 569 842 l 424 988 q 386 1018 399 1013 q 347 1024 374 1024 l 331 1024 q 285 1018 299 1024 q 247 988 272 1013 l 111 851 q 101 832 101 842 q 132 817 101 817 "},"ș":{"ha":667,"x_min":53,"x_max":615,"o":"m 336 -21 q 543 41 471 -21 q 615 207 615 103 q 549 368 615 318 q 357 431 482 418 q 253 456 282 439 q 224 519 224 472 q 251 576 224 556 q 333 597 279 597 q 413 578 383 597 q 458 526 443 560 q 472 506 465 511 q 488 500 478 500 q 513 506 497 500 l 575 529 q 603 563 603 539 q 596 592 603 574 q 501 701 564 664 q 333 739 439 739 q 135 679 207 739 q 64 519 64 619 q 98 390 64 438 q 187 324 132 343 q 319 296 242 304 q 426 269 396 288 q 456 204 456 250 q 336 122 456 122 q 256 140 288 122 q 211 199 225 158 q 197 222 204 215 q 181 229 190 229 q 158 225 171 229 l 82 203 q 53 169 53 194 q 58 146 53 163 q 157 19 89 60 q 336 -21 225 -21 m 244 -357 l 297 -357 q 328 -348 318 -357 q 346 -317 339 -339 l 411 -129 q 414 -111 414 -122 q 403 -91 414 -97 q 369 -85 393 -85 l 297 -85 q 260 -94 271 -85 q 246 -129 249 -103 l 218 -326 q 221 -351 215 -344 q 244 -357 226 -357 "},"ß":{"ha":735,"x_min":92,"x_max":676,"o":"m 133 0 l 211 0 q 244 10 235 0 q 253 47 253 21 l 253 738 q 371 886 253 886 q 489 740 489 886 q 461 644 489 681 q 381 607 433 607 l 349 607 q 322 597 329 607 q 314 560 314 586 l 314 497 q 323 460 314 469 q 356 450 332 450 l 392 450 q 485 413 454 450 q 517 307 517 375 q 484 199 517 236 q 389 163 451 163 l 354 163 q 322 152 331 163 q 314 115 314 142 l 314 47 q 322 10 314 21 q 354 0 331 0 l 413 0 q 606 75 536 0 q 676 286 676 150 q 550 540 676 482 l 550 544 q 619 631 597 576 q 642 757 642 686 q 575 967 642 892 q 371 1042 508 1042 q 161 967 231 1042 q 92 736 92 892 l 92 47 q 101 10 92 21 q 133 0 110 0 "},"ſ":{"ha":364,"x_min":26,"x_max":446,"o":"m 169 0 l 250 0 q 281 10 272 0 q 290 43 290 19 l 290 736 q 316 846 290 814 q 406 878 342 878 q 437 888 428 878 q 446 922 446 897 l 446 983 q 437 1018 446 1008 q 406 1028 428 1028 q 196 958 263 1028 q 129 744 129 889 l 129 719 l 67 719 q 35 710 43 719 q 26 678 26 701 l 26 614 q 35 581 26 590 q 67 571 44 571 l 129 571 l 129 43 q 138 10 129 19 q 169 0 147 0 "},"t":{"ha":493,"x_min":22,"x_max":456,"o":"m 415 0 q 447 11 438 1 q 456 44 456 21 l 456 117 q 447 146 456 138 q 415 153 438 154 q 342 158 365 151 q 308 192 319 165 q 297 282 297 219 l 297 571 l 417 571 q 447 581 439 571 q 456 614 456 590 l 456 678 q 447 710 456 701 q 417 719 439 719 l 297 719 l 297 844 q 289 877 297 868 q 257 886 281 886 l 175 886 q 144 877 153 886 q 136 844 136 868 l 136 719 l 61 719 q 31 710 39 719 q 22 678 22 701 l 22 614 q 31 581 22 590 q 61 571 39 571 l 136 571 l 136 274 q 165 94 136 154 q 252 15 193 35 q 415 0 311 -4 "},"ŧ":{"ha":493,"x_min":22,"x_max":456,"o":"m 415 0 q 447 11 438 1 q 456 44 456 21 l 456 117 q 447 146 456 138 q 415 153 438 154 q 342 158 365 151 q 308 192 319 165 q 297 282 297 219 l 297 328 l 399 328 q 421 334 415 328 q 426 357 426 340 l 426 408 q 420 431 426 425 q 399 438 414 438 l 297 438 l 297 571 l 417 571 q 447 581 439 571 q 456 614 456 590 l 456 678 q 447 710 456 701 q 417 719 439 719 l 297 719 l 297 844 q 289 877 297 868 q 257 886 281 886 l 175 886 q 144 877 153 886 q 136 844 136 868 l 136 719 l 61 719 q 31 710 39 719 q 22 678 22 701 l 22 614 q 31 581 22 590 q 61 571 39 571 l 136 571 l 136 438 l 71 438 q 49 431 56 438 q 43 408 43 425 l 43 357 q 49 334 43 340 q 71 328 56 328 l 136 328 l 136 274 q 165 94 136 154 q 252 15 193 35 q 415 0 311 -4 "},"ť":{"ha":493,"x_min":22,"x_max":575,"o":"m 424 771 l 463 771 q 492 779 482 771 q 510 810 501 788 l 571 983 q 575 1003 575 994 q 533 1028 575 1028 l 467 1028 q 429 1019 440 1028 q 417 983 418 1010 l 397 800 q 401 776 396 782 q 424 771 406 771 m 415 0 q 447 11 438 1 q 456 44 456 21 l 456 117 q 447 146 456 138 q 415 153 438 154 q 342 158 365 151 q 308 192 319 165 q 297 282 297 219 l 297 571 l 417 571 q 447 581 439 571 q 456 614 456 590 l 456 678 q 447 710 456 701 q 417 719 439 719 l 297 719 l 297 844 q 289 877 297 868 q 257 886 281 886 l 175 886 q 144 877 153 886 q 136 844 136 868 l 136 719 l 61 719 q 31 710 39 719 q 22 678 22 701 l 22 614 q 31 581 22 590 q 61 571 39 571 l 136 571 l 136 274 q 165 94 136 154 q 252 15 193 35 q 415 0 311 -4 "},"ţ":{"ha":493,"x_min":22,"x_max":476,"o":"m 357 -78 l 342 -79 l 371 -1 l 415 0 q 447 11 438 1 q 456 44 456 21 l 456 117 q 447 146 456 138 q 415 153 438 154 q 342 158 365 151 q 308 192 319 165 q 297 282 297 219 l 297 571 l 417 571 q 447 581 439 571 q 456 614 456 590 l 456 678 q 447 710 456 701 q 417 719 439 719 l 297 719 l 297 844 q 289 877 297 868 q 257 886 281 886 l 175 886 q 144 877 153 886 q 136 844 136 868 l 136 719 l 61 719 q 31 710 39 719 q 22 678 22 701 l 22 614 q 31 581 22 590 q 61 571 39 571 l 136 571 l 136 274 q 169 85 136 146 q 278 8 203 25 l 224 -125 q 219 -143 219 -136 q 243 -158 219 -158 q 275 -157 253 -157 q 319 -167 306 -158 q 332 -197 332 -176 q 267 -246 332 -246 q 224 -241 239 -246 q 188 -225 210 -236 q 167 -242 167 -212 l 168 -283 q 172 -307 168 -299 q 190 -322 176 -315 q 238 -335 208 -331 q 288 -340 268 -340 q 413 -310 363 -340 q 471 -206 464 -279 q 443 -115 476 -151 q 357 -78 410 -78 "},"ț":{"ha":493,"x_min":22,"x_max":456,"o":"m 415 0 q 447 11 438 1 q 456 44 456 21 l 456 117 q 447 146 456 138 q 415 153 438 154 q 342 158 365 151 q 308 192 319 165 q 297 282 297 219 l 297 571 l 417 571 q 447 581 439 571 q 456 614 456 590 l 456 678 q 447 710 456 701 q 417 719 439 719 l 297 719 l 297 844 q 289 877 297 868 q 257 886 281 886 l 175 886 q 144 877 153 886 q 136 844 136 868 l 136 719 l 61 719 q 31 710 39 719 q 22 678 22 701 l 22 614 q 31 581 22 590 q 61 571 39 571 l 136 571 l 136 274 q 165 94 136 154 q 252 15 193 35 q 415 0 311 -4 m 229 -357 l 282 -357 q 313 -348 303 -357 q 331 -317 324 -339 l 396 -129 q 399 -111 399 -122 q 388 -91 399 -97 q 354 -85 378 -85 l 282 -85 q 244 -94 256 -85 q 231 -129 233 -103 l 203 -326 q 206 -351 200 -344 q 229 -357 211 -357 "},"u":{"ha":733,"x_min":85,"x_max":644,"o":"m 347 -21 q 596 26 490 -21 q 635 56 625 40 q 644 104 644 72 l 644 678 q 636 710 644 701 q 606 719 628 719 l 522 719 q 492 710 500 719 q 483 678 483 701 l 483 167 q 481 151 483 156 q 471 143 478 146 q 369 126 438 126 q 275 160 304 126 q 246 264 246 193 l 246 678 q 238 710 246 701 q 206 719 229 719 l 124 719 q 93 710 101 719 q 85 678 85 701 l 85 258 q 150 51 85 124 q 347 -21 215 -21 "},"ú":{"ha":733,"x_min":85,"x_max":644,"o":"m 347 -21 q 596 26 490 -21 q 635 56 625 40 q 644 104 644 72 l 644 678 q 636 710 644 701 q 606 719 628 719 l 522 719 q 492 710 500 719 q 483 678 483 701 l 483 167 q 481 151 483 156 q 471 143 478 146 q 369 126 438 126 q 275 160 304 126 q 246 264 246 193 l 246 678 q 238 710 246 701 q 206 719 229 719 l 124 719 q 93 710 101 719 q 85 678 85 701 l 85 258 q 150 51 85 124 q 347 -21 215 -21 m 282 824 l 514 924 q 535 944 535 931 q 521 972 535 957 l 485 1015 q 450 1033 468 1033 q 406 1018 433 1033 l 211 896 q 194 876 194 888 q 208 850 194 868 l 228 825 q 249 814 236 814 q 282 824 257 814 "},"ŭ":{"ha":733,"x_min":85,"x_max":644,"o":"m 347 -21 q 596 26 490 -21 q 635 56 625 40 q 644 104 644 72 l 644 678 q 636 710 644 701 q 606 719 628 719 l 522 719 q 492 710 500 719 q 483 678 483 701 l 483 167 q 481 151 483 156 q 471 143 478 146 q 369 126 438 126 q 275 160 304 126 q 246 264 246 193 l 246 678 q 238 710 246 701 q 206 719 229 719 l 124 719 q 93 710 101 719 q 85 678 85 701 l 85 258 q 150 51 85 124 q 347 -21 215 -21 m 364 818 q 497 855 442 818 q 575 960 553 892 q 578 976 578 974 q 573 990 578 985 q 556 1000 568 994 l 493 1022 q 479 1025 482 1025 q 457 1006 465 1025 q 422 952 446 971 q 364 933 397 933 q 307 952 331 933 q 272 1006 283 971 q 249 1024 263 1024 q 229 1021 236 1024 l 174 1000 q 151 975 151 992 q 154 960 151 971 q 232 855 176 892 q 364 818 288 818 "},"û":{"ha":733,"x_min":85,"x_max":644,"o":"m 347 -21 q 596 26 490 -21 q 635 56 625 40 q 644 104 644 72 l 644 678 q 636 710 644 701 q 606 719 628 719 l 522 719 q 492 710 500 719 q 483 678 483 701 l 483 167 q 481 151 483 156 q 471 143 478 146 q 369 126 438 126 q 275 160 304 126 q 246 264 246 193 l 246 678 q 238 710 246 701 q 206 719 229 719 l 124 719 q 93 710 101 719 q 85 678 85 701 l 85 258 q 150 51 85 124 q 347 -21 215 -21 m 163 817 l 219 817 q 258 820 247 817 q 286 840 269 824 l 364 919 l 439 840 q 466 821 453 825 q 507 817 479 817 l 569 817 q 600 832 600 817 q 590 851 600 842 l 454 988 q 417 1018 429 1013 q 378 1024 404 1024 l 361 1024 q 316 1018 329 1024 q 278 988 303 1013 l 142 851 q 132 832 132 842 q 163 817 132 817 "},"ü":{"ha":733,"x_min":85,"x_max":644,"o":"m 347 -21 q 596 26 490 -21 q 635 56 625 40 q 644 104 644 72 l 644 678 q 636 710 644 701 q 606 719 628 719 l 522 719 q 492 710 500 719 q 483 678 483 701 l 483 167 q 481 151 483 156 q 471 143 478 146 q 369 126 438 126 q 275 160 304 126 q 246 264 246 193 l 246 678 q 238 710 246 701 q 206 719 229 719 l 124 719 q 93 710 101 719 q 85 678 85 701 l 85 258 q 150 51 85 124 q 347 -21 215 -21 m 224 833 l 233 833 q 291 849 275 833 q 307 907 307 865 l 307 919 q 291 976 307 960 q 233 992 275 992 l 224 992 q 166 976 182 992 q 150 919 150 960 l 150 907 q 166 849 150 865 q 224 833 182 833 m 489 833 l 497 833 q 555 849 539 833 q 571 907 571 865 l 571 919 q 555 976 571 960 q 497 992 539 992 l 489 992 q 430 976 446 992 q 414 919 414 960 l 414 907 q 431 849 414 865 q 489 833 447 833 "},"ù":{"ha":733,"x_min":85,"x_max":644,"o":"m 347 -21 q 596 26 490 -21 q 635 56 625 40 q 644 104 644 72 l 644 678 q 636 710 644 701 q 606 719 628 719 l 522 719 q 492 710 500 719 q 483 678 483 701 l 483 167 q 481 151 483 156 q 471 143 478 146 q 369 126 438 126 q 275 160 304 126 q 246 264 246 193 l 246 678 q 238 710 246 701 q 206 719 229 719 l 124 719 q 93 710 101 719 q 85 678 85 701 l 85 258 q 150 51 85 124 q 347 -21 215 -21 m 219 924 l 451 822 q 483 814 476 814 q 506 825 494 814 l 525 850 q 539 876 539 868 q 522 896 539 888 l 326 1018 q 283 1033 301 1033 q 249 1015 263 1033 l 213 972 q 199 944 199 957 q 219 924 199 931 "},"ű":{"ha":733,"x_min":85,"x_max":644,"o":"m 347 -21 q 596 26 490 -21 q 635 56 625 40 q 644 104 644 72 l 644 678 q 636 710 644 701 q 606 719 628 719 l 522 719 q 492 710 500 719 q 483 678 483 701 l 483 167 q 481 151 483 156 q 471 143 478 146 q 369 126 438 126 q 275 160 304 126 q 246 264 246 193 l 246 678 q 238 710 246 701 q 206 719 229 719 l 124 719 q 93 710 101 719 q 85 678 85 701 l 85 258 q 150 51 85 124 q 347 -21 215 -21 m 179 819 l 201 813 q 215 810 213 810 q 233 815 224 810 q 253 831 242 821 l 390 957 q 403 982 403 972 q 376 1006 403 996 l 329 1022 q 308 1025 322 1025 q 257 993 278 1025 l 165 863 q 156 840 156 849 q 179 819 156 828 m 399 814 l 422 807 q 438 803 431 803 q 449 806 443 803 q 462 815 454 808 q 472 824 469 821 l 624 957 q 638 979 638 969 q 610 1004 638 993 l 560 1021 q 539 1024 551 1024 q 486 993 510 1024 l 385 857 q 375 835 375 843 q 399 814 375 822 "},"ū":{"ha":733,"x_min":85,"x_max":644,"o":"m 347 -21 q 596 26 490 -21 q 635 56 625 40 q 644 104 644 72 l 644 678 q 636 710 644 701 q 606 719 628 719 l 522 719 q 492 710 500 719 q 483 678 483 701 l 483 167 q 481 151 483 156 q 471 143 478 146 q 369 126 438 126 q 275 160 304 126 q 246 264 246 193 l 246 678 q 238 710 246 701 q 206 719 229 719 l 124 719 q 93 710 101 719 q 85 678 85 701 l 85 258 q 150 51 85 124 q 347 -21 215 -21 m 206 857 l 524 857 q 556 865 547 857 q 564 897 564 874 l 564 932 q 556 964 564 956 q 524 972 547 972 l 206 972 q 174 964 183 972 q 165 932 165 956 l 165 897 q 174 865 165 874 q 206 857 182 857 "},"ų":{"ha":735,"x_min":85,"x_max":650,"o":"m 515 -340 q 585 -328 551 -340 q 644 -292 619 -315 q 650 -278 650 -286 q 646 -262 650 -271 l 626 -217 q 611 -204 622 -204 q 600 -208 607 -204 q 565 -222 585 -222 q 529 -194 538 -222 q 528 -182 528 -192 q 554 -84 528 -147 q 633 53 581 -21 q 644 104 644 69 l 644 678 q 636 710 644 701 q 606 719 628 719 l 522 719 q 492 710 500 719 q 483 678 483 701 l 483 167 q 481 151 483 156 q 471 143 478 146 q 369 126 438 126 q 275 160 304 126 q 246 264 246 193 l 246 678 q 238 710 246 701 q 206 719 229 719 l 124 719 q 93 710 101 719 q 85 678 85 701 l 85 258 q 150 51 85 124 q 347 -21 215 -21 q 494 -6 424 -21 q 417 -122 444 -61 q 389 -231 389 -182 q 424 -315 389 -289 q 515 -340 458 -340 "},"ů":{"ha":733,"x_min":85,"x_max":644,"o":"m 347 -21 q 596 26 490 -21 q 635 56 625 40 q 644 104 644 72 l 644 678 q 636 710 644 701 q 606 719 628 719 l 522 719 q 492 710 500 719 q 483 678 483 701 l 483 167 q 481 151 483 156 q 471 143 478 146 q 369 126 438 126 q 275 160 304 126 q 246 264 246 193 l 246 678 q 238 710 246 701 q 206 719 229 719 l 124 719 q 93 710 101 719 q 85 678 85 701 l 85 258 q 150 51 85 124 q 347 -21 215 -21 m 367 782 q 472 823 431 782 q 513 928 513 864 q 472 1033 513 992 q 367 1075 431 1075 q 258 1034 300 1075 q 215 928 215 993 q 258 823 215 864 q 367 782 300 782 m 367 861 q 316 880 336 861 q 296 928 296 899 q 315 977 296 958 q 367 996 335 996 q 413 977 394 996 q 432 928 432 958 q 413 880 432 899 q 367 861 394 861 "},"ũ":{"ha":733,"x_min":85,"x_max":644,"o":"m 347 -21 q 596 26 490 -21 q 635 56 625 40 q 644 104 644 72 l 644 678 q 636 710 644 701 q 606 719 628 719 l 522 719 q 492 710 500 719 q 483 678 483 701 l 483 167 q 481 151 483 156 q 471 143 478 146 q 369 126 438 126 q 275 160 304 126 q 246 264 246 193 l 246 678 q 238 710 246 701 q 206 719 229 719 l 124 719 q 93 710 101 719 q 85 678 85 701 l 85 258 q 150 51 85 124 q 347 -21 215 -21 m 176 831 l 221 831 q 246 857 246 831 q 278 910 246 910 q 310 901 294 910 q 346 876 325 893 q 395 842 372 854 q 450 831 418 831 q 539 866 511 831 q 567 985 567 901 q 560 1006 567 1000 q 540 1013 554 1013 l 496 1013 q 475 1006 481 1013 q 469 985 469 1000 q 439 932 469 932 q 410 940 424 932 q 375 964 396 947 q 322 1000 346 988 q 263 1013 297 1013 q 177 976 206 1013 q 149 857 149 940 q 176 831 149 831 "},"v":{"ha":678,"x_min":24,"x_max":654,"o":"m 296 -1 l 379 -1 q 413 7 401 -1 q 432 38 425 15 l 649 669 q 654 697 654 685 q 645 715 654 710 q 615 719 636 719 l 547 719 q 501 711 513 719 q 483 676 490 703 l 381 343 q 344 181 363 271 l 338 181 q 300 343 317 285 l 197 676 q 176 711 190 703 q 131 719 163 719 l 61 719 q 32 715 40 719 q 24 697 24 710 q 29 669 24 685 l 242 38 q 261 7 249 15 q 296 -1 274 -1 "},"w":{"ha":983,"x_min":35,"x_max":949,"o":"m 258 -1 l 326 -1 q 363 7 350 -1 q 381 38 375 15 l 463 393 q 488 536 469 426 l 493 536 q 515 393 501 461 l 597 38 q 617 7 603 15 q 654 -1 631 -1 l 725 -1 q 761 7 749 -1 q 779 38 774 15 l 944 669 q 949 697 949 686 q 940 715 949 710 q 910 719 932 719 l 850 719 q 799 711 813 719 q 779 676 785 703 l 713 367 q 692 194 699 289 l 685 194 q 660 368 675 301 l 583 672 q 565 708 576 700 q 518 715 553 715 l 472 715 q 424 707 436 715 q 406 671 413 699 l 331 367 q 306 194 315 297 l 297 194 q 278 365 286 328 l 211 676 q 193 711 207 703 q 142 719 179 719 l 74 719 q 44 715 53 719 q 35 696 35 710 q 39 669 35 686 l 204 38 q 222 7 210 15 q 258 -1 235 -1 "},"ẃ":{"ha":983,"x_min":35,"x_max":949,"o":"m 258 -1 l 326 -1 q 363 7 350 -1 q 381 38 375 15 l 463 393 q 488 536 469 426 l 493 536 q 515 393 501 461 l 597 38 q 617 7 603 15 q 654 -1 631 -1 l 725 -1 q 761 7 749 -1 q 779 38 774 15 l 944 669 q 949 697 949 686 q 940 715 949 710 q 910 719 932 719 l 850 719 q 799 711 813 719 q 779 676 785 703 l 713 367 q 692 194 699 289 l 685 194 q 660 368 675 301 l 583 672 q 565 708 576 700 q 518 715 553 715 l 472 715 q 424 707 436 715 q 406 671 413 699 l 331 367 q 306 194 315 297 l 297 194 q 278 365 286 328 l 211 676 q 193 711 207 703 q 142 719 179 719 l 74 719 q 44 715 53 719 q 35 696 35 710 q 39 669 35 686 l 204 38 q 222 7 210 15 q 258 -1 235 -1 m 413 824 l 644 924 q 665 944 665 931 q 651 972 665 957 l 615 1015 q 581 1033 599 1033 q 536 1018 564 1033 l 342 896 q 325 876 325 888 q 339 850 325 868 l 358 825 q 379 814 367 814 q 413 824 388 814 "},"ŵ":{"ha":983,"x_min":35,"x_max":949,"o":"m 258 -1 l 326 -1 q 363 7 350 -1 q 381 38 375 15 l 463 393 q 488 536 469 426 l 493 536 q 515 393 501 461 l 597 38 q 617 7 603 15 q 654 -1 631 -1 l 725 -1 q 761 7 749 -1 q 779 38 774 15 l 944 669 q 949 697 949 686 q 940 715 949 710 q 910 719 932 719 l 850 719 q 799 711 813 719 q 779 676 785 703 l 713 367 q 692 194 699 289 l 685 194 q 660 368 675 301 l 583 672 q 565 708 576 700 q 518 715 553 715 l 472 715 q 424 707 436 715 q 406 671 413 699 l 331 367 q 306 194 315 297 l 297 194 q 278 365 286 328 l 211 676 q 193 711 207 703 q 142 719 179 719 l 74 719 q 44 715 53 719 q 35 696 35 710 q 39 669 35 686 l 204 38 q 222 7 210 15 q 258 -1 235 -1 m 293 817 l 350 817 q 389 820 378 817 q 417 840 400 824 l 494 919 l 569 840 q 597 821 583 825 q 638 817 610 817 l 700 817 q 731 832 731 817 q 721 851 731 842 l 585 988 q 547 1018 560 1013 q 508 1024 535 1024 l 492 1024 q 447 1018 460 1024 q 408 988 433 1013 l 272 851 q 263 832 263 842 q 293 817 263 817 "},"ẅ":{"ha":983,"x_min":35,"x_max":949,"o":"m 258 -1 l 326 -1 q 363 7 350 -1 q 381 38 375 15 l 463 393 q 488 536 469 426 l 493 536 q 515 393 501 461 l 597 38 q 617 7 603 15 q 654 -1 631 -1 l 725 -1 q 761 7 749 -1 q 779 38 774 15 l 944 669 q 949 697 949 686 q 940 715 949 710 q 910 719 932 719 l 850 719 q 799 711 813 719 q 779 676 785 703 l 713 367 q 692 194 699 289 l 685 194 q 660 368 675 301 l 583 672 q 565 708 576 700 q 518 715 553 715 l 472 715 q 424 707 436 715 q 406 671 413 699 l 331 367 q 306 194 315 297 l 297 194 q 278 365 286 328 l 211 676 q 193 711 207 703 q 142 719 179 719 l 74 719 q 44 715 53 719 q 35 696 35 710 q 39 669 35 686 l 204 38 q 222 7 210 15 q 258 -1 235 -1 m 353 833 l 363 833 q 420 849 404 833 q 436 907 436 865 l 436 919 q 420 976 436 960 q 363 992 404 992 l 353 992 q 295 976 311 992 q 279 919 279 960 l 279 907 q 295 849 279 865 q 353 833 311 833 m 618 833 l 626 833 q 684 849 668 833 q 700 907 700 865 l 700 919 q 684 976 700 960 q 626 992 668 992 l 618 992 q 559 976 575 992 q 543 919 543 960 l 543 907 q 560 849 543 865 q 618 833 576 833 "},"ẁ":{"ha":983,"x_min":35,"x_max":949,"o":"m 258 -1 l 326 -1 q 363 7 350 -1 q 381 38 375 15 l 463 393 q 488 536 469 426 l 493 536 q 515 393 501 461 l 597 38 q 617 7 603 15 q 654 -1 631 -1 l 725 -1 q 761 7 749 -1 q 779 38 774 15 l 944 669 q 949 697 949 686 q 940 715 949 710 q 910 719 932 719 l 850 719 q 799 711 813 719 q 779 676 785 703 l 713 367 q 692 194 699 289 l 685 194 q 660 368 675 301 l 583 672 q 565 708 576 700 q 518 715 553 715 l 472 715 q 424 707 436 715 q 406 671 413 699 l 331 367 q 306 194 315 297 l 297 194 q 278 365 286 328 l 211 676 q 193 711 207 703 q 142 719 179 719 l 74 719 q 44 715 53 719 q 35 696 35 710 q 39 669 35 686 l 204 38 q 222 7 210 15 q 258 -1 235 -1 m 350 924 l 582 822 q 614 814 607 814 q 636 825 625 814 l 656 850 q 669 876 669 868 q 653 896 669 888 l 457 1018 q 414 1033 432 1033 q 379 1015 393 1033 l 343 972 q 329 944 329 957 q 350 924 329 931 "},"x":{"ha":667,"x_min":28,"x_max":639,"o":"m 68 0 l 149 0 q 193 6 181 0 q 217 36 206 13 l 333 260 l 453 36 q 476 6 464 13 q 519 0 489 0 l 601 0 q 639 21 639 0 q 629 50 639 32 l 443 371 l 617 669 q 628 700 628 689 q 592 719 628 719 l 508 719 q 467 713 478 719 q 444 683 456 707 l 335 481 l 224 683 q 200 713 214 706 q 154 719 186 719 l 79 719 q 39 697 39 719 q 49 669 39 689 l 226 368 l 40 50 q 28 19 28 32 q 68 0 28 0 "},"y":{"ha":736,"x_min":85,"x_max":644,"o":"m 365 -328 q 577 -247 510 -328 q 644 -24 644 -167 l 644 678 q 636 710 644 701 q 606 719 628 719 l 522 719 q 492 710 500 719 q 483 678 483 701 l 483 181 q 369 161 433 161 q 275 194 304 161 q 246 299 246 228 l 246 678 q 238 710 246 701 q 206 719 229 719 l 124 719 q 93 710 101 719 q 85 678 85 701 l 85 293 q 150 86 85 158 q 347 14 215 14 q 485 33 421 14 l 485 -37 q 456 -148 485 -112 q 363 -183 426 -183 q 239 -115 274 -183 q 206 -87 222 -87 q 178 -96 194 -87 l 119 -126 q 93 -162 93 -140 q 103 -193 93 -178 q 365 -328 176 -328 "},"ý":{"ha":736,"x_min":85,"x_max":644,"o":"m 365 -328 q 577 -247 510 -328 q 644 -24 644 -167 l 644 678 q 636 710 644 701 q 606 719 628 719 l 522 719 q 492 710 500 719 q 483 678 483 701 l 483 181 q 369 161 433 161 q 275 194 304 161 q 246 299 246 228 l 246 678 q 238 710 246 701 q 206 719 229 719 l 124 719 q 93 710 101 719 q 85 678 85 701 l 85 293 q 150 86 85 158 q 347 14 215 14 q 485 33 421 14 l 485 -37 q 456 -148 485 -112 q 363 -183 426 -183 q 239 -115 274 -183 q 206 -87 222 -87 q 178 -96 194 -87 l 119 -126 q 93 -162 93 -140 q 103 -193 93 -178 q 365 -328 176 -328 m 282 824 l 514 924 q 535 944 535 931 q 521 972 535 957 l 485 1015 q 450 1033 468 1033 q 406 1018 433 1033 l 211 896 q 194 876 194 888 q 208 850 194 868 l 228 825 q 249 814 236 814 q 282 824 257 814 "},"ŷ":{"ha":736,"x_min":85,"x_max":644,"o":"m 365 -328 q 577 -247 510 -328 q 644 -24 644 -167 l 644 678 q 636 710 644 701 q 606 719 628 719 l 522 719 q 492 710 500 719 q 483 678 483 701 l 483 181 q 369 161 433 161 q 275 194 304 161 q 246 299 246 228 l 246 678 q 238 710 246 701 q 206 719 229 719 l 124 719 q 93 710 101 719 q 85 678 85 701 l 85 293 q 150 86 85 158 q 347 14 215 14 q 485 33 421 14 l 485 -37 q 456 -148 485 -112 q 363 -183 426 -183 q 239 -115 274 -183 q 206 -87 222 -87 q 178 -96 194 -87 l 119 -126 q 93 -162 93 -140 q 103 -193 93 -178 q 365 -328 176 -328 m 163 817 l 219 817 q 258 820 247 817 q 286 840 269 824 l 364 919 l 439 840 q 466 821 453 825 q 507 817 479 817 l 569 817 q 600 832 600 817 q 590 851 600 842 l 454 988 q 417 1018 429 1013 q 378 1024 404 1024 l 361 1024 q 316 1018 329 1024 q 278 988 303 1013 l 142 851 q 132 832 132 842 q 163 817 132 817 "},"ÿ":{"ha":736,"x_min":85,"x_max":644,"o":"m 365 -328 q 577 -247 510 -328 q 644 -24 644 -167 l 644 678 q 636 710 644 701 q 606 719 628 719 l 522 719 q 492 710 500 719 q 483 678 483 701 l 483 181 q 369 161 433 161 q 275 194 304 161 q 246 299 246 228 l 246 678 q 238 710 246 701 q 206 719 229 719 l 124 719 q 93 710 101 719 q 85 678 85 701 l 85 293 q 150 86 85 158 q 347 14 215 14 q 485 33 421 14 l 485 -37 q 456 -148 485 -112 q 363 -183 426 -183 q 239 -115 274 -183 q 206 -87 222 -87 q 178 -96 194 -87 l 119 -126 q 93 -162 93 -140 q 103 -193 93 -178 q 365 -328 176 -328 m 222 833 l 232 833 q 290 849 274 833 q 306 907 306 865 l 306 919 q 290 976 306 960 q 232 992 274 992 l 222 992 q 165 976 181 992 q 149 919 149 960 l 149 907 q 165 849 149 865 q 222 833 181 833 m 488 833 l 496 833 q 553 849 538 833 q 569 907 569 865 l 569 919 q 553 976 569 960 q 496 992 538 992 l 488 992 q 428 976 444 992 q 413 919 413 960 l 413 907 q 429 849 413 865 q 488 833 446 833 "},"ỳ":{"ha":736,"x_min":85,"x_max":644,"o":"m 365 -328 q 577 -247 510 -328 q 644 -24 644 -167 l 644 678 q 636 710 644 701 q 606 719 628 719 l 522 719 q 492 710 500 719 q 483 678 483 701 l 483 181 q 369 161 433 161 q 275 194 304 161 q 246 299 246 228 l 246 678 q 238 710 246 701 q 206 719 229 719 l 124 719 q 93 710 101 719 q 85 678 85 701 l 85 293 q 150 86 85 158 q 347 14 215 14 q 485 33 421 14 l 485 -37 q 456 -148 485 -112 q 363 -183 426 -183 q 239 -115 274 -183 q 206 -87 222 -87 q 178 -96 194 -87 l 119 -126 q 93 -162 93 -140 q 103 -193 93 -178 q 365 -328 176 -328 m 219 924 l 451 822 q 483 814 476 814 q 506 825 494 814 l 525 850 q 539 876 539 868 q 522 896 539 888 l 326 1018 q 283 1033 301 1033 q 249 1015 263 1033 l 213 972 q 199 944 199 957 q 219 924 199 931 "},"z":{"ha":614,"x_min":51,"x_max":561,"o":"m 92 0 l 522 0 q 553 9 544 0 q 561 43 561 18 l 561 103 q 553 137 561 128 q 522 146 544 146 l 243 146 l 538 569 q 551 593 547 583 q 554 617 554 603 l 554 678 q 546 710 554 701 q 517 719 538 719 l 97 719 q 67 710 75 719 q 58 678 58 701 l 58 617 q 67 583 58 593 q 97 574 75 574 l 357 574 l 67 146 q 54 126 57 133 q 51 103 51 118 l 51 43 q 60 10 51 19 q 92 0 69 0 "},"ź":{"ha":614,"x_min":51,"x_max":561,"o":"m 92 0 l 522 0 q 553 9 544 0 q 561 43 561 18 l 561 103 q 553 137 561 128 q 522 146 544 146 l 243 146 l 538 569 q 551 593 547 583 q 554 617 554 603 l 554 678 q 546 710 554 701 q 517 719 538 719 l 97 719 q 67 710 75 719 q 58 678 58 701 l 58 617 q 67 583 58 593 q 97 574 75 574 l 357 574 l 67 146 q 54 126 57 133 q 51 103 51 118 l 51 43 q 60 10 51 19 q 92 0 69 0 m 228 824 l 460 924 q 481 944 481 931 q 467 972 481 957 l 431 1015 q 396 1033 414 1033 q 351 1018 379 1033 l 157 896 q 140 876 140 888 q 154 850 140 868 l 174 825 q 194 814 182 814 q 228 824 203 814 "},"ž":{"ha":614,"x_min":51,"x_max":561,"o":"m 92 0 l 522 0 q 553 9 544 0 q 561 43 561 18 l 561 103 q 553 137 561 128 q 522 146 544 146 l 243 146 l 538 569 q 551 593 547 583 q 554 617 554 603 l 554 678 q 546 710 554 701 q 517 719 538 719 l 97 719 q 67 710 75 719 q 58 678 58 701 l 58 617 q 67 583 58 593 q 97 574 75 574 l 357 574 l 67 146 q 54 126 57 133 q 51 103 51 118 l 51 43 q 60 10 51 19 q 92 0 69 0 m 301 814 l 317 814 q 356 819 343 814 q 394 851 368 825 l 531 988 q 540 1007 540 997 q 510 1022 540 1022 l 447 1022 q 406 1018 419 1022 q 379 997 393 1014 l 304 918 l 226 997 q 199 1018 211 1014 q 161 1022 188 1022 l 103 1022 q 72 1007 72 1022 q 82 988 72 997 l 218 851 q 256 820 243 826 q 301 814 269 814 "},"ż":{"ha":614,"x_min":51,"x_max":561,"o":"m 92 0 l 522 0 q 553 9 544 0 q 561 43 561 18 l 561 103 q 553 137 561 128 q 522 146 544 146 l 243 146 l 538 569 q 551 593 547 583 q 554 617 554 603 l 554 678 q 546 710 554 701 q 517 719 538 719 l 97 719 q 67 710 75 719 q 58 678 58 701 l 58 617 q 67 583 58 593 q 97 574 75 574 l 357 574 l 67 146 q 54 126 57 133 q 51 103 51 118 l 51 43 q 60 10 51 19 q 92 0 69 0 m 281 831 l 336 831 q 385 846 372 831 q 397 906 397 861 l 397 926 q 384 985 397 969 q 336 1001 371 1001 l 281 1001 q 233 985 246 1001 q 219 926 219 969 l 219 906 q 232 846 219 861 q 281 831 244 831 "},"ﬁ":{"ha":763,"x_min":26,"x_max":681,"o":"m 172 0 l 251 0 q 283 10 274 0 q 292 43 292 19 l 292 571 l 519 571 l 519 43 q 528 10 519 19 q 560 0 538 0 l 642 0 q 672 10 664 0 q 681 43 681 19 l 681 678 q 672 710 681 701 q 642 719 664 719 l 292 719 l 292 740 q 320 848 292 815 q 415 881 349 881 l 640 881 q 672 890 663 881 q 681 925 681 900 l 681 983 q 672 1018 681 1008 q 640 1028 663 1028 l 408 1028 q 199 955 267 1028 q 131 735 131 882 l 131 719 l 65 719 q 35 710 43 719 q 26 678 26 701 l 26 614 q 35 581 26 590 q 65 571 43 571 l 131 571 l 131 43 q 140 10 131 19 q 172 0 149 0 "},"ﬂ":{"ha":774,"x_min":26,"x_max":679,"o":"m 169 0 l 250 0 q 281 10 272 0 q 290 43 290 19 l 290 571 l 376 571 q 408 581 399 571 q 417 614 417 590 l 417 678 q 408 710 417 701 q 376 719 400 719 l 290 719 l 290 747 q 319 850 290 821 q 415 879 347 879 l 518 879 l 518 43 q 526 10 518 19 q 557 0 535 0 l 639 0 q 670 10 661 0 q 679 43 679 19 l 679 985 q 670 1018 679 1008 q 639 1028 661 1028 l 408 1028 q 129 736 129 1028 l 129 719 l 65 719 q 35 710 43 719 q 26 678 26 701 l 26 614 q 35 581 26 590 q 65 571 43 571 l 129 571 l 129 43 q 138 10 129 19 q 169 0 147 0 "},"ª":{"ha":488,"x_min":75,"x_max":406,"o":"m 240 493 q 364 514 318 493 q 397 538 389 525 q 406 581 406 551 l 406 758 q 369 885 406 840 q 244 931 332 931 q 154 912 194 931 q 90 856 114 893 q 81 832 81 844 q 99 808 81 819 l 136 789 q 154 783 146 783 q 174 794 163 783 q 199 820 186 813 q 236 828 213 828 q 282 769 282 828 l 282 750 q 243 753 263 753 q 113 720 150 753 q 75 622 75 688 q 111 526 75 558 q 240 493 147 493 m 236 588 q 202 596 213 588 q 192 626 192 604 q 202 656 192 646 q 239 665 213 665 q 282 663 260 665 l 282 606 q 281 597 282 600 q 275 592 281 594 q 236 588 264 588 "},"º":{"ha":494,"x_min":74,"x_max":421,"o":"m 246 494 q 376 539 331 494 q 421 663 421 583 l 421 761 q 376 885 421 840 q 246 931 331 931 q 119 885 164 931 q 74 761 74 840 l 74 663 q 119 539 74 583 q 246 494 164 494 m 246 607 q 209 621 222 607 q 196 658 196 635 l 196 767 q 209 804 196 790 q 246 818 222 818 q 284 804 271 818 q 297 767 297 790 l 297 658 q 246 607 297 607 "},"А":{"ha":879,"x_min":19,"x_max":857,"o":"m 54 0 l 133 0 q 185 8 169 0 q 207 42 200 17 l 263 218 l 608 218 l 664 42 q 685 8 669 17 q 739 0 701 0 l 822 0 q 857 24 857 0 q 853 46 857 33 l 539 950 q 519 980 531 972 q 483 988 507 988 l 394 988 q 360 980 371 988 q 340 949 349 972 l 25 46 q 19 24 19 29 q 54 0 19 0 m 561 365 l 311 365 l 400 656 q 432 817 422 739 l 440 817 q 474 656 446 754 l 561 365 "},"Б":{"ha":846,"x_min":107,"x_max":796,"o":"m 149 0 l 506 0 q 718 81 640 0 q 796 301 796 161 q 719 517 796 442 q 506 593 642 593 l 281 593 l 281 824 l 690 824 q 724 834 715 824 q 733 871 733 844 l 733 939 q 724 976 733 965 q 690 986 715 986 l 150 986 q 116 976 125 986 q 107 939 107 965 l 107 44 q 116 10 107 19 q 149 0 125 0 m 497 160 l 281 160 l 281 443 l 497 443 q 588 405 554 443 q 622 301 622 367 q 588 199 622 238 q 497 160 554 160 "},"В":{"ha":868,"x_min":107,"x_max":806,"o":"m 150 0 l 515 0 q 728 71 650 0 q 806 271 806 142 q 671 511 806 450 l 671 515 q 747 597 722 547 q 771 722 771 647 q 694 916 771 846 q 492 986 618 986 l 150 986 q 116 976 125 986 q 107 939 107 965 l 107 47 q 116 10 107 21 q 150 0 125 0 m 488 574 l 281 574 l 281 826 l 486 826 q 570 795 540 826 q 600 701 600 764 q 571 606 600 638 q 488 574 542 574 m 508 160 l 281 160 l 281 426 l 508 426 q 599 392 565 426 q 632 292 632 357 q 599 194 632 228 q 508 160 565 160 "},"Г":{"ha":686,"x_min":107,"x_max":657,"o":"m 149 0 l 238 0 q 271 10 261 0 q 281 47 281 21 l 281 825 l 615 825 q 648 835 639 825 q 657 872 657 846 l 657 939 q 648 976 657 965 q 615 986 639 986 l 149 986 q 116 976 125 986 q 107 939 107 965 l 107 47 q 116 10 107 21 q 149 0 125 0 "},"Д":{"ha":968,"x_min":36,"x_max":933,"o":"m 81 -212 l 161 -212 q 197 -202 186 -212 q 207 -165 207 -192 l 207 0 l 764 0 l 764 -165 q 774 -202 764 -192 q 810 -212 785 -212 l 888 -212 q 924 -202 914 -212 q 933 -165 933 -192 l 933 115 q 924 152 933 142 q 888 163 914 163 l 829 163 l 829 939 q 819 976 829 965 q 783 986 808 986 l 269 986 q 233 976 243 986 q 224 939 224 965 l 224 651 q 192 303 224 408 q 108 163 161 199 l 81 163 q 46 152 56 163 q 36 115 36 142 l 36 -165 q 46 -202 36 -192 q 81 -212 56 -212 m 654 163 l 297 163 q 367 344 343 232 q 392 653 392 457 l 392 824 l 654 824 l 654 163 "},"Е":{"ha":769,"x_min":107,"x_max":714,"o":"m 150 0 l 669 0 q 704 10 694 0 q 714 47 714 21 l 714 115 q 704 152 714 142 q 669 163 694 163 l 281 163 l 281 418 l 596 418 q 629 428 619 418 q 639 465 639 439 l 639 533 q 629 570 639 560 q 596 581 619 581 l 281 581 l 281 824 l 657 824 q 692 834 682 824 q 701 871 701 844 l 701 939 q 692 976 701 965 q 657 986 682 986 l 150 986 q 116 976 125 986 q 107 939 107 965 l 107 47 q 116 10 107 21 q 150 0 125 0 "},"Ё":{"ha":769,"x_min":107,"x_max":714,"o":"m 150 0 l 669 0 q 704 10 694 0 q 714 47 714 21 l 714 115 q 704 152 714 142 q 669 163 694 163 l 281 163 l 281 418 l 596 418 q 629 428 619 418 q 639 465 639 439 l 639 533 q 629 570 639 560 q 596 581 619 581 l 281 581 l 281 824 l 657 824 q 692 834 682 824 q 701 871 701 844 l 701 939 q 692 976 701 965 q 657 986 682 986 l 150 986 q 116 976 125 986 q 107 939 107 965 l 107 47 q 116 10 107 21 q 150 0 125 0 m 263 1075 l 272 1075 q 330 1091 314 1075 q 346 1147 346 1107 l 346 1161 q 330 1217 346 1201 q 272 1232 314 1232 l 263 1232 q 206 1217 221 1232 q 190 1161 190 1201 l 190 1147 q 206 1091 190 1107 q 263 1075 221 1075 m 536 1075 l 546 1075 q 603 1091 588 1075 q 618 1147 618 1107 l 618 1161 q 603 1217 618 1201 q 546 1232 588 1232 l 536 1232 q 478 1217 494 1232 q 463 1161 463 1201 l 463 1147 q 478 1091 463 1107 q 536 1075 494 1075 "},"Ж":{"ha":1242,"x_min":29,"x_max":1213,"o":"m 58 0 l 140 0 q 200 8 183 0 q 228 42 217 15 l 354 324 q 409 401 381 381 q 494 421 438 421 l 533 421 l 533 47 q 543 10 533 21 q 579 0 553 0 l 661 0 q 698 10 688 0 q 708 47 708 21 l 708 421 l 747 421 q 834 401 806 421 q 888 324 863 381 l 1013 42 q 1041 8 1024 15 q 1101 0 1058 0 l 1182 0 q 1213 22 1213 0 q 1207 47 1213 35 l 1047 386 q 943 526 1001 485 l 1192 940 q 1199 964 1199 954 q 1191 980 1199 974 q 1168 986 1183 986 l 1079 986 q 1021 979 1038 986 q 990 947 1004 972 l 783 578 q 742 579 769 579 l 708 579 l 708 939 q 698 976 708 965 q 661 986 688 986 l 579 986 q 543 976 553 986 q 533 939 533 965 l 533 579 l 500 579 q 458 578 472 579 l 251 947 q 220 979 238 972 q 161 986 203 986 l 72 986 q 43 964 43 986 q 50 940 43 954 l 297 526 q 194 386 240 485 l 35 47 q 29 22 29 35 q 58 0 29 0 "},"З":{"ha":847,"x_min":53,"x_max":782,"o":"m 435 -21 q 694 58 606 -21 q 782 275 782 136 q 752 419 782 358 q 650 514 722 479 q 728 598 704 547 q 751 724 751 649 q 666 932 751 857 q 426 1007 581 1007 q 189 949 272 1007 q 68 774 106 892 q 63 749 63 761 q 96 714 63 725 l 164 690 q 189 685 176 685 q 207 693 200 685 q 221 719 214 701 q 289 815 242 785 q 422 844 336 844 q 537 810 499 844 q 575 708 575 775 q 456 579 575 579 l 314 579 q 280 569 289 579 q 271 532 271 560 l 271 469 q 280 432 271 442 q 314 422 289 422 l 464 422 q 563 386 529 422 q 597 289 597 350 q 435 142 597 142 q 290 174 343 142 q 218 269 238 206 q 204 297 211 289 q 186 304 197 304 q 163 299 182 304 l 85 274 q 53 238 53 261 q 57 213 53 228 q 187 38 96 97 q 435 -21 278 -21 "},"И":{"ha":936,"x_min":107,"x_max":829,"o":"m 151 0 l 253 0 q 278 5 269 0 q 296 24 288 10 l 561 493 q 618 612 594 556 q 672 754 642 668 l 681 754 q 660 610 665 676 q 656 450 656 543 l 656 47 q 665 10 656 21 q 699 0 675 0 l 786 0 q 820 10 811 0 q 829 47 829 21 l 829 939 q 819 976 829 965 q 785 986 810 986 l 681 986 q 655 981 664 986 q 639 964 646 976 l 379 500 q 319 375 343 432 q 267 231 296 318 l 258 231 q 277 371 274 308 q 281 540 281 433 l 281 939 q 272 976 281 965 q 238 986 263 986 l 150 986 q 116 976 125 986 q 107 939 107 965 l 107 47 q 117 10 107 21 q 151 0 126 0 "},"Й":{"ha":917,"x_min":107,"x_max":829,"o":"m 476 1060 q 624 1099 563 1060 q 713 1208 686 1138 q 717 1225 717 1219 q 711 1238 717 1233 q 692 1249 706 1243 l 621 1272 q 606 1275 610 1275 q 581 1256 590 1275 q 541 1200 568 1219 q 476 1181 514 1181 q 412 1200 439 1181 q 374 1256 385 1219 q 363 1269 368 1265 q 346 1274 357 1274 q 325 1271 333 1274 l 264 1249 q 239 1225 239 1240 q 243 1208 239 1219 q 329 1099 268 1138 q 476 1060 390 1060 m 151 0 l 253 0 q 278 5 269 0 q 296 24 288 10 l 561 493 q 618 612 594 556 q 672 754 642 668 l 681 754 q 660 610 665 676 q 656 450 656 543 l 656 47 q 665 10 656 21 q 699 0 675 0 l 786 0 q 820 10 811 0 q 829 47 829 21 l 829 939 q 819 976 829 965 q 785 986 810 986 l 681 986 q 655 981 664 986 q 639 964 646 976 l 379 500 q 319 375 343 432 q 267 231 296 318 l 258 231 q 277 371 274 308 q 281 540 281 433 l 281 939 q 272 976 281 965 q 238 986 263 986 l 150 986 q 116 976 125 986 q 107 939 107 965 l 107 47 q 117 10 107 21 q 151 0 126 0 "},"К":{"ha":836,"x_min":107,"x_max":807,"o":"m 150 0 l 238 0 q 271 10 261 0 q 281 47 281 21 l 281 421 l 365 421 q 439 401 417 421 q 488 324 461 382 l 613 42 q 635 7 624 14 q 682 0 647 0 l 775 0 q 807 24 807 0 q 801 47 807 36 l 644 388 q 588 487 614 450 q 529 544 563 524 l 788 940 q 794 963 794 954 q 764 986 794 986 l 667 986 q 618 979 632 986 q 590 947 604 972 l 367 579 l 350 579 l 281 579 l 281 939 q 271 976 281 965 q 238 986 261 986 l 150 986 q 116 976 125 986 q 107 939 107 965 l 107 47 q 116 10 107 21 q 150 0 125 0 "},"Л":{"ha":896,"x_min":13,"x_max":789,"o":"m 126 -12 q 258 88 208 28 q 335 274 307 147 q 364 628 364 401 l 364 824 l 615 824 l 615 47 q 624 10 615 21 q 658 0 633 0 l 744 0 q 779 10 769 0 q 789 47 789 21 l 789 939 q 779 976 789 965 q 744 986 769 986 l 242 986 q 208 976 217 986 q 199 939 199 965 l 196 626 q 178 338 194 432 q 133 211 161 244 q 43 143 106 178 q 13 108 13 125 q 24 81 13 99 l 65 8 q 81 -14 74 -7 q 99 -21 89 -21 q 126 -12 110 -21 "},"М":{"ha":1090,"x_min":107,"x_max":985,"o":"m 151 0 l 226 0 q 261 10 251 0 q 271 47 271 21 l 271 469 q 243 749 271 597 l 253 749 q 295 610 275 667 q 346 494 315 554 l 467 258 q 486 231 476 238 q 517 224 496 224 l 571 224 q 601 231 590 224 q 621 258 611 239 l 738 494 q 836 747 793 608 l 844 747 q 818 471 818 604 l 818 47 q 828 10 818 21 q 863 0 838 0 l 939 0 q 975 10 965 0 q 985 47 985 21 l 985 939 q 975 976 985 965 q 939 986 965 986 l 858 986 q 822 979 832 986 q 800 949 811 972 l 544 417 l 289 950 q 266 979 279 972 q 225 986 253 986 l 151 986 q 117 976 126 986 q 107 939 107 965 l 107 47 q 117 10 107 21 q 151 0 126 0 "},"Н":{"ha":918,"x_min":107,"x_max":811,"o":"m 150 0 l 238 0 q 271 10 261 0 q 281 47 281 21 l 281 418 l 638 418 l 638 47 q 647 10 638 21 q 681 0 656 0 l 767 0 q 801 10 792 0 q 811 47 811 21 l 811 939 q 801 976 811 965 q 767 986 792 986 l 681 986 q 647 976 656 986 q 638 939 638 965 l 638 581 l 281 581 l 281 939 q 271 976 281 965 q 238 986 261 986 l 150 986 q 116 976 125 986 q 107 939 107 965 l 107 47 q 116 10 107 21 q 150 0 125 0 "},"О":{"ha":894,"x_min":78,"x_max":817,"o":"m 447 -21 q 720 76 624 -21 q 817 342 817 172 l 817 644 q 720 910 817 814 q 447 1007 624 1007 q 174 910 271 1007 q 78 644 78 814 l 78 342 q 174 76 78 172 q 447 -21 271 -21 m 447 142 q 302 192 351 142 q 253 340 253 243 l 253 646 q 302 794 253 743 q 447 844 351 844 q 592 794 543 844 q 642 646 642 743 l 642 340 q 592 192 642 243 q 447 142 543 142 "},"П":{"ha":910,"x_min":107,"x_max":804,"o":"m 150 0 l 238 0 q 271 10 261 0 q 281 47 281 21 l 281 824 l 629 824 l 629 47 q 639 10 629 21 q 674 0 649 0 l 760 0 q 794 10 785 0 q 804 47 804 21 l 804 939 q 794 976 804 965 q 760 986 785 986 l 150 986 q 116 976 125 986 q 107 939 107 965 l 107 47 q 116 10 107 21 q 150 0 125 0 "},"Р":{"ha":843,"x_min":107,"x_max":794,"o":"m 150 0 l 238 0 q 271 10 261 0 q 281 47 281 21 l 281 343 l 488 343 q 712 428 629 343 q 794 664 794 514 q 710 900 794 814 q 486 986 626 986 l 150 986 q 116 976 125 986 q 107 939 107 965 l 107 47 q 116 10 107 21 q 150 0 125 0 m 479 506 l 281 506 l 281 824 l 479 824 q 582 781 544 824 q 619 664 619 739 q 582 547 619 589 q 479 506 544 506 "},"С":{"ha":853,"x_min":78,"x_max":803,"o":"m 446 -21 q 799 213 721 -21 q 803 236 803 228 q 771 272 803 263 l 689 299 q 665 304 669 304 q 632 268 644 304 q 567 174 611 206 q 450 142 522 142 q 253 340 253 142 l 253 647 q 447 844 253 844 q 569 815 524 844 q 636 721 615 785 q 650 694 643 701 q 669 686 657 686 q 692 690 679 686 l 771 715 q 803 750 803 726 q 797 775 803 763 q 446 1007 719 1007 q 174 910 271 1007 q 78 646 78 814 l 78 342 q 174 76 78 172 q 446 -21 271 -21 "},"Т":{"ha":743,"x_min":29,"x_max":714,"o":"m 328 0 l 415 0 q 449 10 440 0 q 458 44 458 19 l 458 824 l 669 824 q 704 834 694 824 q 714 871 714 844 l 714 939 q 704 976 714 965 q 669 986 694 986 l 74 986 q 39 976 49 986 q 29 939 29 965 l 29 871 q 39 834 29 844 q 74 824 49 824 l 285 824 l 285 44 q 294 10 285 19 q 328 0 304 0 "},"У":{"ha":810,"x_min":15,"x_max":792,"o":"m 228 0 l 324 0 q 372 8 358 0 q 397 42 386 15 l 786 939 q 792 964 792 950 q 764 986 792 986 l 675 986 q 628 979 639 986 q 607 944 618 972 l 403 476 l 210 944 q 184 980 197 974 q 129 986 171 986 l 46 986 q 15 963 15 986 q 22 939 15 953 l 313 289 l 204 47 q 199 22 199 35 q 228 0 199 0 "},"Ф":{"ha":1114,"x_min":56,"x_max":1058,"o":"m 515 -31 l 599 -31 q 633 -20 624 -31 q 643 17 643 -10 l 643 90 l 706 90 q 967 183 875 90 q 1058 443 1058 276 l 1058 550 q 967 810 1058 717 q 706 903 875 903 l 643 903 l 643 974 q 633 1010 643 1000 q 599 1021 624 1021 l 515 1021 q 481 1010 490 1021 q 471 974 471 1000 l 471 903 l 408 903 q 147 810 239 903 q 56 550 56 717 l 56 443 q 147 183 56 276 q 408 90 239 90 l 471 90 l 471 17 q 481 -20 471 -10 q 515 -31 490 -31 m 471 247 l 413 247 q 229 436 229 247 l 229 557 q 413 746 229 746 l 471 746 l 471 247 m 701 247 l 643 247 l 643 746 l 701 746 q 885 557 885 746 l 885 436 q 701 247 885 247 "},"Х":{"ha":850,"x_min":28,"x_max":822,"o":"m 58 0 l 168 0 q 213 7 200 0 q 240 42 226 14 l 419 374 l 611 42 q 638 6 626 13 q 688 0 650 0 l 793 0 q 822 24 822 0 q 815 49 822 36 l 535 507 l 803 942 q 811 964 811 954 q 782 986 811 986 l 675 986 q 626 980 639 986 q 600 947 614 974 l 425 640 l 250 947 q 220 980 235 974 q 164 986 206 986 l 68 986 q 47 980 54 986 q 39 964 39 974 q 46 942 39 956 l 311 506 l 36 49 q 28 24 28 35 q 58 0 28 0 "},"Ч":{"ha":856,"x_min":61,"x_max":750,"o":"m 619 0 l 706 0 q 740 10 731 0 q 750 47 750 21 l 750 939 q 740 976 750 965 q 706 986 731 986 l 619 986 q 585 976 594 986 q 575 939 575 965 l 575 544 q 508 528 550 536 q 414 521 465 521 q 277 563 319 521 q 235 699 235 604 l 235 939 q 225 976 235 965 q 192 986 215 986 l 104 986 q 70 976 79 986 q 61 939 61 965 l 61 700 q 141 445 61 532 q 396 358 221 358 q 575 378 497 358 l 575 47 q 585 10 575 21 q 619 0 594 0 "},"Ц":{"ha":950,"x_min":107,"x_max":911,"o":"m 789 -212 l 867 -212 q 901 -202 892 -212 q 911 -165 911 -192 l 911 115 q 901 152 911 142 q 867 163 892 163 l 807 163 l 807 939 q 797 976 807 965 q 763 986 788 986 l 678 986 q 643 976 653 986 q 633 939 633 965 l 633 163 l 281 163 l 281 939 q 271 976 281 965 q 236 986 261 986 l 151 986 q 117 976 126 986 q 107 939 107 965 l 107 47 q 117 10 107 21 q 151 0 126 0 l 744 0 l 744 -165 q 754 -202 744 -192 q 789 -212 764 -212 "},"Ш":{"ha":1251,"x_min":107,"x_max":1146,"o":"m 151 0 l 1100 0 q 1136 10 1126 0 q 1146 47 1146 21 l 1146 939 q 1136 976 1146 965 q 1100 986 1126 986 l 1017 986 q 981 976 990 986 q 971 939 971 965 l 971 163 l 713 163 l 713 939 q 703 976 713 965 q 668 986 693 986 l 585 986 q 550 976 560 986 q 540 939 540 965 l 540 163 l 281 163 l 281 939 q 271 976 281 965 q 236 986 261 986 l 151 986 q 117 976 126 986 q 107 939 107 965 l 107 47 q 117 10 107 21 q 151 0 126 0 "},"Щ":{"ha":1296,"x_min":107,"x_max":1257,"o":"m 1136 -212 l 1211 -212 q 1247 -202 1236 -212 q 1257 -165 1257 -192 l 1257 115 q 1247 152 1257 142 q 1211 163 1236 163 l 1151 163 l 1151 939 q 1142 976 1151 965 q 1107 986 1132 986 l 1024 986 q 988 976 999 986 q 978 939 978 965 l 978 163 l 717 163 l 717 939 q 707 976 717 965 q 672 986 697 986 l 589 986 q 554 976 564 986 q 544 939 544 965 l 544 163 l 281 163 l 281 939 q 271 976 281 965 q 236 986 261 986 l 151 986 q 117 976 126 986 q 107 939 107 965 l 107 47 q 117 10 107 21 q 151 0 126 0 l 1089 0 l 1089 -165 q 1099 -202 1089 -192 q 1136 -212 1110 -212 "},"Ь":{"ha":843,"x_min":107,"x_max":794,"o":"m 150 0 l 489 0 q 712 86 629 0 q 794 322 794 172 q 713 558 794 472 q 490 643 632 643 l 281 643 l 281 939 q 271 976 281 965 q 238 986 261 986 l 150 986 q 116 976 125 986 q 107 939 107 965 l 107 47 q 116 10 107 21 q 150 0 125 0 m 485 163 l 281 163 l 281 481 l 485 481 q 585 439 549 481 q 621 322 621 397 q 585 205 621 247 q 485 163 549 163 "},"Ъ":{"ha":986,"x_min":31,"x_max":938,"o":"m 282 0 l 628 0 q 854 86 771 0 q 938 322 938 172 q 854 558 938 472 q 628 643 771 643 l 411 643 l 411 939 q 401 976 411 965 q 365 986 390 986 l 75 986 q 40 976 50 986 q 31 939 31 965 l 31 871 q 40 834 31 844 q 75 824 50 824 l 236 824 l 236 47 q 247 10 236 21 q 282 0 257 0 m 621 163 l 411 163 l 411 481 l 621 481 q 727 439 689 481 q 765 322 765 397 q 727 205 765 247 q 621 163 689 163 "},"Ы":{"ha":1217,"x_min":107,"x_max":1110,"o":"m 151 0 l 499 0 q 726 87 642 0 q 810 324 810 174 q 726 556 810 472 q 499 640 643 640 l 281 640 l 281 939 q 271 976 281 965 q 236 986 261 986 l 151 986 q 117 976 126 986 q 107 939 107 965 l 107 47 q 117 10 107 21 q 151 0 126 0 m 979 0 l 1067 0 q 1100 10 1090 0 q 1110 47 1110 21 l 1110 939 q 1100 976 1110 965 q 1067 986 1090 986 l 979 986 q 945 976 954 986 q 936 939 936 965 l 936 47 q 945 10 936 21 q 979 0 954 0 m 492 163 l 281 163 l 281 483 l 492 483 q 598 441 560 483 q 636 324 636 399 q 598 206 636 249 q 492 163 560 163 "},"Э":{"ha":858,"x_min":56,"x_max":781,"o":"m 413 -21 q 684 76 588 -21 q 781 340 781 172 l 781 646 q 685 910 781 814 q 413 1007 589 1007 q 61 775 136 1007 q 56 750 56 763 q 89 714 56 726 l 163 690 q 186 685 182 685 q 206 692 199 685 q 219 719 213 700 q 413 844 258 844 q 557 794 508 844 q 606 647 606 744 l 606 581 l 318 581 q 283 570 293 581 q 272 533 272 560 l 272 465 q 283 428 272 439 q 318 418 293 418 l 606 418 l 606 339 q 557 192 606 243 q 413 142 508 142 q 222 269 263 142 q 208 297 215 289 q 189 306 201 306 q 167 300 183 306 l 88 274 q 56 236 56 261 q 60 213 56 228 q 413 -21 132 -21 "},"Ю":{"ha":1263,"x_min":107,"x_max":1185,"o":"m 817 -21 q 1089 76 993 -21 q 1185 340 1185 172 l 1185 646 q 1089 910 1185 814 q 817 1007 993 1007 q 545 910 642 1007 q 449 646 449 814 l 449 581 l 281 581 l 281 939 q 271 976 281 965 q 236 986 261 986 l 151 986 q 117 976 126 986 q 107 939 107 965 l 107 47 q 117 10 107 21 q 151 0 126 0 l 236 0 q 271 10 261 0 q 281 47 281 21 l 281 418 l 449 418 l 449 340 q 545 76 449 172 q 817 -21 642 -21 m 817 142 q 670 192 719 142 q 621 340 621 243 l 621 646 q 670 794 621 743 q 817 844 719 844 q 961 794 913 844 q 1010 646 1010 743 l 1010 340 q 961 192 1010 243 q 817 142 913 142 "},"Я":{"ha":867,"x_min":57,"x_max":760,"o":"m 90 0 l 167 0 q 224 8 207 0 q 251 42 240 15 l 354 278 q 404 356 379 336 q 486 375 429 375 l 586 375 l 586 47 q 595 10 586 21 q 629 0 604 0 l 715 0 q 750 10 740 0 q 760 47 760 21 l 760 939 q 750 976 760 965 q 715 986 740 986 l 379 986 q 165 905 244 986 q 86 681 86 824 q 128 506 86 575 q 247 406 169 436 q 194 340 215 388 l 64 47 q 57 24 57 33 q 90 0 57 0 m 586 538 l 382 538 q 292 574 325 538 q 260 681 260 611 q 292 786 260 749 q 382 824 324 824 l 586 824 l 586 538 "}}}
